STARTFONT 2.1
COMMENT
COMMENT Converted from OpenType font "ipam.ttf" by "otf2bdf 3.0".
COMMENT
FONT -FreeType-IPAMincho-Medium-R-Normal--24-240-72-72-P-212-ISO10646-1
SIZE 24 72 72
FONTBOUNDINGBOX 24 24 0 -3
STARTPROPERTIES 19
FOUNDRY "FreeType"
FAMILY_NAME "IPAMincho"
WEIGHT_NAME "Medium"
SLANT "R"
SETWIDTH_NAME "Normal"
ADD_STYLE_NAME ""
PIXEL_SIZE 24
POINT_SIZE 240
RESOLUTION_X 72
RESOLUTION_Y 72
SPACING "P"
AVERAGE_WIDTH 212
CHARSET_REGISTRY "ISO10646"
CHARSET_ENCODING "1"
FONT_ASCENT 21
FONT_DESCENT 2
COPYRIGHT "Copyright(c) Information-technology Promotion Agency, Japan (IPA), 2003-2011. You must accept "http://ipafont.ipa.go.jp/ipa_font_license_v1.html" to use this product."
_OTF_FONTFILE "ipam.ttf"
_OTF_PSNAME "IPAMincho"
ENDPROPERTIES
CHARS 11158
STARTCHAR 0020
ENCODING 32
SWIDTH 500 0
DWIDTH 12 0
BBX 0 0 0 0
BITMAP
ENDCHAR
STARTCHAR 0021
ENCODING 33
SWIDTH 500 0
DWIDTH 12 0
BBX 2 20 5 -1
BITMAP
C0
C0
C0
C0
C0
C0
C0
C0
C0
C0
C0
C0
80
80
00
00
00
C0
C0
C0
ENDCHAR
STARTCHAR 0022
ENCODING 34
SWIDTH 500 0
DWIDTH 12 0
BBX 8 7 2 13
BITMAP
67
E7
E7
23
42
44
88
ENDCHAR
STARTCHAR 0023
ENCODING 35
SWIDTH 500 0
DWIDTH 12 0
BBX 10 20 1 -1
BITMAP
1900
1100
1100
1100
1100
7FC0
1200
1200
1200
1200
1200
2200
2200
2200
FF80
2200
2200
2400
2400
2400
ENDCHAR
STARTCHAR 0024
ENCODING 36
SWIDTH 500 0
DWIDTH 12 0
BBX 10 21 1 -1
BITMAP
0800
0800
1E00
6900
4880
4980
4980
6800
3800
1C00
0600
0B80
0980
C8C0
C8C0
C880
4880
6900
1E00
0800
0800
ENDCHAR
STARTCHAR 0025
ENCODING 37
SWIDTH 500 0
DWIDTH 12 0
BBX 10 22 1 -2
BITMAP
0040
7040
C880
8880
8900
8900
8A00
CA00
7200
0400
0400
0800
0B80
1480
14C0
1440
2440
2440
44C0
4480
8380
8000
ENDCHAR
STARTCHAR 0026
ENCODING 38
SWIDTH 500 0
DWIDTH 12 0
BBX 10 18 1 0
BITMAP
1C00
2600
2200
2200
2400
2C00
3000
31C0
5080
5880
8880
8C80
8500
8700
8340
C340
6540
3880
ENDCHAR
STARTCHAR 0027
ENCODING 39
SWIDTH 500 0
DWIDTH 12 0
BBX 3 7 2 13
BITMAP
60
E0
E0
20
40
40
80
ENDCHAR
STARTCHAR 0028
ENCODING 40
SWIDTH 500 0
DWIDTH 12 0
BBX 6 22 4 -2
BITMAP
0C
10
20
20
40
40
80
80
80
80
80
80
80
80
80
80
40
40
20
20
10
0C
ENDCHAR
STARTCHAR 0029
ENCODING 41
SWIDTH 500 0
DWIDTH 12 0
BBX 6 22 2 -2
BITMAP
C0
20
10
10
08
08
04
04
04
04
04
04
04
04
04
04
08
08
10
10
20
C0
ENDCHAR
STARTCHAR 002A
ENCODING 42
SWIDTH 500 0
DWIDTH 12 0
BBX 10 11 1 4
BITMAP
0C00
0C00
CCC0
ED80
3B00
0C00
3B00
EDC0
CCC0
0C00
0C00
ENDCHAR
STARTCHAR 002B
ENCODING 43
SWIDTH 500 0
DWIDTH 12 0
BBX 10 13 1 3
BITMAP
0C00
0C00
0C00
0C00
0C00
0C00
FFC0
0C00
0C00
0C00
0C00
0C00
0C00
ENDCHAR
STARTCHAR 002C
ENCODING 44
SWIDTH 500 0
DWIDTH 12 0
BBX 4 7 2 -3
BITMAP
60
E0
70
20
60
40
80
ENDCHAR
STARTCHAR 002D
ENCODING 45
SWIDTH 500 0
DWIDTH 12 0
BBX 10 1 1 9
BITMAP
FFC0
ENDCHAR
STARTCHAR 002E
ENCODING 46
SWIDTH 500 0
DWIDTH 12 0
BBX 4 3 2 0
BITMAP
60
F0
60
ENDCHAR
STARTCHAR 002F
ENCODING 47
SWIDTH 500 0
DWIDTH 12 0
BBX 10 22 1 -2
BITMAP
0040
0080
0080
0180
0100
0100
0200
0200
0600
0400
0400
0800
0800
1000
1000
1000
2000
2000
4000
4000
4000
8000
ENDCHAR
STARTCHAR 0030
ENCODING 48
SWIDTH 500 0
DWIDTH 12 0
BBX 10 18 1 0
BITMAP
1E00
3300
2100
6180
4080
4080
4080
C0C0
C0C0
C0C0
C0C0
C0C0
4080
4080
6180
2100
3300
1E00
ENDCHAR
STARTCHAR 0031
ENCODING 49
SWIDTH 500 0
DWIDTH 12 0
BBX 6 17 3 1
BITMAP
30
F0
30
30
30
30
30
30
30
30
30
30
30
30
30
30
FC
ENDCHAR
STARTCHAR 0032
ENCODING 50
SWIDTH 500 0
DWIDTH 12 0
BBX 10 17 1 1
BITMAP
3E00
6100
4180
6080
6180
0180
0100
0300
0600
0400
0800
1800
1000
2040
4040
40C0
FFC0
ENDCHAR
STARTCHAR 0033
ENCODING 51
SWIDTH 500 0
DWIDTH 12 0
BBX 9 18 1 0
BITMAP
1E00
6300
6180
6180
0180
0180
0300
1C00
0300
0180
0080
0080
4080
E080
C180
4180
6300
1E00
ENDCHAR
STARTCHAR 0034
ENCODING 52
SWIDTH 500 0
DWIDTH 12 0
BBX 10 17 1 1
BITMAP
0300
0300
0700
0B00
0B00
1300
1300
2300
4300
4300
8300
FFC0
0300
0300
0300
0300
0FC0
ENDCHAR
STARTCHAR 0035
ENCODING 53
SWIDTH 500 0
DWIDTH 12 0
BBX 9 18 1 0
BITMAP
7F80
4000
4000
4000
4000
4000
5E00
6300
4180
0080
0080
0080
6080
E080
4180
4180
6300
1E00
ENDCHAR
STARTCHAR 0036
ENCODING 54
SWIDTH 500 0
DWIDTH 12 0
BBX 9 18 2 0
BITMAP
1E00
3300
6300
4000
C000
8000
8000
BC00
E200
C300
8100
8180
8180
8100
C100
4300
6200
3C00
ENDCHAR
STARTCHAR 0037
ENCODING 55
SWIDTH 500 0
DWIDTH 12 0
BBX 9 18 2 0
BITMAP
FF80
8100
8100
8200
8200
0600
0400
0400
0C00
0800
0800
1800
1800
1800
1800
1800
1800
1000
ENDCHAR
STARTCHAR 0038
ENCODING 56
SWIDTH 500 0
DWIDTH 12 0
BBX 10 18 1 0
BITMAP
1E00
3300
6180
6080
6080
6180
3100
1E00
1600
2300
4180
4080
C0C0
C0C0
C0C0
4180
2180
1E00
ENDCHAR
STARTCHAR 0039
ENCODING 57
SWIDTH 500 0
DWIDTH 12 0
BBX 9 18 1 0
BITMAP
1E00
2300
6100
4180
C080
C080
C080
4080
6380
1E80
0080
0080
0180
6180
6100
4300
6600
3C00
ENDCHAR
STARTCHAR 003A
ENCODING 58
SWIDTH 500 0
DWIDTH 12 0
BBX 4 12 4 1
BITMAP
60
F0
60
00
00
00
00
00
00
60
F0
60
ENDCHAR
STARTCHAR 003B
ENCODING 59
SWIDTH 500 0
DWIDTH 12 0
BBX 4 14 4 -1
BITMAP
60
F0
60
00
00
00
00
00
60
E0
70
20
20
C0
ENDCHAR
STARTCHAR 003C
ENCODING 60
SWIDTH 500 0
DWIDTH 12 0
BBX 8 15 2 2
BITMAP
01
01
02
04
18
30
60
C0
40
20
10
08
04
02
01
ENDCHAR
STARTCHAR 003D
ENCODING 61
SWIDTH 500 0
DWIDTH 12 0
BBX 10 5 1 7
BITMAP
FFC0
0000
0000
0000
FFC0
ENDCHAR
STARTCHAR 003E
ENCODING 62
SWIDTH 500 0
DWIDTH 12 0
BBX 8 15 2 2
BITMAP
80
80
40
20
18
0C
06
03
03
04
08
10
20
40
80
ENDCHAR
STARTCHAR 003F
ENCODING 63
SWIDTH 500 0
DWIDTH 12 0
BBX 10 21 1 -1
BITMAP
1E00
6180
4080
80C0
E0C0
E0C0
6080
0180
0300
0200
0400
0400
0400
0800
0800
0800
0000
0000
0C00
0C00
0C00
ENDCHAR
STARTCHAR 0040
ENCODING 64
SWIDTH 500 0
DWIDTH 12 0
BBX 10 19 1 0
BITMAP
1F00
3180
6080
4040
4E40
9B40
9140
9140
9140
B140
B340
9240
9240
9540
CD80
4040
6040
3080
0F00
ENDCHAR
STARTCHAR 0041
ENCODING 65
SWIDTH 500 0
DWIDTH 12 0
BBX 12 17 0 1
BITMAP
0400
0600
0600
0600
0A00
0B00
0900
1100
1100
1180
1F80
1080
2080
20C0
20C0
2040
F1F0
ENDCHAR
STARTCHAR 0042
ENCODING 66
SWIDTH 500 0
DWIDTH 12 0
BBX 10 17 1 1
BITMAP
FE00
6300
6180
6180
6180
6180
6100
6300
7C00
6300
6080
60C0
60C0
60C0
6080
6180
FE00
ENDCHAR
STARTCHAR 0043
ENCODING 67
SWIDTH 500 0
DWIDTH 12 0
BBX 9 18 2 0
BITMAP
1D00
2300
4100
C100
8100
8000
8000
8000
8000
8000
8000
8100
8180
C100
C100
4300
6200
1C00
ENDCHAR
STARTCHAR 0044
ENCODING 68
SWIDTH 500 0
DWIDTH 12 0
BBX 10 17 1 1
BITMAP
FC00
6300
6180
6180
6080
60C0
60C0
60C0
60C0
60C0
60C0
60C0
6080
6180
6100
6300
FC00
ENDCHAR
STARTCHAR 0045
ENCODING 69
SWIDTH 500 0
DWIDTH 12 0
BBX 10 17 1 1
BITMAP
FF80
6080
6080
6080
6080
6000
6100
6300
7F00
6300
6100
6000
6000
6040
6040
60C0
FFC0
ENDCHAR
STARTCHAR 0046
ENCODING 70
SWIDTH 500 0
DWIDTH 12 0
BBX 10 17 1 1
BITMAP
FFC0
60C0
2040
2040
2040
2000
2100
2100
3F00
2100
2100
2000
2000
2000
2000
6000
F800
ENDCHAR
STARTCHAR 0047
ENCODING 71
SWIDTH 500 0
DWIDTH 12 0
BBX 10 18 1 0
BITMAP
1E80
3180
6080
6080
4080
4000
C000
C000
C000
C3C0
C080
4080
4080
4080
6080
2180
3280
1C00
ENDCHAR
STARTCHAR 0048
ENCODING 72
SWIDTH 500 0
DWIDTH 12 0
BBX 10 17 1 1
BITMAP
F3C0
4080
4080
4080
4080
4080
4080
4080
7F80
4080
4080
4080
4080
4080
4080
4080
F3C0
ENDCHAR
STARTCHAR 0049
ENCODING 73
SWIDTH 500 0
DWIDTH 12 0
BBX 6 17 3 1
BITMAP
FC
30
30
30
30
30
30
30
30
30
30
30
30
30
30
30
FC
ENDCHAR
STARTCHAR 004A
ENCODING 74
SWIDTH 500 0
DWIDTH 12 0
BBX 9 18 2 0
BITMAP
0F80
0200
0200
0200
0200
0200
0200
0200
0200
0200
0200
0200
0200
C200
C600
8400
CC00
7800
ENDCHAR
STARTCHAR 004B
ENCODING 75
SWIDTH 500 0
DWIDTH 12 0
BBX 10 17 1 1
BITMAP
F380
4100
4200
4200
4400
4400
4800
4800
5C00
5400
6600
4200
4300
4100
4180
4180
F3C0
ENDCHAR
STARTCHAR 004C
ENCODING 76
SWIDTH 500 0
DWIDTH 12 0
BBX 10 17 1 1
BITMAP
F800
2000
2000
2000
2000
2000
2000
2000
2000
2000
2000
2000
2040
2040
20C0
20C0
FFC0
ENDCHAR
STARTCHAR 004D
ENCODING 77
SWIDTH 500 0
DWIDTH 12 0
BBX 12 17 0 1
BITMAP
F0F0
30C0
50C0
50C0
5140
5140
5940
4940
4940
4A40
4A40
4E40
4640
4640
4440
4440
F0F0
ENDCHAR
STARTCHAR 004E
ENCODING 78
SWIDTH 500 0
DWIDTH 12 0
BBX 10 17 1 1
BITMAP
E1C0
6080
7080
5080
5080
5880
4880
4C80
4480
4680
4680
4280
4380
4180
4180
4080
E080
ENDCHAR
STARTCHAR 004F
ENCODING 79
SWIDTH 500 0
DWIDTH 12 0
BBX 10 18 1 0
BITMAP
1E00
3100
6100
6080
4080
C080
C0C0
C0C0
C0C0
C0C0
C0C0
C0C0
C080
4080
4180
6180
3300
1E00
ENDCHAR
STARTCHAR 0050
ENCODING 80
SWIDTH 500 0
DWIDTH 12 0
BBX 10 17 1 1
BITMAP
FE00
6180
60C0
60C0
60C0
60C0
60C0
6180
7F00
6000
6000
6000
6000
6000
6000
6000
F800
ENDCHAR
STARTCHAR 0051
ENCODING 81
SWIDTH 500 0
DWIDTH 12 0
BBX 11 19 1 -1
BITMAP
1E00
3300
6180
4180
4080
C0C0
C0C0
C0C0
C0C0
C0C0
C0C0
CCC0
5480
5280
7380
7300
3240
1F60
0180
ENDCHAR
STARTCHAR 0052
ENCODING 82
SWIDTH 500 0
DWIDTH 12 0
BBX 11 17 1 1
BITMAP
FE00
6300
6180
6080
6080
6180
6180
6300
7E00
6400
6600
6600
6200
6300
6100
6180
F0E0
ENDCHAR
STARTCHAR 0053
ENCODING 83
SWIDTH 500 0
DWIDTH 12 0
BBX 8 18 2 0
BITMAP
7D
C7
83
81
80
C0
60
30
1C
06
03
83
81
81
81
C3
A2
1C
ENDCHAR
STARTCHAR 0054
ENCODING 84
SWIDTH 500 0
DWIDTH 12 0
BBX 10 17 1 1
BITMAP
FFC0
CCC0
8C40
8C40
0C00
0C00
0C00
0C00
0C00
0C00
0C00
0C00
0C00
0C00
0C00
0C00
3F00
ENDCHAR
STARTCHAR 0055
ENCODING 85
SWIDTH 500 0
DWIDTH 12 0
BBX 12 18 0 0
BITMAP
F8F0
2040
2040
2040
2040
2040
2040
2040
2040
2040
2040
2040
2040
2040
2040
3040
1880
0F00
ENDCHAR
STARTCHAR 0056
ENCODING 86
SWIDTH 500 0
DWIDTH 12 0
BBX 12 17 0 1
BITMAP
F8F0
2040
3040
3040
1040
1080
1880
1880
0880
0900
0D00
0D00
0600
0600
0600
0600
0400
ENDCHAR
STARTCHAR 0057
ENCODING 87
SWIDTH 500 0
DWIDTH 12 0
BBX 12 17 0 1
BITMAP
E770
6220
6220
6620
2640
2740
2740
2940
2940
3940
3940
1980
1980
1980
1080
1080
1080
ENDCHAR
STARTCHAR 0058
ENCODING 88
SWIDTH 500 0
DWIDTH 12 0
BBX 12 17 0 1
BITMAP
79E0
30C0
1080
1880
0900
0D00
0600
0600
0600
0600
0B00
0900
1180
1080
20C0
2040
F9F0
ENDCHAR
STARTCHAR 0059
ENCODING 89
SWIDTH 500 0
DWIDTH 12 0
BBX 12 17 0 1
BITMAP
F8F0
2040
3040
1080
1080
1880
0900
0D00
0600
0600
0600
0600
0600
0600
0600
0600
0F00
ENDCHAR
STARTCHAR 005A
ENCODING 90
SWIDTH 500 0
DWIDTH 12 0
BBX 9 17 1 1
BITMAP
7F80
6180
4100
4300
0200
0600
0600
0C00
0C00
1800
1800
3000
3080
2080
6080
4180
FF80
ENDCHAR
STARTCHAR 005B
ENCODING 91
SWIDTH 500 0
DWIDTH 12 0
BBX 6 22 4 -2
BITMAP
FC
80
80
80
80
80
80
80
80
80
80
80
80
80
80
80
80
80
80
80
80
FC
ENDCHAR
STARTCHAR 005C
ENCODING 92
SWIDTH 500 0
DWIDTH 12 0
BBX 12 17 0 1
BITMAP
F8F0
2040
3040
1080
1880
0900
7FE0
0D00
0600
0600
0600
7FE0
0600
0600
0600
0600
0F00
ENDCHAR
STARTCHAR 005D
ENCODING 93
SWIDTH 500 0
DWIDTH 12 0
BBX 6 22 2 -2
BITMAP
FC
04
04
04
04
04
04
04
04
04
04
04
04
04
04
04
04
04
04
04
04
FC
ENDCHAR
STARTCHAR 005E
ENCODING 94
SWIDTH 500 0
DWIDTH 12 0
BBX 8 3 2 15
BITMAP
3C
66
C3
ENDCHAR
STARTCHAR 005F
ENCODING 95
SWIDTH 500 0
DWIDTH 12 0
BBX 12 1 0 -3
BITMAP
FFF0
ENDCHAR
STARTCHAR 0060
ENCODING 96
SWIDTH 500 0
DWIDTH 12 0
BBX 7 3 2 15
BITMAP
F0
18
06
ENDCHAR
STARTCHAR 0061
ENCODING 97
SWIDTH 500 0
DWIDTH 12 0
BBX 9 13 2 0
BITMAP
7C00
C600
C200
C200
0200
3E00
6200
C200
8200
8200
8680
CA80
7100
ENDCHAR
STARTCHAR 0062
ENCODING 98
SWIDTH 500 0
DWIDTH 12 0
BBX 10 19 1 0
BITMAP
6000
E000
2000
2000
2000
2000
2E00
3300
2180
2080
2080
20C0
20C0
20C0
2080
2080
2180
3300
0E00
ENDCHAR
STARTCHAR 0063
ENCODING 99
SWIDTH 500 0
DWIDTH 12 0
BBX 8 13 2 0
BITMAP
3C
63
43
C3
C0
80
80
80
C0
C1
41
62
1C
ENDCHAR
STARTCHAR 0064
ENCODING 100
SWIDTH 500 0
DWIDTH 12 0
BBX 9 19 2 0
BITMAP
0300
0700
0300
0300
0300
0300
3F00
6300
C300
C300
8300
8300
8300
8300
8300
8300
C300
6780
3800
ENDCHAR
STARTCHAR 0065
ENCODING 101
SWIDTH 500 0
DWIDTH 12 0
BBX 8 13 2 0
BITMAP
3C
62
42
C3
81
FF
80
80
80
C1
41
62
3C
ENDCHAR
STARTCHAR 0066
ENCODING 102
SWIDTH 500 0
DWIDTH 12 0
BBX 9 17 2 1
BITMAP
0F00
1180
3180
3000
3000
FE00
3000
3000
3000
3000
3000
3000
3000
3000
3000
3000
7800
ENDCHAR
STARTCHAR 0067
ENCODING 103
SWIDTH 500 0
DWIDTH 12 0
BBX 11 16 1 -3
BITMAP
1FC0
6360
4100
4180
4100
6300
3E00
4000
4000
3C00
4380
80C0
80C0
C0C0
6180
3F00
ENDCHAR
STARTCHAR 0068
ENCODING 104
SWIDTH 500 0
DWIDTH 12 0
BBX 10 18 1 1
BITMAP
6000
E000
6000
6000
6000
6000
6E00
7100
6180
6080
6080
6080
6080
6080
6080
6080
6180
F3C0
ENDCHAR
STARTCHAR 0069
ENCODING 105
SWIDTH 500 0
DWIDTH 12 0
BBX 4 17 4 1
BITMAP
60
60
00
00
00
60
E0
60
60
60
60
60
60
60
60
60
F0
ENDCHAR
STARTCHAR 006A
ENCODING 106
SWIDTH 500 0
DWIDTH 12 0
BBX 6 21 2 -3
BITMAP
0C
0C
00
00
00
0C
1C
04
04
04
04
04
04
04
04
04
04
C4
CC
C8
78
ENDCHAR
STARTCHAR 006B
ENCODING 107
SWIDTH 500 0
DWIDTH 12 0
BBX 11 18 1 1
BITMAP
6000
E000
6000
6000
6000
6000
6780
6300
6400
6400
6800
7C00
6400
6200
6300
6100
6180
F3E0
ENDCHAR
STARTCHAR 006C
ENCODING 108
SWIDTH 500 0
DWIDTH 12 0
BBX 4 17 4 1
BITMAP
E0
60
60
60
60
60
60
60
60
60
60
60
60
60
60
60
F0
ENDCHAR
STARTCHAR 006D
ENCODING 109
SWIDTH 500 0
DWIDTH 12 0
BBX 12 13 0 1
BITMAP
2000
FDC0
6660
6660
6660
6660
6660
6660
6660
6660
6660
6660
FFF0
ENDCHAR
STARTCHAR 006E
ENCODING 110
SWIDTH 500 0
DWIDTH 12 0
BBX 10 13 1 1
BITMAP
2000
EE00
7100
6180
6080
6080
6080
6080
6080
6080
6080
6180
F3C0
ENDCHAR
STARTCHAR 006F
ENCODING 111
SWIDTH 500 0
DWIDTH 12 0
BBX 8 13 2 0
BITMAP
3C
66
C3
81
81
81
81
81
81
81
C3
66
3C
ENDCHAR
STARTCHAR 0070
ENCODING 112
SWIDTH 500 0
DWIDTH 12 0
BBX 10 16 1 -2
BITMAP
2000
EE00
3100
2080
2080
20C0
20C0
20C0
2080
2180
3100
2E00
2000
2000
2000
F800
ENDCHAR
STARTCHAR 0071
ENCODING 113
SWIDTH 500 0
DWIDTH 12 0
BBX 9 15 2 -2
BITMAP
3D00
6300
C300
8300
8300
8300
8300
8300
C300
6700
3B00
0300
0300
0300
0780
ENDCHAR
STARTCHAR 0072
ENCODING 114
SWIDTH 500 0
DWIDTH 12 0
BBX 9 13 2 1
BITMAP
2000
E700
2B80
3000
2000
2000
2000
2000
2000
2000
2000
2000
F800
ENDCHAR
STARTCHAR 0073
ENCODING 115
SWIDTH 500 0
DWIDTH 12 0
BBX 8 13 2 0
BITMAP
3E
46
C2
C2
40
30
0C
02
81
81
C3
A7
1C
ENDCHAR
STARTCHAR 0074
ENCODING 116
SWIDTH 500 0
DWIDTH 12 0
BBX 8 17 2 0
BITMAP
10
10
30
70
FE
10
10
10
10
10
10
10
10
11
11
12
1C
ENDCHAR
STARTCHAR 0075
ENCODING 117
SWIDTH 500 0
DWIDTH 12 0
BBX 10 14 1 0
BITMAP
2080
E380
6180
6180
6180
6180
6180
6180
6180
6180
6180
2180
22C0
1C00
ENDCHAR
STARTCHAR 0076
ENCODING 118
SWIDTH 500 0
DWIDTH 12 0
BBX 10 12 1 1
BITMAP
F3C0
6080
6080
2100
3100
3100
1200
1A00
1A00
0C00
0C00
0800
ENDCHAR
STARTCHAR 0077
ENCODING 119
SWIDTH 500 0
DWIDTH 12 0
BBX 12 12 0 1
BITMAP
F770
6220
6220
2640
2740
2540
3940
1980
1980
1980
1080
1080
ENDCHAR
STARTCHAR 0078
ENCODING 120
SWIDTH 500 0
DWIDTH 12 0
BBX 10 12 1 1
BITMAP
F3C0
2100
3200
1200
0C00
0C00
0C00
1600
2300
2100
4180
F3C0
ENDCHAR
STARTCHAR 0079
ENCODING 121
SWIDTH 500 0
DWIDTH 12 0
BBX 11 16 1 -3
BITMAP
F1E0
6080
2080
2100
3100
1100
1A00
0A00
0A00
0C00
0400
0400
0800
C800
D000
7000
ENDCHAR
STARTCHAR 007A
ENCODING 122
SWIDTH 500 0
DWIDTH 12 0
BBX 8 12 2 1
BITMAP
FF
C3
86
84
0C
18
10
30
61
41
C3
FF
ENDCHAR
STARTCHAR 007B
ENCODING 123
SWIDTH 500 0
DWIDTH 12 0
BBX 6 22 4 -2
BITMAP
0C
10
20
20
20
20
20
20
20
60
C0
40
20
20
20
20
20
20
20
30
10
0C
ENDCHAR
STARTCHAR 007C
ENCODING 124
SWIDTH 500 0
DWIDTH 12 0
BBX 2 24 5 -3
BITMAP
C0
C0
C0
C0
C0
C0
C0
C0
C0
C0
C0
C0
C0
C0
C0
C0
C0
C0
C0
C0
C0
C0
C0
C0
ENDCHAR
STARTCHAR 007D
ENCODING 125
SWIDTH 500 0
DWIDTH 12 0
BBX 6 22 2 -2
BITMAP
C0
20
30
10
10
10
10
10
10
18
0C
08
10
10
10
10
10
10
10
30
20
C0
ENDCHAR
STARTCHAR 007E
ENCODING 126
SWIDTH 500 0
DWIDTH 12 0
BBX 8 3 2 15
BITMAP
71
99
0E
ENDCHAR
STARTCHAR 00A0
ENCODING 160
SWIDTH 500 0
DWIDTH 12 0
BBX 0 0 0 0
BITMAP
ENDCHAR
STARTCHAR 00A1
ENCODING 161
SWIDTH 500 0
DWIDTH 12 0
BBX 2 20 5 -1
BITMAP
C0
C0
C0
00
00
80
80
80
C0
C0
C0
C0
C0
C0
C0
C0
C0
C0
C0
C0
ENDCHAR
STARTCHAR 00A2
ENCODING 162
SWIDTH 1000 0
DWIDTH 24 0
BBX 11 17 7 1
BITMAP
0100
0100
1E00
3380
62C0
C4C0
C400
8400
8800
8800
C840
D060
7080
3F00
2000
2000
2000
ENDCHAR
STARTCHAR 00A3
ENCODING 163
SWIDTH 1000 0
DWIDTH 24 0
BBX 14 18 5 0
BITMAP
03C0
0630
0C30
0838
0830
0800
0C00
0C00
7FE0
0400
0600
0200
0200
7E00
8704
87C4
C4F8
7838
ENDCHAR
STARTCHAR 00A4
ENCODING 164
SWIDTH 500 0
DWIDTH 12 0
BBX 8 9 2 5
BITMAP
81
FF
46
42
42
42
66
FF
81
ENDCHAR
STARTCHAR 00A5
ENCODING 165
SWIDTH 1000 0
DWIDTH 24 0
BBX 17 17 3 1
BITMAP
FE1F80
180200
080400
0C0800
060800
021000
3FFF00
012000
01C000
00C000
3FFF00
00C000
00C000
00C000
00C000
00C000
03F000
ENDCHAR
STARTCHAR 00A6
ENCODING 166
SWIDTH 500 0
DWIDTH 12 0
BBX 2 22 5 -2
BITMAP
C0
C0
C0
C0
C0
C0
C0
C0
C0
C0
00
00
C0
C0
C0
C0
C0
C0
C0
C0
C0
C0
ENDCHAR
STARTCHAR 00A7
ENCODING 167
SWIDTH 1000 0
DWIDTH 24 0
BBX 10 22 7 -2
BITMAP
1E00
6180
40C0
C1C0
C180
6000
3000
3C00
4700
8180
80C0
C040
7040
3C80
0F00
0380
00C0
C0C0
E040
C0C0
6180
1F00
ENDCHAR
STARTCHAR 00A8
ENCODING 168
SWIDTH 1000 0
DWIDTH 24 0
BBX 10 3 7 16
BITMAP
6180
E1C0
E180
ENDCHAR
STARTCHAR 00A9
ENCODING 169
SWIDTH 500 0
DWIDTH 12 0
BBX 10 11 1 4
BITMAP
1E00
6180
9F80
A140
A040
A040
A140
B140
9E80
6180
1E00
ENDCHAR
STARTCHAR 00AA
ENCODING 170
SWIDTH 500 0
DWIDTH 12 0
BBX 7 10 1 8
BITMAP
78
C8
1C
6C
8C
8E
F6
00
00
FE
ENDCHAR
STARTCHAR 00AB
ENCODING 171
SWIDTH 500 0
DWIDTH 12 0
BBX 8 10 3 2
BITMAP
0B
12
24
68
50
D0
68
24
12
0B
ENDCHAR
STARTCHAR 00AC
ENCODING 172
SWIDTH 1000 0
DWIDTH 24 0
BBX 20 10 2 4
BITMAP
FFFFF0
000010
000010
000010
000010
000010
000010
000010
000010
000010
ENDCHAR
STARTCHAR 00AD
ENCODING 173
SWIDTH 500 0
DWIDTH 12 0
BBX 10 1 1 9
BITMAP
FFC0
ENDCHAR
STARTCHAR 00AE
ENCODING 174
SWIDTH 500 0
DWIDTH 12 0
BBX 10 10 1 4
BITMAP
1E00
6180
BE40
9140
9240
9C40
9240
B140
6980
1E00
ENDCHAR
STARTCHAR 00AF
ENCODING 175
SWIDTH 500 0
DWIDTH 12 0
BBX 8 1 2 16
BITMAP
FF
ENDCHAR
STARTCHAR 00B0
ENCODING 176
SWIDTH 1000 0
DWIDTH 24 0
BBX 5 5 1 15
BITMAP
70
88
88
88
70
ENDCHAR
STARTCHAR 00B1
ENCODING 177
SWIDTH 1000 0
DWIDTH 24 0
BBX 16 17 4 1
BITMAP
0180
0180
0180
0180
0180
0180
FFFF
0180
0180
0180
0180
0180
0180
0000
0000
0000
FFFF
ENDCHAR
STARTCHAR 00B2
ENCODING 178
SWIDTH 500 0
DWIDTH 12 0
BBX 5 9 2 12
BITMAP
70
98
88
10
10
20
48
88
F8
ENDCHAR
STARTCHAR 00B3
ENCODING 179
SWIDTH 500 0
DWIDTH 12 0
BBX 5 8 2 12
BITMAP
F0
88
18
10
70
08
88
F0
ENDCHAR
STARTCHAR 00B4
ENCODING 180
SWIDTH 1000 0
DWIDTH 24 0
BBX 7 3 9 15
BITMAP
1E
30
C0
ENDCHAR
STARTCHAR 00B6
ENCODING 182
SWIDTH 1000 0
DWIDTH 24 0
BBX 10 22 6 -2
BITMAP
3FC0
7840
F840
F840
F840
F840
7840
7840
0840
0840
0840
0840
0840
0840
0840
0840
0840
0840
0840
0840
0840
0840
ENDCHAR
STARTCHAR 00B7
ENCODING 183
SWIDTH 500 0
DWIDTH 12 0
BBX 4 3 4 7
BITMAP
60
F0
60
ENDCHAR
STARTCHAR 00B8
ENCODING 184
SWIDTH 500 0
DWIDTH 12 0
BBX 6 5 3 -1
BITMAP
20
40
78
0C
F8
ENDCHAR
STARTCHAR 00B9
ENCODING 185
SWIDTH 500 0
DWIDTH 12 0
BBX 3 9 3 12
BITMAP
40
C0
40
40
40
40
40
40
E0
ENDCHAR
STARTCHAR 00BA
ENCODING 186
SWIDTH 500 0
DWIDTH 12 0
BBX 7 10 1 8
BITMAP
78
44
C4
86
C6
C4
4C
38
00
FE
ENDCHAR
STARTCHAR 00BB
ENCODING 187
SWIDTH 500 0
DWIDTH 12 0
BBX 8 10 1 2
BITMAP
D0
48
24
16
0A
0B
16
24
48
D0
ENDCHAR
STARTCHAR 00BC
ENCODING 188
SWIDTH 500 0
DWIDTH 12 0
BBX 10 22 1 -2
BITMAP
4040
C080
4080
4080
4100
4100
4200
4200
4400
4400
F400
0880
0980
1280
1280
1480
2880
2880
4FC0
4080
8080
81C0
ENDCHAR
STARTCHAR 00BD
ENCODING 189
SWIDTH 500 0
DWIDTH 12 0
BBX 10 22 1 -2
BITMAP
4040
C080
4080
4080
4100
4100
4200
4200
4400
4400
F400
0B80
0A40
1640
1040
10C0
2080
2100
4100
4240
8240
87C0
ENDCHAR
STARTCHAR 00BE
ENCODING 190
SWIDTH 500 0
DWIDTH 12 0
BBX 10 22 1 -2
BITMAP
7040
9040
D880
1880
1100
6100
1100
8A00
8A00
9C00
7400
0880
0980
0A80
1280
1480
2880
2880
4FC0
4080
4080
81C0
ENDCHAR
STARTCHAR 00BF
ENCODING 191
SWIDTH 500 0
DWIDTH 12 0
BBX 10 20 1 -1
BITMAP
0C00
0C00
0C00
0000
0000
0800
0800
0800
0800
0800
1800
3000
2000
6000
C180
C1C0
C040
C080
6180
1E00
ENDCHAR
STARTCHAR 00C0
ENCODING 192
SWIDTH 500 0
DWIDTH 12 0
BBX 12 20 0 1
BITMAP
3C00
0200
0500
0600
0600
0600
0A00
0B00
0B00
0900
1100
1180
1180
1F80
1080
20C0
20C0
20C0
2040
F1F0
ENDCHAR
STARTCHAR 00C1
ENCODING 193
SWIDTH 500 0
DWIDTH 12 0
BBX 12 20 0 1
BITMAP
0380
0400
0C00
0600
0600
0600
0A00
0B00
0B00
0900
1100
1180
1180
1F80
1080
20C0
20C0
20C0
2040
F1F0
ENDCHAR
STARTCHAR 00C2
ENCODING 194
SWIDTH 500 0
DWIDTH 12 0
BBX 12 20 0 1
BITMAP
0600
0900
1480
0600
0600
0600
0A00
0B00
0B00
0900
1100
1180
1180
1F80
1080
20C0
20C0
20C0
2040
F1F0
ENDCHAR
STARTCHAR 00C3
ENCODING 195
SWIDTH 500 0
DWIDTH 12 0
BBX 12 19 0 1
BITMAP
1F80
0000
0400
0600
0600
0600
0A00
0B00
0900
1100
1100
1180
1F80
1080
2080
20C0
20C0
2040
F1F0
ENDCHAR
STARTCHAR 00C4
ENCODING 196
SWIDTH 500 0
DWIDTH 12 0
BBX 12 19 0 1
BITMAP
1980
1980
0400
0600
0600
0600
0A00
0B00
0900
1100
1100
1180
1F80
1080
2080
20C0
20C0
2040
F1F0
ENDCHAR
STARTCHAR 00C5
ENCODING 197
SWIDTH 500 0
DWIDTH 12 0
BBX 12 20 0 1
BITMAP
0600
0900
0A00
0600
0600
0600
0A00
0B00
0B00
0900
1100
1180
1180
1F80
1080
20C0
20C0
20C0
2040
F1F0
ENDCHAR
STARTCHAR 00C6
ENCODING 198
SWIDTH 500 0
DWIDTH 12 0
BBX 11 17 0 1
BITMAP
07E0
0660
0620
0620
0A00
0A00
0A40
1240
13C0
1240
1E40
2200
2200
2220
2220
4220
F7E0
ENDCHAR
STARTCHAR 00C7
ENCODING 199
SWIDTH 500 0
DWIDTH 12 0
BBX 9 21 2 -3
BITMAP
1D00
6300
4100
C100
8100
8000
8000
8000
8000
8000
8000
8100
8180
C100
C100
4300
2200
1C00
1C00
0600
3C00
ENDCHAR
STARTCHAR 00C8
ENCODING 200
SWIDTH 500 0
DWIDTH 12 0
BBX 10 20 1 1
BITMAP
7800
0400
0200
FF80
6080
6080
6080
6080
6000
6100
6300
7F00
6300
6100
6000
6000
6040
6040
60C0
FFC0
ENDCHAR
STARTCHAR 00C9
ENCODING 201
SWIDTH 500 0
DWIDTH 12 0
BBX 10 20 1 1
BITMAP
0700
0800
1000
FF80
6080
6080
6080
6080
6000
6100
6300
7F00
6300
6100
6000
6000
6040
6040
60C0
FFC0
ENDCHAR
STARTCHAR 00CA
ENCODING 202
SWIDTH 500 0
DWIDTH 12 0
BBX 10 20 1 1
BITMAP
0C00
1200
2100
FF80
6080
6080
6080
6080
6000
6100
6300
7F00
6300
6100
6000
6000
6040
6040
60C0
FFC0
ENDCHAR
STARTCHAR 00CB
ENCODING 203
SWIDTH 500 0
DWIDTH 12 0
BBX 10 20 1 1
BITMAP
3300
3300
0000
FF80
6080
6080
6080
6080
6000
6100
6300
7F00
6300
6100
6000
6000
6040
6040
60C0
FFC0
ENDCHAR
STARTCHAR 00CC
ENCODING 204
SWIDTH 500 0
DWIDTH 12 0
BBX 6 20 3 1
BITMAP
E0
10
08
FC
30
30
30
30
30
30
30
30
30
30
30
30
30
30
30
FC
ENDCHAR
STARTCHAR 00CD
ENCODING 205
SWIDTH 500 0
DWIDTH 12 0
BBX 6 20 3 1
BITMAP
1C
20
40
FC
30
30
30
30
30
30
30
30
30
30
30
30
30
30
30
FC
ENDCHAR
STARTCHAR 00CE
ENCODING 206
SWIDTH 500 0
DWIDTH 12 0
BBX 6 20 3 1
BITMAP
30
48
84
FC
30
30
30
30
30
30
30
30
30
30
30
30
30
30
30
FC
ENDCHAR
STARTCHAR 00CF
ENCODING 207
SWIDTH 500 0
DWIDTH 12 0
BBX 6 20 3 1
BITMAP
CC
CC
00
FC
30
30
30
30
30
30
30
30
30
30
30
30
30
30
30
FC
ENDCHAR
STARTCHAR 00D0
ENCODING 208
SWIDTH 500 0
DWIDTH 12 0
BBX 10 17 1 1
BITMAP
FC00
6300
6180
6180
6080
60C0
60C0
60C0
F8C0
60C0
60C0
60C0
6080
6180
6180
6300
FC00
ENDCHAR
STARTCHAR 00D1
ENCODING 209
SWIDTH 500 0
DWIDTH 12 0
BBX 10 20 1 1
BITMAP
1900
2600
0000
E1C0
6080
7080
5080
5080
5880
4880
4C80
4480
4680
4680
4280
4380
4180
4180
4080
E080
ENDCHAR
STARTCHAR 00D2
ENCODING 210
SWIDTH 500 0
DWIDTH 12 0
BBX 10 21 1 0
BITMAP
7800
0400
0200
1E00
3100
6100
6080
4080
C080
C0C0
C0C0
C0C0
C0C0
C0C0
C0C0
C080
4080
4180
6180
3300
1E00
ENDCHAR
STARTCHAR 00D3
ENCODING 211
SWIDTH 500 0
DWIDTH 12 0
BBX 10 21 1 0
BITMAP
0700
0800
1000
1E00
3100
6100
6080
4080
C080
C0C0
C0C0
C0C0
C0C0
C0C0
C0C0
C080
4080
4180
6180
3300
1E00
ENDCHAR
STARTCHAR 00D4
ENCODING 212
SWIDTH 500 0
DWIDTH 12 0
BBX 10 21 1 0
BITMAP
0C00
1200
2100
1E00
3100
6100
6080
4080
C080
C0C0
C0C0
C0C0
C0C0
C0C0
C0C0
C080
4080
4180
6180
3300
1E00
ENDCHAR
STARTCHAR 00D5
ENCODING 213
SWIDTH 500 0
DWIDTH 12 0
BBX 10 21 1 0
BITMAP
1900
2600
0000
1E00
3100
6100
6080
4080
C080
C0C0
C0C0
C0C0
C0C0
C0C0
C0C0
C080
4080
4180
6180
3300
1E00
ENDCHAR
STARTCHAR 00D6
ENCODING 214
SWIDTH 500 0
DWIDTH 12 0
BBX 10 21 1 0
BITMAP
3300
3300
0000
1E00
3100
6100
6080
4080
C080
C0C0
C0C0
C0C0
C0C0
C0C0
C0C0
C080
4080
4180
6180
3300
1E00
ENDCHAR
STARTCHAR 00D7
ENCODING 215
SWIDTH 1000 0
DWIDTH 24 0
BBX 14 14 5 2
BITMAP
8004
4008
2010
1020
0840
0480
0300
0300
0480
0840
1020
2010
4008
8004
ENDCHAR
STARTCHAR 00D8
ENCODING 216
SWIDTH 500 0
DWIDTH 12 0
BBX 10 19 1 0
BITMAP
0040
1E80
3380
6180
6180
4280
C2C0
C4C0
C4C0
C8C0
C8C0
D0C0
D0C0
6080
6080
6180
6100
7300
9E00
ENDCHAR
STARTCHAR 00D9
ENCODING 217
SWIDTH 500 0
DWIDTH 12 0
BBX 12 21 0 0
BITMAP
3C00
0200
0100
F8F0
2040
2040
2040
2040
2040
2040
2040
2040
2040
2040
2040
2040
2040
2040
3040
1880
0F00
ENDCHAR
STARTCHAR 00DA
ENCODING 218
SWIDTH 500 0
DWIDTH 12 0
BBX 12 21 0 0
BITMAP
0380
0400
0800
F8F0
2040
2040
2040
2040
2040
2040
2040
2040
2040
2040
2040
2040
2040
2040
3040
1880
0F00
ENDCHAR
STARTCHAR 00DB
ENCODING 219
SWIDTH 500 0
DWIDTH 12 0
BBX 12 21 0 0
BITMAP
0600
0900
1080
F8F0
2040
2040
2040
2040
2040
2040
2040
2040
2040
2040
2040
2040
2040
2040
3040
1880
0F00
ENDCHAR
STARTCHAR 00DC
ENCODING 220
SWIDTH 500 0
DWIDTH 12 0
BBX 12 21 0 0
BITMAP
1880
19C0
0000
F8F0
2040
2040
2040
2040
2040
2040
2040
2040
2040
2040
2040
2040
2040
2040
3040
1880
0F00
ENDCHAR
STARTCHAR 00DD
ENCODING 221
SWIDTH 500 0
DWIDTH 12 0
BBX 12 20 0 1
BITMAP
0380
0400
0800
F8F0
2040
3040
1080
1080
1880
0900
0D00
0600
0600
0600
0600
0600
0600
0600
0600
0F00
ENDCHAR
STARTCHAR 00DE
ENCODING 222
SWIDTH 500 0
DWIDTH 12 0
BBX 10 17 1 1
BITMAP
F800
6000
6000
6000
7E00
6180
60C0
60C0
60C0
60C0
60C0
6180
7E00
6000
6000
6000
F800
ENDCHAR
STARTCHAR 00DF
ENCODING 223
SWIDTH 500 0
DWIDTH 12 0
BBX 9 18 1 0
BITMAP
1E00
3300
2100
6180
6100
6100
6300
6C00
6300
6180
6080
6080
6080
6080
6080
7980
F900
0E00
ENDCHAR
STARTCHAR 00E0
ENCODING 224
SWIDTH 500 0
DWIDTH 12 0
BBX 9 16 2 0
BITMAP
7000
0800
0400
7C00
C600
C200
C200
0200
3E00
6200
C200
8200
8200
8680
CA80
7100
ENDCHAR
STARTCHAR 00E1
ENCODING 225
SWIDTH 500 0
DWIDTH 12 0
BBX 9 16 2 0
BITMAP
0E00
1000
2000
7C00
C600
C200
C200
0200
3E00
6200
C200
8200
8200
8680
CA80
7100
ENDCHAR
STARTCHAR 00E2
ENCODING 226
SWIDTH 500 0
DWIDTH 12 0
BBX 9 16 2 0
BITMAP
1800
2400
4200
7C00
C600
C200
C200
0200
3E00
6200
C200
8200
8200
8680
CA80
7100
ENDCHAR
STARTCHAR 00E3
ENCODING 227
SWIDTH 500 0
DWIDTH 12 0
BBX 9 17 2 0
BITMAP
3200
4C00
0000
0000
7C00
C600
C200
C200
0200
3E00
6200
C200
8200
8200
8680
CA80
7100
ENDCHAR
STARTCHAR 00E4
ENCODING 228
SWIDTH 500 0
DWIDTH 12 0
BBX 9 17 2 0
BITMAP
6600
6600
0000
0000
7C00
C600
C200
C200
0200
3E00
6200
C200
8200
8200
8680
CA80
7100
ENDCHAR
STARTCHAR 00E5
ENCODING 229
SWIDTH 500 0
DWIDTH 12 0
BBX 9 18 2 0
BITMAP
1800
2800
2400
1800
0000
7C00
C600
C200
C200
0200
3E00
6200
C200
8200
8200
8680
CA80
7100
ENDCHAR
STARTCHAR 00E6
ENCODING 230
SWIDTH 500 0
DWIDTH 12 0
BBX 10 13 1 0
BITMAP
3B00
4C80
4C80
6C80
0CC0
1FC0
2C00
4C00
4C80
CC80
CC80
4C80
7300
ENDCHAR
STARTCHAR 00E7
ENCODING 231
SWIDTH 500 0
DWIDTH 12 0
BBX 8 16 2 -3
BITMAP
3C
63
43
C3
C0
80
80
80
C0
C1
41
22
1C
1C
06
3C
ENDCHAR
STARTCHAR 00E8
ENCODING 232
SWIDTH 500 0
DWIDTH 12 0
BBX 8 16 2 0
BITMAP
70
08
04
3C
62
42
C3
81
FF
80
80
80
C1
41
62
3C
ENDCHAR
STARTCHAR 00E9
ENCODING 233
SWIDTH 500 0
DWIDTH 12 0
BBX 8 16 2 0
BITMAP
0E
10
20
3C
62
42
C3
81
FF
80
80
80
C1
41
62
3C
ENDCHAR
STARTCHAR 00EA
ENCODING 234
SWIDTH 500 0
DWIDTH 12 0
BBX 8 16 2 0
BITMAP
18
24
42
3C
62
42
C3
81
FF
80
80
80
C1
41
62
3C
ENDCHAR
STARTCHAR 00EB
ENCODING 235
SWIDTH 500 0
DWIDTH 12 0
BBX 8 17 2 0
BITMAP
66
66
00
00
3C
62
42
C3
81
FF
80
80
80
C1
41
62
3C
ENDCHAR
STARTCHAR 00EC
ENCODING 236
SWIDTH 500 0
DWIDTH 12 0
BBX 5 15 3 1
BITMAP
E0
10
08
30
70
30
30
30
30
30
30
30
30
30
78
ENDCHAR
STARTCHAR 00ED
ENCODING 237
SWIDTH 500 0
DWIDTH 12 0
BBX 5 15 4 1
BITMAP
38
40
80
20
E0
60
60
60
60
60
60
60
60
60
F0
ENDCHAR
STARTCHAR 00EE
ENCODING 238
SWIDTH 500 0
DWIDTH 12 0
BBX 6 15 3 1
BITMAP
30
48
84
10
70
30
30
30
30
30
30
30
30
30
78
ENDCHAR
STARTCHAR 00EF
ENCODING 239
SWIDTH 500 0
DWIDTH 12 0
BBX 6 15 3 1
BITMAP
CC
CC
00
10
70
30
30
30
30
30
30
30
30
30
78
ENDCHAR
STARTCHAR 00F0
ENCODING 240
SWIDTH 500 0
DWIDTH 12 0
BBX 9 19 1 0
BITMAP
2200
1400
1C00
2600
0200
0100
1F00
3380
6180
4180
4080
C080
C080
C080
4080
4180
6100
3300
1E00
ENDCHAR
STARTCHAR 00F1
ENCODING 241
SWIDTH 500 0
DWIDTH 12 0
BBX 10 16 1 1
BITMAP
1900
2600
0000
2000
EE00
7100
6180
6080
6080
6080
6080
6080
6080
6080
6180
F3C0
ENDCHAR
STARTCHAR 00F2
ENCODING 242
SWIDTH 500 0
DWIDTH 12 0
BBX 8 16 2 0
BITMAP
70
08
04
3C
66
C3
81
81
81
81
81
81
81
C3
66
3C
ENDCHAR
STARTCHAR 00F3
ENCODING 243
SWIDTH 500 0
DWIDTH 12 0
BBX 8 16 2 0
BITMAP
0E
10
20
3C
66
C3
81
81
81
81
81
81
81
C3
66
3C
ENDCHAR
STARTCHAR 00F4
ENCODING 244
SWIDTH 500 0
DWIDTH 12 0
BBX 8 16 2 0
BITMAP
18
24
42
3C
66
C3
81
81
81
81
81
81
81
C3
66
3C
ENDCHAR
STARTCHAR 00F5
ENCODING 245
SWIDTH 500 0
DWIDTH 12 0
BBX 8 17 2 0
BITMAP
32
4C
00
00
3C
66
C3
81
81
81
81
81
81
81
C3
66
3C
ENDCHAR
STARTCHAR 00F6
ENCODING 246
SWIDTH 500 0
DWIDTH 12 0
BBX 8 17 2 0
BITMAP
66
66
00
00
3C
66
C3
81
81
81
81
81
81
81
C3
66
3C
ENDCHAR
STARTCHAR 00F7
ENCODING 247
SWIDTH 1000 0
DWIDTH 24 0
BBX 16 13 4 3
BITMAP
0180
0180
0180
0000
0000
0000
FFFF
0000
0000
0000
0180
0180
0180
ENDCHAR
STARTCHAR 00F8
ENCODING 248
SWIDTH 500 0
DWIDTH 12 0
BBX 8 14 2 0
BITMAP
01
3E
62
C7
85
89
89
91
91
A1
E3
43
A6
9C
ENDCHAR
STARTCHAR 00F9
ENCODING 249
SWIDTH 500 0
DWIDTH 12 0
BBX 10 16 1 0
BITMAP
3800
0400
0200
6180
E380
6180
6180
6180
6180
6180
6180
6180
6180
2180
22C0
1D00
ENDCHAR
STARTCHAR 00FA
ENCODING 250
SWIDTH 500 0
DWIDTH 12 0
BBX 10 16 1 0
BITMAP
0700
0800
1000
6180
E380
6180
6180
6180
6180
6180
6180
6180
6180
2180
22C0
1D00
ENDCHAR
STARTCHAR 00FB
ENCODING 251
SWIDTH 500 0
DWIDTH 12 0
BBX 10 16 1 0
BITMAP
0C00
1200
2100
6180
E380
6180
6180
6180
6180
6180
6180
6180
6180
2180
22C0
1D00
ENDCHAR
STARTCHAR 00FC
ENCODING 252
SWIDTH 500 0
DWIDTH 12 0
BBX 10 16 1 0
BITMAP
3300
3300
0000
6180
E380
6180
6180
6180
6180
6180
6180
6180
6180
2180
22C0
1D00
ENDCHAR
STARTCHAR 00FD
ENCODING 253
SWIDTH 500 0
DWIDTH 12 0
BBX 11 19 1 -3
BITMAP
0700
0800
1000
F1E0
6080
2080
2100
3100
1100
1A00
0A00
0A00
0C00
0400
0400
0800
C800
D000
7000
ENDCHAR
STARTCHAR 00FE
ENCODING 254
SWIDTH 500 0
DWIDTH 12 0
BBX 10 21 1 -2
BITMAP
2000
E000
2000
2000
2000
2000
2E00
3100
2180
2080
2080
20C0
20C0
20C0
2080
2080
2180
3100
2E00
2000
F800
ENDCHAR
STARTCHAR 00FF
ENCODING 255
SWIDTH 500 0
DWIDTH 12 0
BBX 11 20 1 -3
BITMAP
3180
3180
0000
0000
F1E0
6080
2080
2100
3100
1100
1A00
0A00
0A00
0C00
0400
0400
0800
C800
D000
7000
ENDCHAR
STARTCHAR 0100
ENCODING 256
SWIDTH 500 0
DWIDTH 12 0
BBX 12 19 0 1
BITMAP
1F80
0000
0400
0600
0600
0600
0A00
0B00
0900
0900
1100
1180
1F80
1080
2080
20C0
20C0
2040
F1F0
ENDCHAR
STARTCHAR 0101
ENCODING 257
SWIDTH 500 0
DWIDTH 12 0
BBX 9 16 2 0
BITMAP
7E00
0000
0000
7C00
C600
C200
C200
0200
3E00
6200
C200
8200
8200
8680
CA80
7100
ENDCHAR
STARTCHAR 0102
ENCODING 258
SWIDTH 500 0
DWIDTH 12 0
BBX 12 20 0 1
BITMAP
1080
0F00
0000
0400
0600
0600
0A00
0A00
0B00
0900
1100
1100
1180
1F80
1080
20C0
20C0
20C0
2040
F1F0
ENDCHAR
STARTCHAR 0103
ENCODING 259
SWIDTH 500 0
DWIDTH 12 0
BBX 9 17 2 0
BITMAP
4200
3C00
0000
0000
7C00
C600
C200
C200
0200
3E00
6200
C200
8200
8200
8680
CA80
7100
ENDCHAR
STARTCHAR 0104
ENCODING 260
SWIDTH 500 0
DWIDTH 12 0
BBX 12 21 0 -3
BITMAP
0400
0600
0600
0600
0A00
0B00
0900
1100
1100
1180
1F80
1080
2080
20C0
20C0
2040
F1F0
0080
0100
0120
01E0
ENDCHAR
STARTCHAR 0105
ENCODING 261
SWIDTH 500 0
DWIDTH 12 0
BBX 9 16 2 -3
BITMAP
7C00
C600
C200
C200
0200
3E00
6200
C200
8200
8200
8680
CA80
7300
0400
0480
0700
ENDCHAR
STARTCHAR 0106
ENCODING 262
SWIDTH 500 0
DWIDTH 12 0
BBX 9 21 2 0
BITMAP
0E00
1000
2000
1D00
2300
4100
C100
8100
8000
8000
8000
8000
8000
8000
8100
8180
C100
C100
4300
6200
1C00
ENDCHAR
STARTCHAR 0107
ENCODING 263
SWIDTH 500 0
DWIDTH 12 0
BBX 8 16 2 0
BITMAP
0E
10
20
3C
63
43
C3
C0
80
80
80
C0
C1
41
62
1C
ENDCHAR
STARTCHAR 0108
ENCODING 264
SWIDTH 500 0
DWIDTH 12 0
BBX 9 21 2 0
BITMAP
1800
2600
4000
1D00
2300
4100
C100
8100
8000
8000
8000
8000
8000
8000
8100
8180
C100
C100
4300
6200
1C00
ENDCHAR
STARTCHAR 0109
ENCODING 265
SWIDTH 500 0
DWIDTH 12 0
BBX 8 16 2 0
BITMAP
1C
22
00
3C
63
43
C3
C0
80
80
80
C0
C1
41
62
1C
ENDCHAR
STARTCHAR 010C
ENCODING 268
SWIDTH 500 0
DWIDTH 12 0
BBX 9 21 2 0
BITMAP
6600
1C00
0000
1D00
6300
4100
C100
C100
8000
8000
8000
8000
8000
8000
8100
8180
C100
C100
4300
6200
1C00
ENDCHAR
STARTCHAR 010D
ENCODING 269
SWIDTH 500 0
DWIDTH 12 0
BBX 8 16 2 0
BITMAP
22
1C
00
3C
63
43
C3
C0
80
80
80
C0
C1
41
62
1C
ENDCHAR
STARTCHAR 010E
ENCODING 270
SWIDTH 500 0
DWIDTH 12 0
BBX 10 20 1 1
BITMAP
6600
1C00
0000
FC00
6300
6180
6180
6080
60C0
60C0
60C0
60C0
60C0
60C0
60C0
6080
6180
6100
6300
FC00
ENDCHAR
STARTCHAR 010F
ENCODING 271
SWIDTH 500 0
DWIDTH 12 0
BBX 11 20 1 0
BITMAP
00C0
02E0
0660
0240
0280
0200
0200
3E00
6200
4200
C200
C200
8200
8200
8200
C200
C200
4200
6780
3800
ENDCHAR
STARTCHAR 0111
ENCODING 273
SWIDTH 500 0
DWIDTH 12 0
BBX 9 18 2 0
BITMAP
0700
0300
0300
0F80
0300
3F00
6300
C300
C300
8300
8300
8300
8300
8300
8300
C300
6780
3800
ENDCHAR
STARTCHAR 0112
ENCODING 274
SWIDTH 500 0
DWIDTH 12 0
BBX 10 19 1 1
BITMAP
3F00
0000
FF80
6080
6080
6080
6080
6000
6100
6300
7F00
6300
6100
6000
6000
6040
6040
60C0
FFC0
ENDCHAR
STARTCHAR 0113
ENCODING 275
SWIDTH 500 0
DWIDTH 12 0
BBX 8 16 2 0
BITMAP
7E
00
00
3C
62
42
C3
81
FF
80
80
80
C1
41
62
3C
ENDCHAR
STARTCHAR 0118
ENCODING 280
SWIDTH 500 0
DWIDTH 12 0
BBX 10 21 1 -3
BITMAP
FF80
6080
6080
6080
6080
6000
6100
6300
7F00
6300
6100
6000
6000
6040
6040
60C0
FFC0
0800
1000
1200
1C00
ENDCHAR
STARTCHAR 0119
ENCODING 281
SWIDTH 500 0
DWIDTH 12 0
BBX 8 16 2 -3
BITMAP
3C
62
C2
C3
81
FF
80
80
C0
C1
62
3E
10
10
22
1C
ENDCHAR
STARTCHAR 011A
ENCODING 282
SWIDTH 500 0
DWIDTH 12 0
BBX 10 20 1 1
BITMAP
3300
0C00
0000
FF80
6080
6080
6080
6080
6000
6100
6300
7F00
6300
6100
6000
6000
6040
6040
60C0
FFC0
ENDCHAR
STARTCHAR 011B
ENCODING 283
SWIDTH 500 0
DWIDTH 12 0
BBX 8 16 2 0
BITMAP
66
18
00
3C
62
42
C3
81
FF
80
80
80
C1
41
62
3C
ENDCHAR
STARTCHAR 011C
ENCODING 284
SWIDTH 500 0
DWIDTH 12 0
BBX 10 21 1 0
BITMAP
0C00
1300
2000
1E80
3180
6080
6080
4080
4000
C000
C000
C000
C3C0
C080
4080
4080
4080
6080
2180
3280
1C00
ENDCHAR
STARTCHAR 011D
ENCODING 285
SWIDTH 500 0
DWIDTH 12 0
BBX 11 19 1 -3
BITMAP
0C00
3200
0100
1FC0
6360
4100
4180
4100
6300
3E00
4000
4000
3C00
4380
80C0
80C0
C0C0
6180
3F00
ENDCHAR
STARTCHAR 0124
ENCODING 292
SWIDTH 500 0
DWIDTH 12 0
BBX 10 20 1 1
BITMAP
0C00
1200
2100
F3C0
4080
4080
4080
4080
4080
4080
4080
7F80
4080
4080
4080
4080
4080
4080
4080
F3C0
ENDCHAR
STARTCHAR 0125
ENCODING 293
SWIDTH 500 0
DWIDTH 12 0
BBX 10 20 1 1
BITMAP
0C00
1300
2000
E000
6000
6000
6000
6000
6E00
7100
6180
6080
6080
6080
6080
6080
6080
6080
6180
F3C0
ENDCHAR
STARTCHAR 0127
ENCODING 295
SWIDTH 500 0
DWIDTH 12 0
BBX 10 17 1 1
BITMAP
E000
6000
6000
F800
6000
6E00
7100
6180
6080
6080
6080
6080
6080
6080
6080
6180
F3C0
ENDCHAR
STARTCHAR 012A
ENCODING 298
SWIDTH 500 0
DWIDTH 12 0
BBX 6 19 3 1
BITMAP
FC
00
FC
30
30
30
30
30
30
30
30
30
30
30
30
30
30
30
FC
ENDCHAR
STARTCHAR 012B
ENCODING 299
SWIDTH 500 0
DWIDTH 12 0
BBX 6 15 3 1
BITMAP
FC
00
00
30
70
30
30
30
30
30
30
30
30
30
78
ENDCHAR
STARTCHAR 0134
ENCODING 308
SWIDTH 500 0
DWIDTH 12 0
BBX 9 21 2 0
BITMAP
0600
0980
1000
0F80
0200
0200
0200
0200
0200
0200
0200
0200
0200
0200
0200
0200
C200
C600
8400
CC00
7800
ENDCHAR
STARTCHAR 0135
ENCODING 309
SWIDTH 500 0
DWIDTH 12 0
BBX 8 19 2 -3
BITMAP
0C
12
21
04
1C
04
04
04
04
04
04
04
04
04
04
C4
CC
C8
78
ENDCHAR
STARTCHAR 0139
ENCODING 313
SWIDTH 500 0
DWIDTH 12 0
BBX 10 20 1 1
BITMAP
0700
1800
0000
F800
2000
2000
2000
2000
2000
2000
2000
2000
2000
2000
2000
2040
2040
20C0
20C0
FFC0
ENDCHAR
STARTCHAR 013A
ENCODING 314
SWIDTH 500 0
DWIDTH 12 0
BBX 5 20 4 1
BITMAP
38
C0
20
E0
60
60
60
60
60
60
60
60
60
60
60
60
60
60
60
F0
ENDCHAR
STARTCHAR 013D
ENCODING 317
SWIDTH 500 0
DWIDTH 12 0
BBX 10 19 1 1
BITMAP
0180
0380
F980
2080
2100
2200
2000
2000
2000
2000
2000
2000
2000
2000
2040
2040
20C0
20C0
FFC0
ENDCHAR
STARTCHAR 013E
ENCODING 318
SWIDTH 500 0
DWIDTH 12 0
BBX 7 19 3 1
BITMAP
06
06
E6
22
24
28
20
20
20
20
20
20
20
20
20
20
20
20
F8
ENDCHAR
STARTCHAR 0141
ENCODING 321
SWIDTH 500 0
DWIDTH 12 0
BBX 10 17 1 1
BITMAP
F800
2000
2000
2000
2000
2800
3000
2000
6000
A000
A000
2000
2040
2040
20C0
20C0
FFC0
ENDCHAR
STARTCHAR 0142
ENCODING 322
SWIDTH 500 0
DWIDTH 12 0
BBX 7 17 2 1
BITMAP
38
18
18
18
18
1A
1C
18
18
38
58
98
18
18
18
18
3C
ENDCHAR
STARTCHAR 0143
ENCODING 323
SWIDTH 500 0
DWIDTH 12 0
BBX 10 20 1 1
BITMAP
0700
0800
1000
E1C0
6080
7080
5080
5080
5880
4880
4C80
4480
4680
4680
4280
4380
4180
4180
4080
E080
ENDCHAR
STARTCHAR 0144
ENCODING 324
SWIDTH 500 0
DWIDTH 12 0
BBX 10 15 1 1
BITMAP
0700
0800
1000
EE00
7100
6180
6080
6080
6080
6080
6080
6080
6080
6180
F3C0
ENDCHAR
STARTCHAR 0147
ENCODING 327
SWIDTH 500 0
DWIDTH 12 0
BBX 10 20 1 1
BITMAP
3300
0C00
0000
E1C0
6080
7080
5080
5080
5880
4880
4C80
4480
4680
4680
4280
4380
4180
4180
4080
E080
ENDCHAR
STARTCHAR 0148
ENCODING 328
SWIDTH 500 0
DWIDTH 12 0
BBX 10 15 1 1
BITMAP
3300
0C00
0000
EE00
7100
6180
6080
6080
6080
6080
6080
6080
6080
6180
F3C0
ENDCHAR
STARTCHAR 014B
ENCODING 331
SWIDTH 500 0
DWIDTH 12 0
BBX 9 17 1 -3
BITMAP
2000
EE00
7100
6180
6080
6080
6080
6080
6080
6080
6080
6080
F080
0080
0980
1D00
0F00
ENDCHAR
STARTCHAR 014C
ENCODING 332
SWIDTH 500 0
DWIDTH 12 0
BBX 10 20 1 0
BITMAP
3F00
0000
1E00
3100
6100
6080
4080
C080
C0C0
C0C0
C0C0
C0C0
C0C0
C0C0
C080
4080
4180
6180
3300
1E00
ENDCHAR
STARTCHAR 014D
ENCODING 333
SWIDTH 500 0
DWIDTH 12 0
BBX 8 16 2 0
BITMAP
7E
00
00
3C
66
C3
81
81
81
81
81
81
81
C3
66
3C
ENDCHAR
STARTCHAR 0150
ENCODING 336
SWIDTH 500 0
DWIDTH 12 0
BBX 10 21 1 0
BITMAP
0FC0
3200
0400
1E00
3300
6100
6180
4080
C080
C0C0
C0C0
C0C0
C0C0
C0C0
C0C0
C080
4080
4180
6180
3300
1E00
ENDCHAR
STARTCHAR 0151
ENCODING 337
SWIDTH 500 0
DWIDTH 12 0
BBX 9 17 2 0
BITMAP
1F80
3200
4400
0800
3C00
6600
C300
8100
8100
8100
8100
8100
8100
8100
C300
6600
3C00
ENDCHAR
STARTCHAR 0152
ENCODING 338
SWIDTH 500 0
DWIDTH 12 0
BBX 10 18 1 0
BITMAP
1FC0
2440
6440
4440
4400
4400
C480
C480
C780
C480
C480
C400
4400
4440
4440
6440
27C0
1800
ENDCHAR
STARTCHAR 0153
ENCODING 339
SWIDTH 500 0
DWIDTH 12 0
BBX 10 13 1 0
BITMAP
3300
4E80
4C80
4CC0
CCC0
C7C0
C400
CC00
CC80
4CC0
4C80
4E80
3300
ENDCHAR
STARTCHAR 0154
ENCODING 340
SWIDTH 500 0
DWIDTH 12 0
BBX 11 20 1 1
BITMAP
0700
0800
1000
FE00
6300
6180
6080
6080
6180
6180
6300
7E00
6400
6600
6600
6200
6300
6100
6180
F0E0
ENDCHAR
STARTCHAR 0155
ENCODING 341
SWIDTH 500 0
DWIDTH 12 0
BBX 9 15 2 1
BITMAP
0E00
1000
2000
E700
2B80
3000
2000
2000
2000
2000
2000
2000
2000
2000
F800
ENDCHAR
STARTCHAR 0158
ENCODING 344
SWIDTH 500 0
DWIDTH 12 0
BBX 11 20 1 1
BITMAP
2200
1C00
0000
FE00
6300
6180
6080
6080
6180
6180
6300
7E00
6400
6600
6600
6200
6300
6100
6180
F0E0
ENDCHAR
STARTCHAR 0159
ENCODING 345
SWIDTH 500 0
DWIDTH 12 0
BBX 9 15 2 1
BITMAP
6600
1800
0000
E700
2B80
3000
2000
2000
2000
2000
2000
2000
2000
2000
F800
ENDCHAR
STARTCHAR 015A
ENCODING 346
SWIDTH 500 0
DWIDTH 12 0
BBX 8 21 2 0
BITMAP
0E
30
00
7D
C7
83
81
80
C0
60
30
1C
06
03
83
81
81
81
C3
A2
1C
ENDCHAR
STARTCHAR 015B
ENCODING 347
SWIDTH 500 0
DWIDTH 12 0
BBX 8 16 2 0
BITMAP
0E
10
20
3E
46
C2
C2
40
30
0C
02
81
81
C3
A7
1C
ENDCHAR
STARTCHAR 015C
ENCODING 348
SWIDTH 500 0
DWIDTH 12 0
BBX 8 21 2 0
BITMAP
18
24
42
3D
43
C1
81
81
C0
40
70
18
0C
02
83
81
81
81
C3
A2
1C
ENDCHAR
STARTCHAR 015D
ENCODING 349
SWIDTH 500 0
DWIDTH 12 0
BBX 8 16 2 0
BITMAP
18
24
42
3E
46
C2
C2
40
30
0C
02
81
81
C3
A7
1C
ENDCHAR
STARTCHAR 015E
ENCODING 350
SWIDTH 500 0
DWIDTH 12 0
BBX 8 21 2 -3
BITMAP
3D
C7
83
81
80
C0
60
18
0E
02
83
81
81
81
C3
BC
18
18
18
08
10
ENDCHAR
STARTCHAR 015F
ENCODING 351
SWIDTH 500 0
DWIDTH 12 0
BBX 8 16 2 -3
BITMAP
7E
C2
C2
40
30
0C
02
81
81
C3
BE
18
1C
18
08
10
ENDCHAR
STARTCHAR 0160
ENCODING 352
SWIDTH 500 0
DWIDTH 12 0
BBX 8 21 2 0
BITMAP
66
18
00
3D
47
C3
81
81
C0
40
30
18
04
02
83
81
81
81
C3
A6
1C
ENDCHAR
STARTCHAR 0161
ENCODING 353
SWIDTH 500 0
DWIDTH 12 0
BBX 8 16 2 0
BITMAP
66
18
00
3E
46
C2
C2
40
30
0C
02
81
81
C3
A7
1C
ENDCHAR
STARTCHAR 0162
ENCODING 354
SWIDTH 500 0
DWIDTH 12 0
BBX 10 21 1 -3
BITMAP
FFC0
CCC0
8C40
8C40
0C00
0C00
0C00
0C00
0C00
0C00
0C00
0C00
0C00
0C00
3F00
0000
0C00
0C00
0C00
0400
0800
ENDCHAR
STARTCHAR 0163
ENCODING 355
SWIDTH 500 0
DWIDTH 12 0
BBX 8 20 2 -3
BITMAP
10
10
30
70
FE
10
10
10
10
10
10
10
11
12
1C
18
18
18
08
10
ENDCHAR
STARTCHAR 0164
ENCODING 356
SWIDTH 500 0
DWIDTH 12 0
BBX 10 20 1 1
BITMAP
3300
0C00
0000
FFC0
CCC0
8C40
8C40
0C00
0C00
0C00
0C00
0C00
0C00
0C00
0C00
0C00
0C00
0C00
0C00
3F00
ENDCHAR
STARTCHAR 0165
ENCODING 357
SWIDTH 500 0
DWIDTH 12 0
BBX 8 20 2 0
BITMAP
03
07
01
12
14
30
70
FE
10
10
10
10
10
10
10
10
11
11
12
1C
ENDCHAR
STARTCHAR 016A
ENCODING 362
SWIDTH 500 0
DWIDTH 12 0
BBX 12 20 0 0
BITMAP
1F80
0000
F8F0
2040
2040
2040
2040
2040
2040
2040
2040
2040
2040
2040
2040
2040
2040
3040
1880
0F00
ENDCHAR
STARTCHAR 016B
ENCODING 363
SWIDTH 500 0
DWIDTH 12 0
BBX 10 16 1 0
BITMAP
3F00
0000
0000
E180
6380
6180
6180
6180
6180
6180
6180
6180
6180
2180
22C0
1D00
ENDCHAR
STARTCHAR 016C
ENCODING 364
SWIDTH 500 0
DWIDTH 12 0
BBX 12 21 0 0
BITMAP
1080
0F00
0000
F8F0
2040
2040
2040
2040
2040
2040
2040
2040
2040
2040
2040
2040
2040
2040
3040
1880
0F00
ENDCHAR
STARTCHAR 016D
ENCODING 365
SWIDTH 500 0
DWIDTH 12 0
BBX 10 17 1 0
BITMAP
2100
1E00
0000
0000
E380
6180
6180
6180
6180
6180
6180
6180
6180
6180
2180
22C0
1C00
ENDCHAR
STARTCHAR 016E
ENCODING 366
SWIDTH 500 0
DWIDTH 12 0
BBX 12 21 0 0
BITMAP
0600
0900
0A00
FCF0
2040
2040
2040
2040
2040
2040
2040
2040
2040
2040
2040
2040
2040
2040
3040
1880
0F00
ENDCHAR
STARTCHAR 016F
ENCODING 367
SWIDTH 500 0
DWIDTH 12 0
BBX 10 17 1 0
BITMAP
0C00
1200
1400
0800
6180
E380
6180
6180
6180
6180
6180
6180
6180
6180
2180
22C0
1D00
ENDCHAR
STARTCHAR 0170
ENCODING 368
SWIDTH 500 0
DWIDTH 12 0
BBX 12 21 0 0
BITMAP
07E0
1900
0200
F8F0
2040
2040
2040
2040
2040
2040
2040
2040
2040
2040
2040
2040
2040
2040
3040
1880
0F00
ENDCHAR
STARTCHAR 0171
ENCODING 369
SWIDTH 500 0
DWIDTH 12 0
BBX 10 17 1 0
BITMAP
0FC0
1900
2200
0400
2080
E380
6180
6180
6180
6180
6180
6180
6180
6180
2180
22C0
1D00
ENDCHAR
STARTCHAR 0179
ENCODING 377
SWIDTH 500 0
DWIDTH 12 0
BBX 9 20 1 1
BITMAP
0700
0800
1000
7F80
6180
4100
4300
0200
0600
0600
0C00
0C00
1800
1800
3000
3080
2080
6080
4180
FF80
ENDCHAR
STARTCHAR 017A
ENCODING 378
SWIDTH 500 0
DWIDTH 12 0
BBX 8 15 2 1
BITMAP
0F
10
20
FF
C3
86
84
0C
18
10
30
61
41
C3
FF
ENDCHAR
STARTCHAR 017B
ENCODING 379
SWIDTH 500 0
DWIDTH 12 0
BBX 9 20 1 1
BITMAP
0C00
0C00
0000
7F80
6180
4100
4300
0200
0600
0600
0C00
0C00
1800
1800
3000
3080
2080
6080
4180
FF80
ENDCHAR
STARTCHAR 017C
ENCODING 380
SWIDTH 500 0
DWIDTH 12 0
BBX 8 16 2 1
BITMAP
18
18
00
00
FF
C3
86
84
0C
18
10
30
61
41
C3
FF
ENDCHAR
STARTCHAR 017D
ENCODING 381
SWIDTH 500 0
DWIDTH 12 0
BBX 9 20 1 1
BITMAP
3300
0C00
0000
7F80
6180
4100
4300
0200
0600
0600
0C00
0C00
1800
1800
3000
3080
2080
6080
4180
FF80
ENDCHAR
STARTCHAR 017E
ENCODING 382
SWIDTH 500 0
DWIDTH 12 0
BBX 8 15 2 1
BITMAP
66
18
00
FF
C3
86
84
0C
18
10
30
61
41
C3
FF
ENDCHAR
STARTCHAR 0193
ENCODING 403
SWIDTH 500 0
DWIDTH 12 0
BBX 11 21 1 0
BITMAP
01C0
0120
0160
1F60
2300
6300
4100
4100
4000
C000
C000
C000
C780
C300
C300
4300
4300
6300
6300
2500
1C00
ENDCHAR
STARTCHAR 01C2
ENCODING 450
SWIDTH 500 0
DWIDTH 12 0
BBX 8 20 2 -2
BITMAP
18
18
18
18
18
FF
18
18
18
18
18
18
18
FF
18
18
18
18
18
18
ENDCHAR
STARTCHAR 01CD
ENCODING 461
SWIDTH 1000 0
DWIDTH 24 0
BBX 19 20 3 1
BITMAP
021000
01E000
00C000
008000
00C000
00C000
016000
016000
023000
023000
041800
041800
080800
0FFC00
080C00
100600
100600
200300
200300
F80FE0
ENDCHAR
STARTCHAR 01CE
ENCODING 462
SWIDTH 1000 0
DWIDTH 24 0
BBX 12 16 7 1
BITMAP
3300
1E00
0000
0000
3E00
4300
E180
4180
0780
3980
6180
C180
C180
C190
C2A0
7CC0
ENDCHAR
STARTCHAR 01D0
ENCODING 464
SWIDTH 1000 0
DWIDTH 24 0
BBX 6 15 9 1
BITMAP
CC
30
00
10
F0
30
30
30
30
30
30
30
30
30
FC
ENDCHAR
STARTCHAR 01D1
ENCODING 465
SWIDTH 1000 0
DWIDTH 24 0
BBX 16 20 4 1
BITMAP
0660
03C0
0000
07E0
1C38
300C
6004
6006
4002
C003
C003
C003
C003
C003
C003
6006
6006
300C
1C38
07E0
ENDCHAR
STARTCHAR 01D2
ENCODING 466
SWIDTH 1000 0
DWIDTH 24 0
BBX 12 16 6 1
BITMAP
1980
0F00
0000
0000
0F00
30C0
6060
4020
C030
C030
C030
C030
6060
6060
30C0
1F80
ENDCHAR
STARTCHAR 01D4
ENCODING 468
SWIDTH 1000 0
DWIDTH 24 0
BBX 14 16 5 1
BITMAP
0840
0780
0300
0000
F0F0
3030
3030
3030
3030
3030
3030
3030
3030
1030
1870
0FBC
ENDCHAR
STARTCHAR 01D6
ENCODING 470
SWIDTH 1000 0
DWIDTH 24 0
BBX 14 17 5 1
BITMAP
1FE0
1860
1870
0000
0000
3030
F0F0
3030
3030
3030
3030
3030
3030
3030
1030
1870
0FBC
ENDCHAR
STARTCHAR 01D8
ENCODING 472
SWIDTH 1000 0
DWIDTH 24 0
BBX 14 17 5 1
BITMAP
01E0
1A60
1C70
0000
0000
3030
F0F0
3030
3030
3030
3030
3030
3030
3030
1030
1870
0FBC
ENDCHAR
STARTCHAR 01DA
ENCODING 474
SWIDTH 1000 0
DWIDTH 24 0
BBX 14 17 5 1
BITMAP
0CC0
1FE0
1870
0000
0000
3030
F0F0
3030
3030
3030
3030
3030
3030
3030
1030
1870
0FBC
ENDCHAR
STARTCHAR 01DC
ENCODING 476
SWIDTH 1000 0
DWIDTH 24 0
BBX 14 17 5 1
BITMAP
1E00
1960
18F0
0000
0000
3030
F0F0
3030
3030
3030
3030
3030
3030
3030
1030
1870
0FBC
ENDCHAR
STARTCHAR 01F8
ENCODING 504
SWIDTH 500 0
DWIDTH 12 0
BBX 10 20 1 1
BITMAP
7800
0400
0200
E1C0
6080
7080
5080
5080
5880
4880
4C80
4480
4680
4680
4280
4380
4180
4180
4080
E080
ENDCHAR
STARTCHAR 01F9
ENCODING 505
SWIDTH 500 0
DWIDTH 12 0
BBX 10 15 1 1
BITMAP
7800
0400
0000
EE00
7100
6180
6080
6080
6080
6080
6080
6080
6080
6180
F3C0
ENDCHAR
STARTCHAR 01FD
ENCODING 509
SWIDTH 500 0
DWIDTH 12 0
BBX 10 16 1 0
BITMAP
0700
0800
1000
3B00
4C80
4C80
6C80
0CC0
1FC0
2C00
4C00
4C80
CC80
CC80
4C80
7300
ENDCHAR
STARTCHAR 0250
ENCODING 592
SWIDTH 500 0
DWIDTH 12 0
BBX 9 13 1 0
BITMAP
EF00
B180
2080
2080
2080
2100
2E00
3000
2180
2180
2180
1100
0E00
ENDCHAR
STARTCHAR 0251
ENCODING 593
SWIDTH 500 0
DWIDTH 12 0
BBX 9 13 2 0
BITMAP
3E00
6600
C200
8200
8200
8200
8200
8200
8200
8200
C680
4680
3900
ENDCHAR
STARTCHAR 0252
ENCODING 594
SWIDTH 500 0
DWIDTH 12 0
BBX 10 13 1 0
BITMAP
EE00
B100
2180
2080
2080
2080
20C0
2080
2080
2080
2100
3300
0E00
ENDCHAR
STARTCHAR 0253
ENCODING 595
SWIDTH 500 0
DWIDTH 12 0
BBX 8 18 2 0
BITMAP
3C
62
43
C3
C0
DC
E6
C3
C3
C1
C1
C1
C1
C1
C3
C3
A6
1C
ENDCHAR
STARTCHAR 0254
ENCODING 596
SWIDTH 500 0
DWIDTH 12 0
BBX 8 13 2 0
BITMAP
78
C6
82
03
03
01
01
01
C3
C2
C2
44
38
ENDCHAR
STARTCHAR 0255
ENCODING 597
SWIDTH 500 0
DWIDTH 12 0
BBX 9 13 2 0
BITMAP
3C00
6300
4300
C300
C000
8000
8000
8700
C900
5180
6100
7300
9C00
ENDCHAR
STARTCHAR 0256
ENCODING 598
SWIDTH 500 0
DWIDTH 12 0
BBX 11 22 1 -3
BITMAP
0200
0600
0200
0200
0200
0200
3E00
6200
4200
C200
C200
C200
C200
C200
C200
C200
4200
6600
3A60
0360
0120
01C0
ENDCHAR
STARTCHAR 0257
ENCODING 599
SWIDTH 500 0
DWIDTH 12 0
BBX 11 18 1 0
BITMAP
01C0
0360
0360
0200
0200
3E00
6200
4200
C200
C200
C200
C200
C200
C200
C200
4200
6780
3800
ENDCHAR
STARTCHAR 0258
ENCODING 600
SWIDTH 500 0
DWIDTH 12 0
BBX 8 13 2 0
BITMAP
3C
66
C3
C3
81
FF
01
01
01
83
82
46
3C
ENDCHAR
STARTCHAR 0259
ENCODING 601
SWIDTH 500 0
DWIDTH 12 0
BBX 8 13 2 0
BITMAP
3C
46
83
03
01
01
FF
81
81
C3
42
66
3C
ENDCHAR
STARTCHAR 025A
ENCODING 602
SWIDTH 500 0
DWIDTH 12 0
BBX 11 13 1 0
BITMAP
3800
4C00
8400
8700
0720
0AA0
32C0
4200
C200
4200
6600
2400
3800
ENDCHAR
STARTCHAR 025C
ENCODING 604
SWIDTH 500 0
DWIDTH 12 0
BBX 8 13 2 0
BITMAP
7C
C2
83
02
06
38
06
03
81
81
83
C6
3C
ENDCHAR
STARTCHAR 025E
ENCODING 606
SWIDTH 500 0
DWIDTH 12 0
BBX 9 13 2 0
BITMAP
3C00
4300
8100
8080
8080
8100
9E00
8100
8080
8080
8100
4300
3E00
ENDCHAR
STARTCHAR 025F
ENCODING 607
SWIDTH 500 0
DWIDTH 12 0
BBX 9 16 1 -3
BITMAP
1F00
0400
0400
0400
0400
0400
0400
0400
3F80
0400
0400
0400
0400
C400
CC00
7800
ENDCHAR
STARTCHAR 0260
ENCODING 608
SWIDTH 500 0
DWIDTH 12 0
BBX 11 21 1 -3
BITMAP
01C0
0360
0360
0200
0200
3E00
6200
4200
C200
C200
C200
C200
C200
6600
3A00
0200
6200
E200
4200
6600
3C00
ENDCHAR
STARTCHAR 0261
ENCODING 609
SWIDTH 500 0
DWIDTH 12 0
BBX 8 16 2 -3
BITMAP
3D
63
C3
83
83
83
83
C3
47
3B
03
C3
C2
C2
46
3C
ENDCHAR
STARTCHAR 0264
ENCODING 612
SWIDTH 500 0
DWIDTH 12 0
BBX 10 13 1 0
BITMAP
40C0
A140
9240
1A00
0C00
0C00
0C00
0C00
1600
1600
1200
1600
0C00
ENDCHAR
STARTCHAR 0265
ENCODING 613
SWIDTH 500 0
DWIDTH 12 0
BBX 10 15 1 -2
BITMAP
F3C0
6180
4180
4180
4180
4180
4180
4180
4180
6180
6180
2380
1D80
0180
01C0
ENDCHAR
STARTCHAR 0266
ENCODING 614
SWIDTH 500 0
DWIDTH 12 0
BBX 10 17 1 1
BITMAP
1F00
3180
6180
6000
6000
6E00
7100
6180
6080
6080
6080
6080
6080
6080
6080
6180
F3C0
ENDCHAR
STARTCHAR 0267
ENCODING 615
SWIDTH 500 0
DWIDTH 12 0
BBX 9 21 1 -3
BITMAP
1F00
3180
6180
6000
6000
6E00
7100
6180
6080
6080
6080
6080
6080
6080
6080
6080
F080
0080
0980
1D00
0F00
ENDCHAR
STARTCHAR 0268
ENCODING 616
SWIDTH 500 0
DWIDTH 12 0
BBX 6 17 3 1
BITMAP
30
30
00
00
00
30
70
30
30
30
FC
30
30
30
30
30
78
ENDCHAR
STARTCHAR 026C
ENCODING 620
SWIDTH 500 0
DWIDTH 12 0
BBX 7 18 2 1
BITMAP
18
38
18
18
18
18
F8
98
98
58
3E
18
18
18
18
18
18
3C
ENDCHAR
STARTCHAR 026D
ENCODING 621
SWIDTH 500 0
DWIDTH 12 0
BBX 8 21 3 -3
BITMAP
E0
20
20
20
20
20
20
20
20
20
20
20
20
20
20
20
20
22
27
32
1E
ENDCHAR
STARTCHAR 026E
ENCODING 622
SWIDTH 500 0
DWIDTH 12 0
BBX 10 22 1 -3
BITMAP
6000
E000
6000
6000
6000
6000
7FC0
6180
6100
6200
6400
6F00
7180
6080
60C0
60C0
60C0
F0C0
00C0
3080
3180
1E00
ENDCHAR
STARTCHAR 026F
ENCODING 623
SWIDTH 500 0
DWIDTH 12 0
BBX 12 13 0 0
BITMAP
FFF0
6660
6660
6660
6660
6660
6660
6660
6660
6660
6660
2AF0
3300
ENDCHAR
STARTCHAR 0270
ENCODING 624
SWIDTH 500 0
DWIDTH 12 0
BBX 12 15 0 -2
BITMAP
FFF0
6660
6660
6660
6660
6660
6660
6660
6660
6660
6660
2AE0
3360
0060
0070
ENDCHAR
STARTCHAR 0271
ENCODING 625
SWIDTH 500 0
DWIDTH 12 0
BBX 11 17 0 -3
BITMAP
2000
FDC0
6660
6660
6660
6660
6660
6660
6660
6660
6660
6660
FF60
0060
0360
0140
01C0
ENDCHAR
STARTCHAR 0272
ENCODING 626
SWIDTH 500 0
DWIDTH 12 0
BBX 11 17 0 -3
BITMAP
0800
3B80
0CC0
0840
0840
0840
0840
0840
0840
0840
0840
0840
08E0
C800
D800
D000
7000
ENDCHAR
STARTCHAR 0273
ENCODING 627
SWIDTH 500 0
DWIDTH 12 0
BBX 11 17 1 -3
BITMAP
4000
DC00
6200
4200
4200
4200
4200
4200
4200
4200
4200
4200
E200
0260
0360
0160
01C0
ENDCHAR
STARTCHAR 0275
ENCODING 629
SWIDTH 500 0
DWIDTH 12 0
BBX 8 13 2 0
BITMAP
3C
66
C3
81
81
81
FF
81
81
81
C3
66
3C
ENDCHAR
STARTCHAR 0279
ENCODING 633
SWIDTH 500 0
DWIDTH 12 0
BBX 9 13 1 0
BITMAP
0F80
0200
0200
0200
0200
0200
0200
0200
0200
0600
6A00
CB80
7000
ENDCHAR
STARTCHAR 027A
ENCODING 634
SWIDTH 500 0
DWIDTH 12 0
BBX 9 18 1 0
BITMAP
0F80
0200
0200
0200
0200
0200
0200
0200
0200
0200
0200
0200
0200
0200
0600
6A00
CB80
7000
ENDCHAR
STARTCHAR 027B
ENCODING 635
SWIDTH 500 0
DWIDTH 12 0
BBX 10 16 1 -3
BITMAP
0F00
0600
0600
0600
0600
0600
0600
0600
0600
0600
CE00
D600
E6C0
06C0
0240
0380
ENDCHAR
STARTCHAR 027D
ENCODING 637
SWIDTH 500 0
DWIDTH 12 0
BBX 9 17 2 -3
BITMAP
2000
E700
2B80
3000
2000
2000
2000
2000
2000
2000
2000
2000
2000
2600
2300
3200
1C00
ENDCHAR
STARTCHAR 027E
ENCODING 638
SWIDTH 500 0
DWIDTH 12 0
BBX 8 12 3 1
BITMAP
1E
33
23
60
60
60
60
60
60
60
60
F0
ENDCHAR
STARTCHAR 0281
ENCODING 641
SWIDTH 500 0
DWIDTH 12 0
BBX 10 12 1 1
BITMAP
F0C0
6180
2100
2300
2200
2400
3E00
2180
2080
2080
6180
FF00
ENDCHAR
STARTCHAR 0282
ENCODING 642
SWIDTH 500 0
DWIDTH 12 0
BBX 8 16 2 -3
BITMAP
3E
46
C2
C2
40
30
0C
02
81
81
C3
E7
9C
B0
90
70
ENDCHAR
STARTCHAR 0283
ENCODING 643
SWIDTH 500 0
DWIDTH 12 0
BBX 10 21 1 -3
BITMAP
0380
04C0
0CC0
0C00
0C00
0C00
0C00
0C00
0C00
0C00
0C00
0C00
0C00
0C00
0C00
0C00
0C00
0C00
C800
C800
7000
ENDCHAR
STARTCHAR 0284
ENCODING 644
SWIDTH 500 0
DWIDTH 12 0
BBX 10 21 1 -3
BITMAP
0380
04C0
0CC0
0C00
0C00
0C00
0C00
0C00
0C00
0C00
0C00
0C00
0C00
3F00
0C00
0C00
0C00
0C00
C800
C800
7000
ENDCHAR
STARTCHAR 0288
ENCODING 648
SWIDTH 500 0
DWIDTH 12 0
BBX 8 20 2 -3
BITMAP
10
10
30
70
FE
10
10
10
10
10
10
10
10
10
10
10
13
13
13
0E
ENDCHAR
STARTCHAR 0289
ENCODING 649
SWIDTH 500 0
DWIDTH 12 0
BBX 10 13 1 0
BITMAP
6180
E380
6180
6180
6180
FFC0
6180
6180
6180
6180
6180
22C0
1D00
ENDCHAR
STARTCHAR 028A
ENCODING 650
SWIDTH 500 0
DWIDTH 12 0
BBX 9 13 2 0
BITMAP
E700
4200
8200
8100
8100
8100
8100
8180
8100
8100
C300
6600
3C00
ENDCHAR
STARTCHAR 028B
ENCODING 651
SWIDTH 500 0
DWIDTH 12 0
BBX 9 14 1 0
BITMAP
2000
E300
6300
6180
6080
6080
6080
6080
6080
6080
6100
2100
2200
1C00
ENDCHAR
STARTCHAR 028C
ENCODING 652
SWIDTH 500 0
DWIDTH 12 0
BBX 10 12 1 1
BITMAP
0800
0C00
0C00
1400
1600
1200
2200
2300
2100
4180
4180
F3C0
ENDCHAR
STARTCHAR 028D
ENCODING 653
SWIDTH 500 0
DWIDTH 12 0
BBX 12 12 0 1
BITMAP
1080
1080
1980
1980
2980
2AC0
2A40
2E40
4640
4460
4460
EEF0
ENDCHAR
STARTCHAR 028E
ENCODING 654
SWIDTH 500 0
DWIDTH 12 0
BBX 12 17 0 1
BITMAP
00E0
01B0
0130
0200
0200
0400
0400
0400
0E00
0A00
0B00
1100
1180
1080
2080
20C0
F1E0
ENDCHAR
STARTCHAR 0290
ENCODING 656
SWIDTH 500 0
DWIDTH 12 0
BBX 11 16 1 -3
BITMAP
FE00
C600
8400
8C00
0800
1800
1000
2000
6100
4100
C300
FF00
0100
0160
0120
00C0
ENDCHAR
STARTCHAR 0291
ENCODING 657
SWIDTH 500 0
DWIDTH 12 0
BBX 9 13 2 0
BITMAP
FF00
C300
8600
8400
0C00
1800
1000
3000
6380
4480
C880
FF00
2000
ENDCHAR
STARTCHAR 0292
ENCODING 658
SWIDTH 500 0
DWIDTH 12 0
BBX 8 16 2 -3
BITMAP
FF
84
88
90
20
7C
86
02
03
03
03
C3
C3
82
44
38
ENDCHAR
STARTCHAR 0294
ENCODING 660
SWIDTH 500 0
DWIDTH 12 0
BBX 7 17 3 1
BITMAP
78
8C
C4
C6
06
06
06
04
0C
18
20
20
20
20
20
20
F8
ENDCHAR
STARTCHAR 0295
ENCODING 661
SWIDTH 500 0
DWIDTH 12 0
BBX 7 17 2 1
BITMAP
3C
62
46
C6
C0
C0
C0
40
60
30
08
08
08
08
08
08
3E
ENDCHAR
STARTCHAR 0298
ENCODING 664
SWIDTH 500 0
DWIDTH 12 0
BBX 10 13 1 0
BITMAP
1E00
2100
4080
4080
8C40
8C40
8C40
8C40
8040
4080
4180
2300
1E00
ENDCHAR
STARTCHAR 029D
ENCODING 669
SWIDTH 500 0
DWIDTH 12 0
BBX 8 21 1 -3
BITMAP
0C
0C
00
00
00
0C
1C
04
04
04
04
04
04
04
04
04
0C
7C
8E
89
71
ENDCHAR
STARTCHAR 02A1
ENCODING 673
SWIDTH 500 0
DWIDTH 12 0
BBX 7 17 3 1
BITMAP
78
8C
C4
C6
06
06
06
04
0C
18
20
20
FC
20
20
20
F8
ENDCHAR
STARTCHAR 02A2
ENCODING 674
SWIDTH 500 0
DWIDTH 12 0
BBX 7 17 2 1
BITMAP
3C
62
46
C6
C0
C0
C0
40
60
30
08
08
7E
08
08
08
3E
ENDCHAR
STARTCHAR 02C7
ENCODING 711
SWIDTH 500 0
DWIDTH 12 0
BBX 8 3 2 15
BITMAP
C3
66
3C
ENDCHAR
STARTCHAR 02C8
ENCODING 712
SWIDTH 500 0
DWIDTH 12 0
BBX 1 3 5 18
BITMAP
80
80
80
ENDCHAR
STARTCHAR 02CC
ENCODING 716
SWIDTH 500 0
DWIDTH 12 0
BBX 1 4 5 -2
BITMAP
80
80
80
80
ENDCHAR
STARTCHAR 02D0
ENCODING 720
SWIDTH 500 0
DWIDTH 12 0
BBX 4 12 4 1
BITMAP
F0
60
40
40
00
00
00
00
40
40
60
F0
ENDCHAR
STARTCHAR 02D1
ENCODING 721
SWIDTH 500 0
DWIDTH 12 0
BBX 4 3 4 10
BITMAP
F0
60
40
ENDCHAR
STARTCHAR 02D8
ENCODING 728
SWIDTH 500 0
DWIDTH 12 0
BBX 8 3 2 15
BITMAP
81
42
3C
ENDCHAR
STARTCHAR 02D9
ENCODING 729
SWIDTH 500 0
DWIDTH 12 0
BBX 2 3 5 15
BITMAP
C0
C0
C0
ENDCHAR
STARTCHAR 02DB
ENCODING 731
SWIDTH 500 0
DWIDTH 12 0
BBX 6 5 3 -1
BITMAP
30
40
C0
C8
7C
ENDCHAR
STARTCHAR 02DC
ENCODING 732
SWIDTH 500 0
DWIDTH 12 0
BBX 8 3 2 15
BITMAP
71
99
0E
ENDCHAR
STARTCHAR 02DD
ENCODING 733
SWIDTH 500 0
DWIDTH 12 0
BBX 10 3 1 15
BITMAP
3FC0
6600
8800
ENDCHAR
STARTCHAR 02DE
ENCODING 734
SWIDTH 500 0
DWIDTH 12 0
BBX 8 4 2 6
BITMAP
60
91
12
0E
ENDCHAR
STARTCHAR 02E5
ENCODING 741
SWIDTH 500 0
DWIDTH 12 0
BBX 7 24 2 -3
BITMAP
FE
02
02
02
02
02
02
02
02
02
02
02
02
02
02
02
02
02
02
02
02
02
02
02
ENDCHAR
STARTCHAR 02E6
ENCODING 742
SWIDTH 500 0
DWIDTH 12 0
BBX 7 24 2 -3
BITMAP
02
02
02
02
02
FE
02
02
02
02
02
02
02
02
02
02
02
02
02
02
02
02
02
02
ENDCHAR
STARTCHAR 02E7
ENCODING 743
SWIDTH 500 0
DWIDTH 12 0
BBX 7 24 2 -3
BITMAP
02
02
02
02
02
02
02
02
02
02
02
FE
02
02
02
02
02
02
02
02
02
02
02
02
ENDCHAR
STARTCHAR 02E8
ENCODING 744
SWIDTH 500 0
DWIDTH 12 0
BBX 7 24 2 -3
BITMAP
02
02
02
02
02
02
02
02
02
02
02
02
02
02
02
02
02
FE
02
02
02
02
02
02
ENDCHAR
STARTCHAR 02E9
ENCODING 745
SWIDTH 500 0
DWIDTH 12 0
BBX 7 24 2 -3
BITMAP
02
02
02
02
02
02
02
02
02
02
02
02
02
02
02
02
02
02
02
02
02
02
02
FE
ENDCHAR
STARTCHAR 0300
ENCODING 768
SWIDTH 500 0
DWIDTH 12 0
BBX 5 2 3 19
BITMAP
E0
18
ENDCHAR
STARTCHAR 0301
ENCODING 769
SWIDTH 500 0
DWIDTH 12 0
BBX 5 2 4 19
BITMAP
38
C0
ENDCHAR
STARTCHAR 0302
ENCODING 770
SWIDTH 500 0
DWIDTH 12 0
BBX 6 2 3 19
BITMAP
30
CC
ENDCHAR
STARTCHAR 0303
ENCODING 771
SWIDTH 500 0
DWIDTH 12 0
BBX 6 2 3 19
BITMAP
64
98
ENDCHAR
STARTCHAR 0304
ENCODING 772
SWIDTH 500 0
DWIDTH 12 0
BBX 6 1 3 19
BITMAP
FC
ENDCHAR
STARTCHAR 0306
ENCODING 774
SWIDTH 500 0
DWIDTH 12 0
BBX 6 2 3 19
BITMAP
84
78
ENDCHAR
STARTCHAR 0308
ENCODING 776
SWIDTH 500 0
DWIDTH 12 0
BBX 6 2 3 19
BITMAP
CC
CC
ENDCHAR
STARTCHAR 030B
ENCODING 779
SWIDTH 500 0
DWIDTH 12 0
BBX 8 2 3 19
BITMAP
3F
D8
ENDCHAR
STARTCHAR 030C
ENCODING 780
SWIDTH 500 0
DWIDTH 12 0
BBX 6 2 3 19
BITMAP
CC
30
ENDCHAR
STARTCHAR 030F
ENCODING 783
SWIDTH 500 0
DWIDTH 12 0
BBX 8 2 1 19
BITMAP
FC
1B
ENDCHAR
STARTCHAR 0318
ENCODING 792
SWIDTH 500 0
DWIDTH 12 0
BBX 3 3 4 -3
BITMAP
20
E0
20
ENDCHAR
STARTCHAR 0319
ENCODING 793
SWIDTH 500 0
DWIDTH 12 0
BBX 3 3 5 -3
BITMAP
80
E0
80
ENDCHAR
STARTCHAR 031A
ENCODING 794
SWIDTH 500 0
DWIDTH 12 0
BBX 4 3 7 18
BITMAP
F0
10
10
ENDCHAR
STARTCHAR 031C
ENCODING 796
SWIDTH 500 0
DWIDTH 12 0
BBX 2 4 5 -3
BITMAP
40
80
80
40
ENDCHAR
STARTCHAR 031D
ENCODING 797
SWIDTH 500 0
DWIDTH 12 0
BBX 4 2 4 -2
BITMAP
40
F0
ENDCHAR
STARTCHAR 031E
ENCODING 798
SWIDTH 500 0
DWIDTH 12 0
BBX 4 2 4 -2
BITMAP
F0
40
ENDCHAR
STARTCHAR 031F
ENCODING 799
SWIDTH 500 0
DWIDTH 12 0
BBX 4 3 4 -3
BITMAP
F0
40
40
ENDCHAR
STARTCHAR 0320
ENCODING 800
SWIDTH 500 0
DWIDTH 12 0
BBX 4 1 4 -2
BITMAP
F0
ENDCHAR
STARTCHAR 0324
ENCODING 804
SWIDTH 500 0
DWIDTH 12 0
BBX 6 2 3 -2
BITMAP
CC
CC
ENDCHAR
STARTCHAR 0325
ENCODING 805
SWIDTH 500 0
DWIDTH 12 0
BBX 4 3 4 -3
BITMAP
E0
90
60
ENDCHAR
STARTCHAR 0329
ENCODING 809
SWIDTH 500 0
DWIDTH 12 0
BBX 1 3 5 -3
BITMAP
80
80
80
ENDCHAR
STARTCHAR 032A
ENCODING 810
SWIDTH 500 0
DWIDTH 12 0
BBX 6 2 3 -2
BITMAP
FC
84
ENDCHAR
STARTCHAR 032C
ENCODING 812
SWIDTH 500 0
DWIDTH 12 0
BBX 6 2 3 -2
BITMAP
CC
30
ENDCHAR
STARTCHAR 032F
ENCODING 815
SWIDTH 500 0
DWIDTH 12 0
BBX 6 2 3 -2
BITMAP
78
84
ENDCHAR
STARTCHAR 0330
ENCODING 816
SWIDTH 500 0
DWIDTH 12 0
BBX 6 2 3 -2
BITMAP
64
98
ENDCHAR
STARTCHAR 0334
ENCODING 820
SWIDTH 500 0
DWIDTH 12 0
BBX 6 1 3 9
BITMAP
FC
ENDCHAR
STARTCHAR 0339
ENCODING 825
SWIDTH 500 0
DWIDTH 12 0
BBX 2 4 5 -3
BITMAP
80
40
40
80
ENDCHAR
STARTCHAR 033A
ENCODING 826
SWIDTH 500 0
DWIDTH 12 0
BBX 6 2 3 -2
BITMAP
84
FC
ENDCHAR
STARTCHAR 033B
ENCODING 827
SWIDTH 500 0
DWIDTH 12 0
BBX 4 2 4 -2
BITMAP
F0
F0
ENDCHAR
STARTCHAR 033C
ENCODING 828
SWIDTH 500 0
DWIDTH 12 0
BBX 8 2 2 -2
BITMAP
7E
99
ENDCHAR
STARTCHAR 033D
ENCODING 829
SWIDTH 500 0
DWIDTH 12 0
BBX 7 2 3 19
BITMAP
FC
CE
ENDCHAR
STARTCHAR 0361
ENCODING 865
SWIDTH 500 0
DWIDTH 12 0
BBX 10 3 1 18
BITMAP
3E00
6180
8040
ENDCHAR
STARTCHAR 0391
ENCODING 913
SWIDTH 1000 0
DWIDTH 24 0
BBX 19 17 3 1
BITMAP
00C000
00C000
014000
016000
012000
023000
023000
041800
041800
080800
0FFC00
080C00
100600
100600
200300
200300
F80FE0
ENDCHAR
STARTCHAR 0392
ENCODING 914
SWIDTH 1000 0
DWIDTH 24 0
BBX 14 17 5 1
BITMAP
FFC0
3030
2018
2018
2018
2018
2030
2060
3FC0
2038
200C
200C
200C
200C
200C
3038
FFE0
ENDCHAR
STARTCHAR 0393
ENCODING 915
SWIDTH 1000 0
DWIDTH 24 0
BBX 14 17 5 1
BITMAP
FFFC
301C
300C
3004
3004
3000
3000
3000
3000
3000
3000
3000
3000
3000
3000
3000
FC00
ENDCHAR
STARTCHAR 0394
ENCODING 916
SWIDTH 1000 0
DWIDTH 24 0
BBX 16 17 4 1
BITMAP
0100
0180
0180
02C0
02C0
0460
0460
0830
0830
1818
1018
300C
200C
200C
4006
4006
FFFF
ENDCHAR
STARTCHAR 0395
ENCODING 917
SWIDTH 1000 0
DWIDTH 24 0
BBX 15 17 4 1
BITMAP
FFFC
380C
1004
1004
1004
1020
1020
1020
1FE0
1020
1020
1000
1002
1002
1002
380E
FFFE
ENDCHAR
STARTCHAR 0396
ENCODING 918
SWIDTH 1000 0
DWIDTH 24 0
BBX 14 17 5 1
BITMAP
7FF8
6018
4030
4030
4060
00C0
0180
0180
0300
0600
0C00
1804
1804
3004
600C
C01C
FFFC
ENDCHAR
STARTCHAR 0397
ENCODING 919
SWIDTH 1000 0
DWIDTH 24 0
BBX 18 17 3 1
BITMAP
FE1FC0
100200
100200
100200
100200
100200
100200
100200
1FFE00
100200
100200
100200
100200
100200
100200
100200
FE1FC0
ENDCHAR
STARTCHAR 0398
ENCODING 920
SWIDTH 1000 0
DWIDTH 24 0
BBX 16 17 4 1
BITMAP
07E0
1C38
300C
6006
6006
4002
D013
D013
CFF3
D013
D013
C003
6006
6006
300C
1C38
07E0
ENDCHAR
STARTCHAR 0399
ENCODING 921
SWIDTH 1000 0
DWIDTH 24 0
BBX 6 17 9 1
BITMAP
FC
30
30
30
30
30
30
30
30
30
30
30
30
30
30
30
FC
ENDCHAR
STARTCHAR 039A
ENCODING 922
SWIDTH 1000 0
DWIDTH 24 0
BBX 17 17 4 1
BITMAP
FC7E00
301800
303000
306000
30C000
308000
310000
330000
358000
38C000
306000
307000
303000
301800
300C00
300600
FC1F80
ENDCHAR
STARTCHAR 039B
ENCODING 923
SWIDTH 1000 0
DWIDTH 24 0
BBX 18 17 3 1
BITMAP
00C000
00C000
00C000
016000
016000
023000
023000
021000
041800
041800
080C00
080C00
180400
100600
100600
300300
FC1FC0
ENDCHAR
STARTCHAR 039C
ENCODING 924
SWIDTH 1000 0
DWIDTH 24 0
BBX 20 17 2 1
BITMAP
F000F0
3801C0
2801C0
2C02C0
2C02C0
2402C0
2604C0
2204C0
2308C0
2308C0
2188C0
2190C0
2090C0
20E0C0
20E0C0
2060C0
F843F0
ENDCHAR
STARTCHAR 039D
ENCODING 925
SWIDTH 1000 0
DWIDTH 24 0
BBX 18 17 3 1
BITMAP
F807C0
380100
2C0100
260100
270100
230100
218100
20C100
20E100
206100
203100
201900
201D00
200D00
200700
200300
F80300
ENDCHAR
STARTCHAR 039E
ENCODING 926
SWIDTH 1000 0
DWIDTH 24 0
BBX 14 17 5 1
BITMAP
7FF8
4008
4008
8008
0000
0000
2020
1020
1FE0
1020
2020
0000
0000
8004
8004
8004
FFFC
ENDCHAR
STARTCHAR 039F
ENCODING 927
SWIDTH 1000 0
DWIDTH 24 0
BBX 16 17 4 1
BITMAP
07E0
1C38
300C
6006
6006
4002
C003
C003
C003
C003
C003
C003
6006
6006
300C
1C18
07E0
ENDCHAR
STARTCHAR 03A0
ENCODING 928
SWIDTH 1000 0
DWIDTH 24 0
BBX 18 17 3 1
BITMAP
FFFFC0
380700
100200
100200
100200
100200
100200
100200
100200
100200
100200
100200
100200
100200
100200
100200
FE1FC0
ENDCHAR
STARTCHAR 03A1
ENCODING 929
SWIDTH 1000 0
DWIDTH 24 0
BBX 14 17 5 1
BITMAP
FFE0
3038
300C
300C
300C
300C
300C
3038
3FE0
3000
3000
3000
3000
3000
3000
3000
FC00
ENDCHAR
STARTCHAR 03A3
ENCODING 931
SWIDTH 1000 0
DWIDTH 24 0
BBX 15 17 4 1
BITMAP
7FFE
6006
3002
1802
0C00
0600
0300
0180
00C0
0180
0300
0600
0C02
1802
3002
6006
FFFE
ENDCHAR
STARTCHAR 03A4
ENCODING 932
SWIDTH 1000 0
DWIDTH 24 0
BBX 16 17 4 1
BITMAP
FFFF
C183
8181
8181
8181
0180
0180
0180
0180
0180
0180
0180
0180
0180
0180
0180
07E0
ENDCHAR
STARTCHAR 03A5
ENCODING 933
SWIDTH 1000 0
DWIDTH 24 0
BBX 16 17 4 1
BITMAP
1C3C
6246
4182
8181
8181
0180
0180
0180
0180
0180
0180
0180
0180
0180
0180
0180
07E0
ENDCHAR
STARTCHAR 03A6
ENCODING 934
SWIDTH 1000 0
DWIDTH 24 0
BBX 16 17 4 1
BITMAP
07E0
0180
0180
0FF0
318C
6186
C182
C183
C183
C183
C183
6186
318C
0DB0
03C0
0180
07E0
ENDCHAR
STARTCHAR 03A7
ENCODING 935
SWIDTH 1000 0
DWIDTH 24 0
BBX 18 17 3 1
BITMAP
FE1F80
180600
0C0C00
0E0800
061000
032000
01A000
00C000
00C000
016000
033000
021800
041800
080C00
100600
300700
FC1FC0
ENDCHAR
STARTCHAR 03A8
ENCODING 936
SWIDTH 1000 0
DWIDTH 24 0
BBX 18 17 3 1
BITMAP
63F180
B0C340
90C240
10C200
10C200
10C200
10C200
10C200
18C600
18C600
08C400
04D800
03E000
00C000
00C000
00C000
03F000
ENDCHAR
STARTCHAR 03A9
ENCODING 937
SWIDTH 1000 0
DWIDTH 24 0
BBX 16 17 4 1
BITMAP
07E0
1C30
300C
300C
6006
6006
6006
6006
6006
6006
6006
6004
300C
1818
8421
8441
FC3F
ENDCHAR
STARTCHAR 03B1
ENCODING 945
SWIDTH 1000 0
DWIDTH 24 0
BBX 14 12 5 1
BITMAP
0798
0C90
18D0
30E0
20E0
60C0
40C0
C0C0
C1C0
C3C4
6648
3870
ENDCHAR
STARTCHAR 03B2
ENCODING 946
SWIDTH 1000 0
DWIDTH 24 0
BBX 12 20 5 -2
BITMAP
03C0
0660
0430
0830
0830
1030
1020
1740
2780
2040
2060
2060
6060
6060
40C0
6180
5F00
C000
C000
C000
ENDCHAR
STARTCHAR 03B3
ENCODING 947
SWIDTH 1000 0
DWIDTH 24 0
BBX 13 15 5 -2
BITMAP
7018
C830
8430
0460
0440
04C0
0280
0300
0300
0200
0200
0600
0600
0600
0600
ENDCHAR
STARTCHAR 03B4
ENCODING 948
SWIDTH 1000 0
DWIDTH 24 0
BBX 11 17 6 1
BITMAP
0F00
10E0
1060
1800
0C00
0600
0780
18C0
3040
6040
4040
4040
C0C0
40C0
4180
6300
3E00
ENDCHAR
STARTCHAR 03B5
ENCODING 949
SWIDTH 1000 0
DWIDTH 24 0
BBX 9 12 7 1
BITMAP
3E00
6180
4000
4000
7C00
7E00
C000
8000
8000
8080
C100
3E00
ENDCHAR
STARTCHAR 03B6
ENCODING 950
SWIDTH 1000 0
DWIDTH 24 0
BBX 11 21 6 -2
BITMAP
0400
0860
11C0
1380
0E00
0800
1800
1000
2000
6000
4000
C000
C000
C000
C000
7000
1E00
0380
0080
1880
0F00
ENDCHAR
STARTCHAR 03B7
ENCODING 951
SWIDTH 1000 0
DWIDTH 24 0
BBX 12 15 5 -2
BITMAP
71C0
8E20
0C20
0C30
0820
1820
1060
1060
3040
3040
20C0
60C0
0080
0080
0180
ENDCHAR
STARTCHAR 03B8
ENCODING 952
SWIDTH 1000 0
DWIDTH 24 0
BBX 11 17 6 1
BITMAP
0380
0CC0
1860
1060
3060
6060
6060
6060
7FE0
C060
C040
C0C0
C0C0
4180
4100
6200
3C00
ENDCHAR
STARTCHAR 03B9
ENCODING 953
SWIDTH 1000 0
DWIDTH 24 0
BBX 7 12 8 1
BITMAP
18
30
30
20
60
40
40
C0
C0
C2
C4
78
ENDCHAR
STARTCHAR 03BA
ENCODING 954
SWIDTH 1000 0
DWIDTH 24 0
BBX 12 12 6 1
BITMAP
1830
18E0
1380
3600
3800
3C00
6600
6200
4200
4230
C220
81C0
ENDCHAR
STARTCHAR 03BB
ENCODING 955
SWIDTH 1000 0
DWIDTH 24 0
BBX 13 17 5 1
BITMAP
0600
1900
1100
0100
0100
0100
0100
0300
0300
0700
0D00
0900
1900
3100
3188
6090
C0E0
ENDCHAR
STARTCHAR 03BC
ENCODING 956
SWIDTH 1000 0
DWIDTH 24 0
BBX 15 15 4 -2
BITMAP
0408
0E18
0C18
0810
1830
1020
1020
3020
3062
3064
38A4
6F18
4000
4000
C000
ENDCHAR
STARTCHAR 03BD
ENCODING 957
SWIDTH 1000 0
DWIDTH 24 0
BBX 12 12 6 1
BITMAP
7030
9070
1810
1810
1810
1820
1860
10C0
1380
1E00
3800
2000
ENDCHAR
STARTCHAR 03BE
ENCODING 958
SWIDTH 1000 0
DWIDTH 24 0
BBX 10 21 7 -2
BITMAP
1000
21C0
3700
0800
1800
1000
3000
3000
3780
1F00
2000
4000
C000
C000
C000
6000
3C00
0700
0100
2300
3E00
ENDCHAR
STARTCHAR 03BF
ENCODING 959
SWIDTH 1000 0
DWIDTH 24 0
BBX 10 12 7 1
BITMAP
0F00
3180
60C0
40C0
C0C0
C0C0
C0C0
C0C0
C0C0
4180
6300
1E00
ENDCHAR
STARTCHAR 03C0
ENCODING 960
SWIDTH 1000 0
DWIDTH 24 0
BBX 12 13 6 1
BITMAP
0010
7FF0
8880
0900
1100
1100
1100
3300
2300
2300
6330
4320
C1C0
ENDCHAR
STARTCHAR 03C1
ENCODING 961
SWIDTH 1000 0
DWIDTH 24 0
BBX 12 15 5 -2
BITMAP
03C0
0C60
1830
1030
3030
3030
3030
3030
7060
48C0
4780
4000
C000
C000
C000
ENDCHAR
STARTCHAR 03C2
ENCODING 962
SWIDTH 500 0
DWIDTH 12 0
BBX 10 16 1 -3
BITMAP
1F00
3080
60C0
61C0
40C0
4000
6000
2000
1000
0C00
0400
0200
0200
C200
E600
7C00
ENDCHAR
STARTCHAR 03C3
ENCODING 963
SWIDTH 1000 0
DWIDTH 24 0
BBX 12 12 7 1
BITMAP
1FF0
2080
60C0
40C0
C0C0
C0C0
C0C0
C0C0
C0C0
4180
6300
1E00
ENDCHAR
STARTCHAR 03C4
ENCODING 964
SWIDTH 1000 0
DWIDTH 24 0
BBX 12 13 6 1
BITMAP
0010
7FF0
8200
0400
0400
0800
0800
1800
1000
1000
1080
1900
0E00
ENDCHAR
STARTCHAR 03C5
ENCODING 965
SWIDTH 1000 0
DWIDTH 24 0
BBX 12 12 5 1
BITMAP
3020
C830
0810
0810
1810
1010
3010
2010
2020
2020
30C0
0F00
ENDCHAR
STARTCHAR 03C6
ENCODING 966
SWIDTH 1000 0
DWIDTH 24 0
BBX 12 19 6 -2
BITMAP
0080
0180
0100
0100
0780
1960
6230
C230
C210
8410
8410
8430
C430
C860
69C0
1E00
0800
1000
3000
ENDCHAR
STARTCHAR 03C7
ENCODING 967
SWIDTH 1000 0
DWIDTH 24 0
BBX 13 15 5 -2
BITMAP
3818
4430
0660
0240
02C0
0280
0300
0300
0600
0500
0D00
1900
3108
6090
E0E0
ENDCHAR
STARTCHAR 03C8
ENCODING 968
SWIDTH 1000 0
DWIDTH 24 0
BBX 13 19 6 -2
BITMAP
00C0
0080
0180
0180
1920
2110
4110
C218
8218
8218
8218
8410
C430
C460
78C0
0F00
0800
1800
3800
ENDCHAR
STARTCHAR 03C9
ENCODING 969
SWIDTH 1000 0
DWIDTH 24 0
BBX 16 12 4 1
BITMAP
0404
0804
1002
2002
60C3
40C3
4183
C182
4106
4106
628C
3C78
ENDCHAR
STARTCHAR 0401
ENCODING 1025
SWIDTH 1000 0
DWIDTH 24 0
BBX 15 20 4 1
BITMAP
0C30
0C38
0000
FFFC
380C
1004
1004
1004
1020
1020
1020
1FE0
1020
1020
1000
1002
1002
1002
380E
FFFE
ENDCHAR
STARTCHAR 0410
ENCODING 1040
SWIDTH 1000 0
DWIDTH 24 0
BBX 19 17 3 1
BITMAP
00C000
00C000
014000
016000
012000
023000
023000
041800
041800
080800
0FFC00
080C00
100600
100600
200300
200300
F80FE0
ENDCHAR
STARTCHAR 0411
ENCODING 1041
SWIDTH 1000 0
DWIDTH 24 0
BBX 14 17 5 1
BITMAP
FFF8
3018
2008
2008
2008
2000
2000
2000
3FE0
2038
200C
200C
200C
200C
200C
3038
FFE0
ENDCHAR
STARTCHAR 0412
ENCODING 1042
SWIDTH 1000 0
DWIDTH 24 0
BBX 14 17 5 1
BITMAP
FFC0
3030
2018
2018
2018
2018
2030
2060
3FC0
2038
200C
200C
200C
200C
200C
3038
FFE0
ENDCHAR
STARTCHAR 0413
ENCODING 1043
SWIDTH 1000 0
DWIDTH 24 0
BBX 14 17 5 1
BITMAP
FFFC
301C
300C
3004
3004
3000
3000
3000
3000
3000
3000
3000
3000
3000
3000
3000
FC00
ENDCHAR
STARTCHAR 0414
ENCODING 1044
SWIDTH 1000 0
DWIDTH 24 0
BBX 16 20 4 -2
BITMAP
3FFF
0C0C
080C
080C
080C
080C
080C
080C
080C
080C
100C
100C
200C
200C
400C
400C
FFFF
8001
8001
8001
ENDCHAR
STARTCHAR 0415
ENCODING 1045
SWIDTH 1000 0
DWIDTH 24 0
BBX 15 17 4 1
BITMAP
FFFC
380C
1004
1004
1004
1020
1020
1020
1FE0
1020
1020
1000
1002
1002
1002
380E
FFFE
ENDCHAR
STARTCHAR 0416
ENCODING 1046
SWIDTH 1000 0
DWIDTH 24 0
BBX 22 17 1 1
BITMAP
30FC30
683058
683058
043080
043080
043100
023100
013200
01FE00
033300
023100
063180
0C30C0
083040
183060
303030
FCFCFC
ENDCHAR
STARTCHAR 0417
ENCODING 1047
SWIDTH 1000 0
DWIDTH 24 0
BBX 12 17 6 1
BITMAP
1F80
7060
4020
4030
0030
0060
00C0
0F00
00E0
0030
0030
0030
8030
8030
C030
70E0
1F80
ENDCHAR
STARTCHAR 0418
ENCODING 1048
SWIDTH 1000 0
DWIDTH 24 0
BBX 18 17 3 1
BITMAP
FE1FC0
100200
100200
100200
100E00
101200
102200
104200
108200
110200
120200
140200
180200
100200
100200
100200
FE1FC0
ENDCHAR
STARTCHAR 0419
ENCODING 1049
SWIDTH 1000 0
DWIDTH 24 0
BBX 18 20 3 1
BITMAP
021000
061800
01E000
FE1FC0
100200
100200
100200
100E00
101200
102200
104200
108200
110200
120200
140200
180200
100200
100200
100200
FE1FC0
ENDCHAR
STARTCHAR 041A
ENCODING 1050
SWIDTH 1000 0
DWIDTH 24 0
BBX 17 17 4 1
BITMAP
FC0E00
301700
302600
302000
304000
304000
308000
370000
398000
30C000
306000
307000
303000
301800
300C00
300600
FC1F80
ENDCHAR
STARTCHAR 041B
ENCODING 1051
SWIDTH 1000 0
DWIDTH 24 0
BBX 17 17 3 1
BITMAP
0FFF80
030600
010600
010600
010600
010600
010600
010600
020600
020600
020600
020600
C20600
E20600
C40600
8C0600
781F80
ENDCHAR
STARTCHAR 041C
ENCODING 1052
SWIDTH 1000 0
DWIDTH 24 0
BBX 22 17 1 1
BITMAP
3C00F0
0E01C0
0E01C0
0B0240
0B0240
090240
098440
118460
108460
10C860
104860
107060
107060
103060
102060
100060
FC01FC
ENDCHAR
STARTCHAR 041D
ENCODING 1053
SWIDTH 1000 0
DWIDTH 24 0
BBX 18 17 3 1
BITMAP
FE1FC0
100200
100200
100200
100200
100200
100200
100200
1FFE00
100200
100200
100200
100200
100200
100200
100200
FE1FC0
ENDCHAR
STARTCHAR 041E
ENCODING 1054
SWIDTH 1000 0
DWIDTH 24 0
BBX 16 17 4 1
BITMAP
07E0
1C38
300C
6006
6006
4002
C003
C003
C003
C003
C003
C003
6006
6006
300C
1C18
07E0
ENDCHAR
STARTCHAR 041F
ENCODING 1055
SWIDTH 1000 0
DWIDTH 24 0
BBX 18 17 3 1
BITMAP
FFFFC0
380700
100200
100200
100200
100200
100200
100200
100200
100200
100200
100200
100200
100200
100200
100200
FE1FC0
ENDCHAR
STARTCHAR 0420
ENCODING 1056
SWIDTH 1000 0
DWIDTH 24 0
BBX 14 17 5 1
BITMAP
FFE0
3038
300C
300C
300C
300C
300C
3038
3FE0
3000
3000
3000
3000
3000
3000
3000
FC00
ENDCHAR
STARTCHAR 0421
ENCODING 1057
SWIDTH 1000 0
DWIDTH 24 0
BBX 16 17 4 1
BITMAP
03F8
0C0E
1806
3002
6002
6000
C000
C000
C000
C000
C000
6001
6001
3003
3803
0C0E
03F8
ENDCHAR
STARTCHAR 0422
ENCODING 1058
SWIDTH 1000 0
DWIDTH 24 0
BBX 16 17 4 1
BITMAP
FFFF
C183
8181
8181
8181
0180
0180
0180
0180
0180
0180
0180
0180
0180
0180
0180
07E0
ENDCHAR
STARTCHAR 0423
ENCODING 1059
SWIDTH 1000 0
DWIDTH 24 0
BBX 16 17 4 1
BITMAP
FE3F
3804
1808
0808
0C10
0610
0610
0320
0320
01C0
00C0
0080
0080
6100
6300
4600
3C00
ENDCHAR
STARTCHAR 0424
ENCODING 1060
SWIDTH 1000 0
DWIDTH 24 0
BBX 16 17 4 1
BITMAP
07E0
0180
0180
0FF0
318C
6186
C182
C183
C183
C183
C183
6186
318C
0DB0
03C0
0180
07E0
ENDCHAR
STARTCHAR 0425
ENCODING 1061
SWIDTH 1000 0
DWIDTH 24 0
BBX 18 17 3 1
BITMAP
FE1F80
180600
0C0C00
0E0800
061000
032000
01A000
00C000
00C000
016000
033000
021800
041800
080C00
100600
300700
FC1FC0
ENDCHAR
STARTCHAR 0426
ENCODING 1062
SWIDTH 1000 0
DWIDTH 24 0
BBX 17 20 3 -2
BITMAP
FC1F80
300600
300600
300600
300600
300600
300600
300600
300600
300600
300600
300600
300600
300600
300600
300600
FFFF80
000080
000080
000080
ENDCHAR
STARTCHAR 0427
ENCODING 1063
SWIDTH 1000 0
DWIDTH 24 0
BBX 16 17 4 1
BITMAP
FC3F
300C
300C
300C
300C
300C
300C
300C
300C
183C
0FCC
000C
000C
000C
000C
000C
003F
ENDCHAR
STARTCHAR 0428
ENCODING 1064
SWIDTH 1000 0
DWIDTH 24 0
BBX 20 17 2 1
BITMAP
FDFBF0
3060C0
3060C0
3060C0
3060C0
3060C0
3060C0
3060C0
3060C0
3060C0
3060C0
3060C0
3060C0
3060C0
3060C0
3060C0
FFFFF0
ENDCHAR
STARTCHAR 0429
ENCODING 1065
SWIDTH 1000 0
DWIDTH 24 0
BBX 20 20 2 -2
BITMAP
F9FBF0
3060C0
2060C0
2060C0
2060C0
2060C0
2060C0
2060C0
2060C0
2060C0
2060C0
2060C0
2060C0
2060C0
2060C0
3060C0
FFFFF0
000010
000010
000010
ENDCHAR
STARTCHAR 042A
ENCODING 1066
SWIDTH 1000 0
DWIDTH 24 0
BBX 18 17 3 1
BITMAP
FFC000
C70000
820000
820000
820000
020000
020000
020000
03FE00
020380
0200C0
0200C0
0200C0
0200C0
0200C0
030380
0FFE00
ENDCHAR
STARTCHAR 042B
ENCODING 1067
SWIDTH 1000 0
DWIDTH 24 0
BBX 20 17 2 1
BITMAP
FC03F0
3000C0
3000C0
3000C0
3000C0
3000C0
3000C0
3000C0
3FE0C0
3038C0
3018C0
300CC0
300CC0
300CC0
3018C0
3038C0
FFE3F0
ENDCHAR
STARTCHAR 042C
ENCODING 1068
SWIDTH 1000 0
DWIDTH 24 0
BBX 14 17 5 1
BITMAP
FC00
3000
3000
3000
3000
3000
3000
3000
3FE0
3038
300C
300C
3004
300C
300C
3038
FFE0
ENDCHAR
STARTCHAR 042D
ENCODING 1069
SWIDTH 1000 0
DWIDTH 24 0
BBX 16 17 4 1
BITMAP
1FC0
7030
601C
400C
8006
0006
0003
0F03
3187
007B
0003
8006
8006
C00C
C01C
7030
1FC0
ENDCHAR
STARTCHAR 042E
ENCODING 1070
SWIDTH 1000 0
DWIDTH 24 0
BBX 20 17 2 1
BITMAP
FC1F00
306180
30C0C0
308060
318060
318020
318030
310030
3F0030
318030
318030
318020
318060
31C060
30C0C0
306180
FC1F00
ENDCHAR
STARTCHAR 042F
ENCODING 1071
SWIDTH 1000 0
DWIDTH 24 0
BBX 17 17 3 1
BITMAP
03FF80
0C0E00
180400
180400
180400
180400
180400
0C0400
03FC00
018400
018400
030400
060400
060400
0C0400
100600
E01F80
ENDCHAR
STARTCHAR 0430
ENCODING 1072
SWIDTH 1000 0
DWIDTH 24 0
BBX 12 12 7 1
BITMAP
3E00
4300
E180
4180
0780
3980
6180
C180
C180
C190
C2A0
7CC0
ENDCHAR
STARTCHAR 0431
ENCODING 1073
SWIDTH 1000 0
DWIDTH 24 0
BBX 12 17 6 1
BITMAP
0030
00E0
0F80
3000
2000
4F00
70C0
E060
C020
C030
C030
C030
C030
6060
6060
30C0
0F80
ENDCHAR
STARTCHAR 0432
ENCODING 1074
SWIDTH 1000 0
DWIDTH 24 0
BBX 12 12 5 1
BITMAP
FFC0
3060
3020
3020
3060
3FC0
3070
3030
3010
3030
3060
FFC0
ENDCHAR
STARTCHAR 0433
ENCODING 1075
SWIDTH 1000 0
DWIDTH 24 0
BBX 12 12 6 1
BITMAP
FFF0
3030
3010
3010
3010
3000
3000
3000
3000
3000
3000
FC00
ENDCHAR
STARTCHAR 0434
ENCODING 1076
SWIDTH 1000 0
DWIDTH 24 0
BBX 14 15 5 -2
BITMAP
3FF8
0830
0820
0820
0820
0820
0820
1020
1020
2020
2030
FFFC
C00C
8004
8004
ENDCHAR
STARTCHAR 0435
ENCODING 1077
SWIDTH 1000 0
DWIDTH 24 0
BBX 11 12 6 1
BITMAP
0F00
30C0
6040
4060
C060
FFE0
C000
C000
4000
6020
30C0
0F80
ENDCHAR
STARTCHAR 0436
ENCODING 1078
SWIDTH 1000 0
DWIDTH 24 0
BBX 18 12 3 1
BITMAP
61E180
70C380
08C400
08C400
04C800
07F800
0CCC00
18C600
10C200
30C300
20C100
F9E7C0
ENDCHAR
STARTCHAR 0437
ENCODING 1079
SWIDTH 1000 0
DWIDTH 24 0
BBX 10 12 7 1
BITMAP
3E00
6180
4080
0080
0180
1E00
0180
00C0
80C0
80C0
E180
3F00
ENDCHAR
STARTCHAR 0438
ENCODING 1080
SWIDTH 1000 0
DWIDTH 24 0
BBX 14 12 5 1
BITMAP
FCFC
3030
3030
3070
30B0
3130
3230
3430
3830
3030
3030
FCFC
ENDCHAR
STARTCHAR 0439
ENCODING 1081
SWIDTH 1000 0
DWIDTH 24 0
BBX 14 16 5 1
BITMAP
0840
1860
0780
0000
FCFC
3030
3030
3070
30B0
3130
3230
3430
3830
3030
3030
FCFC
ENDCHAR
STARTCHAR 043A
ENCODING 1082
SWIDTH 1000 0
DWIDTH 24 0
BBX 13 12 6 1
BITMAP
F870
60B0
2080
2100
2200
3F00
2100
2180
20C0
2060
6060
F8F8
ENDCHAR
STARTCHAR 043B
ENCODING 1083
SWIDTH 1000 0
DWIDTH 24 0
BBX 14 12 4 1
BITMAP
0FFC
0218
0210
0410
0410
0410
0410
0410
0410
C410
C818
707C
ENDCHAR
STARTCHAR 043C
ENCODING 1084
SWIDTH 1000 0
DWIDTH 24 0
BBX 16 12 4 1
BITMAP
F00F
381C
281C
282C
2C2C
242C
264C
264C
228C
238C
210C
F93F
ENDCHAR
STARTCHAR 043D
ENCODING 1085
SWIDTH 1000 0
DWIDTH 24 0
BBX 14 12 5 1
BITMAP
FCFC
3030
3030
3030
3030
3FF0
3030
3030
3030
3030
3030
FCFC
ENDCHAR
STARTCHAR 043E
ENCODING 1086
SWIDTH 1000 0
DWIDTH 24 0
BBX 12 12 6 1
BITMAP
0F00
30C0
6060
4020
C030
C030
C030
C030
6060
6060
30C0
1F80
ENDCHAR
STARTCHAR 043F
ENCODING 1087
SWIDTH 1000 0
DWIDTH 24 0
BBX 14 12 5 1
BITMAP
FFFC
3030
3030
3030
3030
3030
3030
3030
3030
3030
3030
FCFC
ENDCHAR
STARTCHAR 0440
ENCODING 1088
SWIDTH 1000 0
DWIDTH 24 0
BBX 12 16 6 -2
BITMAP
2000
EF80
70C0
6060
6020
6030
6030
6030
6030
6060
70C0
6F80
6000
6000
6000
F800
ENDCHAR
STARTCHAR 0441
ENCODING 1089
SWIDTH 1000 0
DWIDTH 24 0
BBX 11 12 6 1
BITMAP
0F80
3840
60E0
60C0
4000
C000
C000
4000
6020
6020
38C0
0F00
ENDCHAR
STARTCHAR 0442
ENCODING 1090
SWIDTH 1000 0
DWIDTH 24 0
BBX 12 12 6 1
BITMAP
FFF0
C630
8610
8610
0600
0600
0600
0600
0600
0600
0600
1F80
ENDCHAR
STARTCHAR 0443
ENCODING 1091
SWIDTH 1000 0
DWIDTH 24 0
BBX 14 15 5 -2
BITMAP
FC7C
3010
1810
1820
0C20
0C40
0640
0680
0380
0100
0100
0200
3200
3600
1C00
ENDCHAR
STARTCHAR 0444
ENCODING 1092
SWIDTH 1000 0
DWIDTH 24 0
BBX 14 20 5 -2
BITMAP
0F00
0300
0300
0300
0300
1FE0
6318
4308
C30C
C30C
C30C
C30C
C30C
6308
6318
1FF0
0300
0300
0300
0FC0
ENDCHAR
STARTCHAR 0445
ENCODING 1093
SWIDTH 1000 0
DWIDTH 24 0
BBX 14 12 5 1
BITMAP
FCF8
1020
1840
0C80
0700
0300
0780
0480
08C0
1060
2030
F8FC
ENDCHAR
STARTCHAR 0446
ENCODING 1094
SWIDTH 1000 0
DWIDTH 24 0
BBX 14 15 5 -2
BITMAP
F8F8
3020
3020
3020
3020
3020
3020
3020
3020
3020
3020
FFFC
000C
0004
0004
ENDCHAR
STARTCHAR 0447
ENCODING 1095
SWIDTH 1000 0
DWIDTH 24 0
BBX 13 12 5 1
BITMAP
F8F8
3030
3020
3020
3020
3020
1860
0FA0
0020
0020
0030
00F8
ENDCHAR
STARTCHAR 0448
ENCODING 1096
SWIDTH 1000 0
DWIDTH 24 0
BBX 18 12 3 1
BITMAP
F9E7C0
20C100
20C100
20C100
20C100
20C100
20C100
20C100
20C100
20C100
30C300
FFFFC0
ENDCHAR
STARTCHAR 0449
ENCODING 1097
SWIDTH 1000 0
DWIDTH 24 0
BBX 18 15 3 -2
BITMAP
F9E7C0
20C100
20C100
20C100
20C100
20C100
20C100
20C100
20C100
20C100
30C300
FFFFC0
000040
000040
000040
ENDCHAR
STARTCHAR 044A
ENCODING 1098
SWIDTH 1000 0
DWIDTH 24 0
BBX 14 12 5 1
BITMAP
FE00
8C00
8800
0800
0800
0FE0
0818
0808
080C
0808
0C18
3FF0
ENDCHAR
STARTCHAR 044B
ENCODING 1099
SWIDTH 1000 0
DWIDTH 24 0
BBX 16 12 4 1
BITMAP
F81F
6004
2004
2004
2004
3F84
20C4
2064
2064
2064
60C6
FF9F
ENDCHAR
STARTCHAR 044C
ENCODING 1100
SWIDTH 1000 0
DWIDTH 24 0
BBX 12 12 6 1
BITMAP
FC00
3000
3000
3000
3000
3FC0
3060
3030
3030
3030
3060
FFC0
ENDCHAR
STARTCHAR 044D
ENCODING 1101
SWIDTH 1000 0
DWIDTH 24 0
BBX 12 12 6 1
BITMAP
3F80
60C0
4060
0020
1830
2670
43B0
0030
0060
C060
20C0
1F00
ENDCHAR
STARTCHAR 044E
ENCODING 1102
SWIDTH 1000 0
DWIDTH 24 0
BBX 18 12 3 1
BITMAP
FC7C00
30C300
318180
318180
330080
3F00C0
3300C0
3100C0
318180
318180
30C300
FC7E00
ENDCHAR
STARTCHAR 044F
ENCODING 1103
SWIDTH 1000 0
DWIDTH 24 0
BBX 12 12 6 1
BITMAP
1FF0
6060
6040
6040
6040
1FC0
0C40
1840
1840
3040
6060
81F0
ENDCHAR
STARTCHAR 0451
ENCODING 1105
SWIDTH 1000 0
DWIDTH 24 0
BBX 11 16 6 1
BITMAP
30C0
30C0
0000
0000
0F00
30C0
6040
4060
C060
FFE0
C000
C000
4000
6020
30C0
0F80
ENDCHAR
STARTCHAR 1E3E
ENCODING 7742
SWIDTH 500 0
DWIDTH 12 0
BBX 12 20 0 1
BITMAP
0380
0400
0800
F0F0
30C0
50C0
50C0
5140
5140
5940
4940
4940
4A40
4A40
4E40
4640
4640
4440
4440
F0F0
ENDCHAR
STARTCHAR 1E3F
ENCODING 7743
SWIDTH 500 0
DWIDTH 12 0
BBX 12 15 0 1
BITMAP
0380
0400
0800
FDC0
6660
6660
6660
6660
6660
6660
6660
6660
6660
6660
FFF0
ENDCHAR
STARTCHAR 1F70
ENCODING 8048
SWIDTH 500 0
DWIDTH 12 0
BBX 9 16 2 0
BITMAP
7000
0800
0400
3E00
6600
C200
8200
8200
8200
8200
8200
8200
8200
C680
4680
3900
ENDCHAR
STARTCHAR 1F71
ENCODING 8049
SWIDTH 500 0
DWIDTH 12 0
BBX 9 16 2 0
BITMAP
0E00
1000
2000
3E00
6600
C200
8200
8200
8200
8200
8200
8200
8200
C680
4680
3900
ENDCHAR
STARTCHAR 1F72
ENCODING 8050
SWIDTH 500 0
DWIDTH 12 0
BBX 8 16 2 0
BITMAP
70
08
04
3E
43
C1
40
60
1C
60
C0
81
81
C1
63
3C
ENDCHAR
STARTCHAR 1F73
ENCODING 8051
SWIDTH 500 0
DWIDTH 12 0
BBX 8 16 2 0
BITMAP
0E
10
20
3E
43
C1
40
60
1C
60
C0
81
81
C1
63
3C
ENDCHAR
STARTCHAR 2010
ENCODING 8208
SWIDTH 1000 0
DWIDTH 24 0
BBX 8 1 8 9
BITMAP
FF
ENDCHAR
STARTCHAR 2013
ENCODING 8211
SWIDTH 500 0
DWIDTH 12 0
BBX 4 1 4 9
BITMAP
F0
ENDCHAR
STARTCHAR 2014
ENCODING 8212
SWIDTH 1000 0
DWIDTH 24 0
BBX 22 1 1 9
BITMAP
FFFFFC
ENDCHAR
STARTCHAR 2015
ENCODING 8213
SWIDTH 1000 0
DWIDTH 24 0
BBX 22 1 1 9
BITMAP
FFFFFC
ENDCHAR
STARTCHAR 2016
ENCODING 8214
SWIDTH 1000 0
DWIDTH 24 0
BBX 4 24 10 -3
BITMAP
90
90
90
90
90
90
90
90
90
90
90
90
90
90
90
90
90
90
90
90
90
90
90
90
ENDCHAR
STARTCHAR 2018
ENCODING 8216
SWIDTH 1000 0
DWIDTH 24 0
BBX 3 6 19 14
BITMAP
20
40
C0
C0
E0
C0
ENDCHAR
STARTCHAR 2019
ENCODING 8217
SWIDTH 1000 0
DWIDTH 24 0
BBX 3 7 2 13
BITMAP
60
E0
E0
20
40
40
80
ENDCHAR
STARTCHAR 201C
ENCODING 8220
SWIDTH 1000 0
DWIDTH 24 0
BBX 8 6 14 14
BITMAP
21
42
C6
C6
E7
E6
ENDCHAR
STARTCHAR 201D
ENCODING 8221
SWIDTH 1000 0
DWIDTH 24 0
BBX 8 7 2 13
BITMAP
67
E7
E7
23
42
44
88
ENDCHAR
STARTCHAR 2020
ENCODING 8224
SWIDTH 1000 0
DWIDTH 24 0
BBX 10 21 7 -2
BITMAP
0C00
1E00
0C00
EDC0
FFC0
FBC0
0C00
0C00
1E00
0C00
0C00
0C00
0C00
0800
0800
0800
0800
0800
0800
0800
0800
ENDCHAR
STARTCHAR 2021
ENCODING 8225
SWIDTH 1000 0
DWIDTH 24 0
BBX 10 22 7 -2
BITMAP
0C00
0C00
0C00
EDC0
FFC0
EDC0
0C00
0C00
0800
0800
0800
0800
0800
0C00
0C00
0C00
EDC0
FFC0
EDC0
0C00
0C00
0C00
ENDCHAR
STARTCHAR 2022
ENCODING 8226
SWIDTH 500 0
DWIDTH 12 0
BBX 4 5 4 7
BITMAP
60
F0
F0
F0
70
ENDCHAR
STARTCHAR 2025
ENCODING 8229
SWIDTH 1000 0
DWIDTH 24 0
BBX 16 3 4 8
BITMAP
6006
F00F
6006
ENDCHAR
STARTCHAR 2026
ENCODING 8230
SWIDTH 1000 0
DWIDTH 24 0
BBX 18 3 3 8
BITMAP
C0C0C0
E0C1C0
C0C0C0
ENDCHAR
STARTCHAR 2030
ENCODING 8240
SWIDTH 1000 0
DWIDTH 24 0
BBX 22 22 1 -2
BITMAP
000800
381000
641000
462000
C62000
C64000
C64000
468000
648000
390000
010000
020000
027070
06C898
048D88
0D8D88
098D8C
088D8C
108D88
10C898
207070
600000
ENDCHAR
STARTCHAR 2032
ENCODING 8242
SWIDTH 1000 0
DWIDTH 24 0
BBX 3 6 1 14
BITMAP
20
20
60
40
40
80
ENDCHAR
STARTCHAR 2033
ENCODING 8243
SWIDTH 1000 0
DWIDTH 24 0
BBX 7 6 1 14
BITMAP
26
26
64
44
48
88
ENDCHAR
STARTCHAR 203B
ENCODING 8251
SWIDTH 1000 0
DWIDTH 24 0
BBX 20 19 2 0
BITMAP
800020
406030
20F040
106080
080100
040200
020400
010800
009000
706060
F060F0
609060
010800
020400
040200
080100
106080
20F040
C07030
ENDCHAR
STARTCHAR 203C
ENCODING 8252
SWIDTH 500 0
DWIDTH 12 0
BBX 8 20 2 -1
BITMAP
66
E7
E7
E7
66
66
66
42
42
42
42
42
42
42
42
00
00
66
E7
66
ENDCHAR
STARTCHAR 203E
ENCODING 8254
SWIDTH 1000 0
DWIDTH 24 0
BBX 0 0 0 21
BITMAP
ENDCHAR
STARTCHAR 203F
ENCODING 8255
SWIDTH 500 0
DWIDTH 12 0
BBX 10 2 1 -2
BITMAP
C0C0
3F00
ENDCHAR
STARTCHAR 2042
ENCODING 8258
SWIDTH 500 0
DWIDTH 12 0
BBX 10 14 1 2
BITMAP
0C00
3B00
0C00
0E00
3B00
0C00
0000
0000
2100
BF40
6180
D2C0
AD40
2100
ENDCHAR
STARTCHAR 2047
ENCODING 8263
SWIDTH 500 0
DWIDTH 12 0
BBX 11 20 1 -1
BITMAP
6180
B2C0
9240
9A40
DB60
D340
1040
30C0
2080
2080
2100
4100
4100
4100
4100
0000
0000
6180
6380
6180
ENDCHAR
STARTCHAR 2048
ENCODING 8264
SWIDTH 500 0
DWIDTH 12 0
BBX 9 20 1 -1
BITMAP
7180
9980
8980
8D80
CD80
CD80
0980
1980
1180
1180
2180
2080
2080
2080
2100
0000
0000
2180
7180
6180
ENDCHAR
STARTCHAR 2049
ENCODING 8265
SWIDTH 500 0
DWIDTH 12 0
BBX 9 20 2 -1
BITMAP
CE00
D300
D180
D180
D980
D980
C100
C300
C200
C200
8400
8400
8400
8400
8400
0000
0000
C600
CE00
C600
ENDCHAR
STARTCHAR 2051
ENCODING 8273
SWIDTH 1000 0
DWIDTH 24 0
BBX 6 18 9 0
BITMAP
30
A4
68
30
EC
B4
30
00
00
00
00
30
A4
68
30
EC
B4
30
ENDCHAR
STARTCHAR 20AC
ENCODING 8364
SWIDTH 500 0
DWIDTH 12 0
BBX 10 18 1 0
BITMAP
0F80
1980
3080
3080
2080
2000
FF00
6000
6000
FE00
2000
2040
2080
3080
3080
1080
1900
0E00
ENDCHAR
STARTCHAR 2103
ENCODING 8451
SWIDTH 1000 0
DWIDTH 24 0
BBX 20 19 1 1
BITMAP
700000
880000
883F20
88C1E0
718060
030020
060020
060000
060000
060000
060000
060000
060000
060010
060010
030020
018040
00E080
003F00
ENDCHAR
STARTCHAR 210F
ENCODING 8463
SWIDTH 500 0
DWIDTH 12 0
BBX 10 19 1 0
BITMAP
0800
3800
0900
1E00
1800
7000
1700
3980
3180
2180
2100
2100
6100
4100
4300
4240
C240
C280
0380
ENDCHAR
STARTCHAR 2113
ENCODING 8467
SWIDTH 500 0
DWIDTH 12 0
BBX 10 18 1 0
BITMAP
0300
0480
0C80
0880
1880
1180
1100
3100
3300
2200
2400
2800
3040
2040
E080
3080
1100
0E00
ENDCHAR
STARTCHAR 2116
ENCODING 8470
SWIDTH 1000 0
DWIDTH 24 0
BBX 22 17 1 1
BITMAP
E1E000
304000
304000
384000
284000
2C4780
2C44C0
244840
264860
224860
235860
215860
214860
21C860
20C840
20C4DC
F0479C
ENDCHAR
STARTCHAR 2121
ENCODING 8481
SWIDTH 1000 0
DWIDTH 24 0
BBX 22 17 1 1
BITMAP
FF8000
888000
888000
080000
08FDE0
0844C0
084440
084040
084840
084840
087840
084840
084840
084044
084444
0844CC
3EFDFC
ENDCHAR
STARTCHAR 2127
ENCODING 8487
SWIDTH 500 0
DWIDTH 12 0
BBX 10 18 1 0
BITMAP
F3C0
9440
9240
2100
6100
4080
4080
C0C0
C0C0
C0C0
C0C0
C0C0
C0C0
4080
4080
6180
3300
1E00
ENDCHAR
STARTCHAR 212B
ENCODING 8491
SWIDTH 1000 0
DWIDTH 24 0
BBX 18 19 3 1
BITMAP
01C000
012000
012000
00C000
00C000
00C000
016000
016000
022000
023000
063000
041800
041800
0FF800
080C00
180C00
100600
300600
FC1FC0
ENDCHAR
STARTCHAR 2135
ENCODING 8501
SWIDTH 500 0
DWIDTH 12 0
BBX 10 18 1 1
BITMAP
4000
4100
4100
4180
60C0
2140
3140
1A00
2A00
2C00
4600
4200
4300
4100
4180
4080
4080
C080
ENDCHAR
STARTCHAR 2153
ENCODING 8531
SWIDTH 500 0
DWIDTH 12 0
BBX 10 22 1 -2
BITMAP
4040
C080
4080
4080
4100
4100
4200
4200
4400
4400
F400
0B80
0E40
1640
10C0
2100
20C0
2040
4040
4640
84C0
8380
ENDCHAR
STARTCHAR 2154
ENCODING 8532
SWIDTH 500 0
DWIDTH 12 0
BBX 10 22 1 -2
BITMAP
7040
9040
9080
D080
1100
1100
2200
4200
5200
9400
F400
0B80
0E40
1640
10C0
1100
20C0
2040
4040
4640
84C0
8380
ENDCHAR
STARTCHAR 2155
ENCODING 8533
SWIDTH 500 0
DWIDTH 12 0
BBX 10 22 1 -2
BITMAP
4040
C080
4080
4080
4100
4100
4200
4200
4400
4400
F400
0BC0
0C00
1400
1400
2380
2440
2040
4040
4640
84C0
8380
ENDCHAR
STARTCHAR 2160
ENCODING 8544
SWIDTH 1000 0
DWIDTH 24 0
BBX 6 17 9 1
BITMAP
FC
30
30
30
30
30
30
30
30
30
30
30
30
30
30
30
FC
ENDCHAR
STARTCHAR 2161
ENCODING 8545
SWIDTH 1000 0
DWIDTH 24 0
BBX 14 17 5 1
BITMAP
FFFC
3030
3030
3030
3030
3030
3030
3030
3030
3030
3030
3030
3030
3030
3030
3030
FFFC
ENDCHAR
STARTCHAR 2162
ENCODING 8546
SWIDTH 1000 0
DWIDTH 24 0
BBX 20 17 2 1
BITMAP
FFFFF0
3860C0
106080
106080
106080
106080
106080
106080
106080
106080
106080
106080
106080
106080
106080
3061C0
FFFFF0
ENDCHAR
STARTCHAR 2163
ENCODING 8547
SWIDTH 1000 0
DWIDTH 24 0
BBX 21 17 2 1
BITMAP
FFF0F8
118020
10C020
10C040
10C040
106040
106080
102080
103080
103100
101100
101900
101A00
100A00
100E00
300C00
FE0400
ENDCHAR
STARTCHAR 2164
ENCODING 8548
SWIDTH 1000 0
DWIDTH 24 0
BBX 18 17 3 1
BITMAP
FE0FC0
300300
180200
180200
080400
0C0400
0C0400
060800
060800
031000
031000
031000
01A000
01A000
00C000
00C000
004000
ENDCHAR
STARTCHAR 2165
ENCODING 8549
SWIDTH 1000 0
DWIDTH 24 0
BBX 21 17 1 1
BITMAP
FC3FF8
300C40
300840
100840
180840
181040
081040
0C2040
0C2040
042040
064040
064040
024040
038040
038040
018040
0103F8
ENDCHAR
STARTCHAR 2166
ENCODING 8550
SWIDTH 1000 0
DWIDTH 24 0
BBX 22 17 1 1
BITMAP
F87FFC
601330
302330
302330
302330
102330
184330
184330
084330
0C8330
0C8330
048330
050330
070330
070330
020330
020FFC
ENDCHAR
STARTCHAR 2167
ENCODING 8551
SWIDTH 1000 0
DWIDTH 24 0
BBX 22 17 1 1
BITMAP
F8FFFC
602498
204498
304498
304498
308498
108498
188498
188498
090498
090498
0D0498
0D0498
060498
060498
060498
021FFC
ENDCHAR
STARTCHAR 2168
ENCODING 8552
SWIDTH 1000 0
DWIDTH 24 0
BBX 21 17 2 1
BITMAP
FFF9F0
30E0C0
306080
303100
303100
301A00
301A00
300C00
300C00
300E00
301300
301300
302180
304180
3040C0
3080E0
FFF1F8
ENDCHAR
STARTCHAR 2169
ENCODING 8553
SWIDTH 1000 0
DWIDTH 24 0
BBX 18 17 3 1
BITMAP
FE1F80
180600
0C0C00
0E0800
061000
032000
01A000
00C000
00C000
016000
033000
021800
041800
080C00
100600
300700
FC1FC0
ENDCHAR
STARTCHAR 216A
ENCODING 8554
SWIDTH 1000 0
DWIDTH 24 0
BBX 20 17 2 1
BITMAP
FCFFF0
3020C0
1820C0
1840C0
0C80C0
0C80C0
0700C0
0700C0
0300C0
0500C0
0580C0
08C0C0
08C0C0
1060C0
2060C0
2030C0
F8FFF0
ENDCHAR
STARTCHAR 216B
ENCODING 8555
SWIDTH 1000 0
DWIDTH 24 0
BBX 22 17 1 1
BITMAP
FCFFFC
302330
184330
184330
0C8330
048330
070330
030330
030330
058330
058330
08C330
08C330
106330
206330
203330
F8FFFC
ENDCHAR
STARTCHAR 2170
ENCODING 8560
SWIDTH 1000 0
DWIDTH 24 0
BBX 6 17 9 1
BITMAP
30
30
30
00
00
30
F0
30
30
30
30
30
30
30
30
30
FC
ENDCHAR
STARTCHAR 2171
ENCODING 8561
SWIDTH 1000 0
DWIDTH 24 0
BBX 13 17 6 1
BITMAP
6060
70E0
6060
0000
0000
60E0
E160
2060
2060
2060
2060
2060
2060
2060
2060
6060
F9F8
ENDCHAR
STARTCHAR 2172
ENCODING 8562
SWIDTH 1000 0
DWIDTH 24 0
BBX 18 17 3 1
BITMAP
30C300
30C300
30C300
000000
000000
71C700
B2CB00
30C300
30C300
30C300
30C300
30C300
30C300
30C300
30C300
30C300
FFFFC0
ENDCHAR
STARTCHAR 2173
ENCODING 8563
SWIDTH 1000 0
DWIDTH 24 0
BBX 17 17 4 1
BITMAP
600000
700000
600000
000000
200000
E7C780
630100
218100
218200
208200
20C400
204400
206800
206800
202800
203000
F81000
ENDCHAR
STARTCHAR 2174
ENCODING 8564
SWIDTH 1000 0
DWIDTH 24 0
BBX 14 12 5 1
BITMAP
F87C
3010
1020
1820
1820
0840
0C40
0480
0680
0300
0300
0300
ENDCHAR
STARTCHAR 2175
ENCODING 8565
SWIDTH 1000 0
DWIDTH 24 0
BBX 19 17 2 1
BITMAP
000180
000180
000180
000000
000080
FCFF80
303180
102180
182180
184180
084180
0C8180
048180
048180
070180
030180
0207E0
ENDCHAR
STARTCHAR 2176
ENCODING 8566
SWIDTH 1000 0
DWIDTH 24 0
BBX 22 17 1 1
BITMAP
000730
000730
000230
000000
000210
FCFEF0
302230
102230
184230
184230
084230
0C8230
0C8230
050230
070230
030230
020FFC
ENDCHAR
STARTCHAR 2177
ENCODING 8567
SWIDTH 1000 0
DWIDTH 24 0
BBX 22 17 1 1
BITMAP
001DB8
001DB8
000000
000000
000890
F9FBF0
206990
304990
304990
108990
188990
190990
090990
0D0990
060990
060990
043FFC
ENDCHAR
STARTCHAR 2178
ENCODING 8568
SWIDTH 1000 0
DWIDTH 24 0
BBX 18 17 4 1
BITMAP
600000
700000
600000
000000
200000
E3EF80
60C200
204400
206800
202800
203000
203800
204C00
204400
208600
210300
FFCFC0
ENDCHAR
STARTCHAR 2179
ENCODING 8569
SWIDTH 1000 0
DWIDTH 24 0
BBX 14 12 5 1
BITMAP
FCF8
1020
1840
0C80
0700
0300
0780
0480
08C0
1060
2030
F8FC
ENDCHAR
STARTCHAR 217A
ENCODING 8570
SWIDTH 1000 0
DWIDTH 24 0
BBX 19 17 2 1
BITMAP
000180
000180
000180
000000
000080
7CF780
184180
0C4180
048180
070180
030180
030180
058180
08C180
104180
306180
F8FFE0
ENDCHAR
STARTCHAR 217B
ENCODING 8571
SWIDTH 1000 0
DWIDTH 24 0
BBX 22 17 1 1
BITMAP
000730
000730
000230
000000
000210
7CFEF0
186230
084230
0C8230
070230
020230
030230
058230
08C230
104230
206230
F9FFFC
ENDCHAR
STARTCHAR 2190
ENCODING 8592
SWIDTH 1000 0
DWIDTH 24 0
BBX 21 8 1 5
BITMAP
060000
180000
300000
FFFFF8
600000
180000
0C0000
060000
ENDCHAR
STARTCHAR 2191
ENCODING 8593
SWIDTH 1000 0
DWIDTH 24 0
BBX 8 21 8 -1
BITMAP
10
18
3C
7E
DB
99
99
18
18
18
18
18
18
18
18
18
18
18
18
18
18
ENDCHAR
STARTCHAR 2192
ENCODING 8594
SWIDTH 1000 0
DWIDTH 24 0
BBX 21 8 2 5
BITMAP
000300
0000C0
000060
FFFFF8
000030
000040
000180
000300
ENDCHAR
STARTCHAR 2193
ENCODING 8595
SWIDTH 1000 0
DWIDTH 24 0
BBX 8 21 8 -1
BITMAP
18
18
18
18
18
18
18
18
18
18
18
18
18
18
99
99
DB
7E
3C
18
10
ENDCHAR
STARTCHAR 2194
ENCODING 8596
SWIDTH 500 0
DWIDTH 12 0
BBX 10 9 1 5
BITMAP
3300
6100
4080
C0C0
FFC0
C0C0
4080
2100
3300
ENDCHAR
STARTCHAR 2196
ENCODING 8598
SWIDTH 500 0
DWIDTH 12 0
BBX 10 18 1 0
BITMAP
3000
3C00
3600
7900
4880
4800
C400
8400
0400
0200
0200
0300
0100
0100
0180
0080
0080
00C0
ENDCHAR
STARTCHAR 2197
ENCODING 8599
SWIDTH 500 0
DWIDTH 12 0
BBX 10 18 1 0
BITMAP
0300
0F00
1B00
2780
4480
0480
0CC0
0880
0800
1000
1000
3000
2000
2000
6000
4000
4000
C000
ENDCHAR
STARTCHAR 2198
ENCODING 8600
SWIDTH 500 0
DWIDTH 12 0
BBX 10 18 1 0
BITMAP
C000
4000
4000
6000
2000
2000
1000
1000
1000
0800
0880
0C80
04C0
4480
3780
1B00
0700
0200
ENDCHAR
STARTCHAR 2199
ENCODING 8601
SWIDTH 500 0
DWIDTH 12 0
BBX 10 18 1 0
BITMAP
00C0
0080
0080
0180
0100
0100
0200
0200
0600
0400
8400
4C00
C800
4880
7B00
3600
3800
2000
ENDCHAR
STARTCHAR 21C4
ENCODING 8644
SWIDTH 500 0
DWIDTH 12 0
BBX 10 18 1 0
BITMAP
0C00
0200
0300
0180
7FC0
0180
0200
0400
0800
0C00
1800
3000
6000
FF80
6000
3000
1000
0C00
ENDCHAR
STARTCHAR 21D2
ENCODING 8658
SWIDTH 1000 0
DWIDTH 24 0
BBX 21 13 2 3
BITMAP
000200
000700
000180
FFFFC0
000060
000030
000018
000030
000060
FFFFC0
000180
000300
000600
ENDCHAR
STARTCHAR 21D4
ENCODING 8660
SWIDTH 1000 0
DWIDTH 24 0
BBX 22 13 1 3
BITMAP
020100
070380
0C00C0
1FFFE0
300030
600018
C0000C
600018
300030
1FFFE0
0C00C0
060180
030300
ENDCHAR
STARTCHAR 21E6
ENCODING 8678
SWIDTH 500 0
DWIDTH 12 0
BBX 9 8 1 5
BITMAP
1000
1000
7000
8F80
4F80
3000
1000
1000
ENDCHAR
STARTCHAR 21E7
ENCODING 8679
SWIDTH 500 0
DWIDTH 12 0
BBX 8 19 2 0
BITMAP
10
18
28
44
42
82
E7
28
28
28
28
28
28
28
28
28
28
28
38
ENDCHAR
STARTCHAR 21E8
ENCODING 8680
SWIDTH 500 0
DWIDTH 12 0
BBX 9 8 2 5
BITMAP
0800
0400
0A00
F180
F900
0A00
0400
0800
ENDCHAR
STARTCHAR 21E9
ENCODING 8681
SWIDTH 500 0
DWIDTH 12 0
BBX 8 19 2 -1
BITMAP
38
28
28
28
28
28
28
28
28
28
28
28
E7
82
42
64
28
18
10
ENDCHAR
STARTCHAR 2200
ENCODING 8704
SWIDTH 1000 0
DWIDTH 24 0
BBX 22 20 1 -1
BITMAP
C0000C
400008
200010
200010
100020
180060
080040
0FFFC0
040080
060180
020100
010200
010200
008400
008400
004800
004800
003000
003000
002000
ENDCHAR
STARTCHAR 2202
ENCODING 8706
SWIDTH 1000 0
DWIDTH 24 0
BBX 11 18 7 0
BITMAP
0F00
1180
20C0
0040
0040
0060
0060
1E60
6160
40C0
C0C0
80C0
80C0
8180
8180
C300
4600
3C00
ENDCHAR
STARTCHAR 2203
ENCODING 8707
SWIDTH 1000 0
DWIDTH 24 0
BBX 17 18 3 0
BITMAP
FFFF80
000080
000080
000080
000080
000080
000080
000080
FFFF80
000080
000080
000080
000080
000080
000080
000080
000080
FFFF80
ENDCHAR
STARTCHAR 2205
ENCODING 8709
SWIDTH 500 0
DWIDTH 12 0
BBX 10 13 1 3
BITMAP
0100
0180
1F00
3300
4280
C4C0
8440
8840
D8C0
5080
3100
3E00
4000
ENDCHAR
STARTCHAR 2207
ENCODING 8711
SWIDTH 1000 0
DWIDTH 24 0
BBX 18 17 3 0
BITMAP
FFFFC0
400080
600080
200100
300100
100200
180200
080400
0C0400
040800
060800
021000
031000
01A000
01A000
00C000
008000
ENDCHAR
STARTCHAR 2208
ENCODING 8712
SWIDTH 1000 0
DWIDTH 24 0
BBX 18 17 3 1
BITMAP
03FFC0
0C0000
300000
600000
400000
C00000
800000
800000
FFFFC0
800000
800000
C00000
400000
600000
300000
0C0000
03FFC0
ENDCHAR
STARTCHAR 2209
ENCODING 8713
SWIDTH 500 0
DWIDTH 12 0
BBX 9 17 1 1
BITMAP
0100
0100
0F80
1200
2200
4200
4400
8400
FF80
8400
CC00
C800
4800
6800
3800
1F80
1000
ENDCHAR
STARTCHAR 220B
ENCODING 8715
SWIDTH 1000 0
DWIDTH 24 0
BBX 18 17 3 1
BITMAP
FFF000
000C00
000300
000100
000080
0000C0
000040
000040
FFFFC0
000040
000040
0000C0
000080
000180
000300
000C00
FFF000
ENDCHAR
STARTCHAR 2212
ENCODING 8722
SWIDTH 500 0
DWIDTH 12 0
BBX 10 1 1 9
BITMAP
FFC0
ENDCHAR
STARTCHAR 2213
ENCODING 8723
SWIDTH 500 0
DWIDTH 12 0
BBX 10 16 1 1
BITMAP
FFC0
0000
0000
0000
0C00
0C00
0C00
0C00
0C00
FFC0
0C00
0C00
0C00
0C00
0C00
0C00
ENDCHAR
STARTCHAR 221A
ENCODING 8730
SWIDTH 1000 0
DWIDTH 24 0
BBX 23 22 1 -1
BITMAP
001FFE
002000
002000
002000
004000
004000
004000
008000
008000
010000
010000
410000
420000
620000
620000
A40000
B40000
140000
180000
180000
080000
100000
ENDCHAR
STARTCHAR 221D
ENCODING 8733
SWIDTH 1000 0
DWIDTH 24 0
BBX 20 10 2 4
BITMAP
3C03C0
630C60
C19830
80F000
806000
806000
80F000
C19830
630C60
3C03C0
ENDCHAR
STARTCHAR 221E
ENCODING 8734
SWIDTH 1000 0
DWIDTH 24 0
BBX 20 10 2 4
BITMAP
3C03C0
630C60
C19830
80F010
806010
806010
80F010
C19830
630C60
3C03C0
ENDCHAR
STARTCHAR 221F
ENCODING 8735
SWIDTH 1000 0
DWIDTH 24 0
BBX 19 19 3 0
BITMAP
800000
800000
800000
800000
800000
800000
800000
800000
800000
800000
800000
800000
800000
800000
800000
800000
800000
800000
FFFFE0
ENDCHAR
STARTCHAR 2220
ENCODING 8736
SWIDTH 1000 0
DWIDTH 24 0
BBX 20 19 2 0
BITMAP
000010
000020
000040
000080
000100
000200
000400
000800
001000
006000
00C000
018000
030000
060000
0C0000
180000
300000
600000
FFFFF0
ENDCHAR
STARTCHAR 2225
ENCODING 8741
SWIDTH 1000 0
DWIDTH 24 0
BBX 12 22 6 -2
BITMAP
0110
0120
0120
0220
0240
0240
0440
0480
0480
0880
0900
1900
1100
1200
3200
2200
2400
6400
4400
4800
C800
8800
ENDCHAR
STARTCHAR 2226
ENCODING 8742
SWIDTH 500 0
DWIDTH 12 0
BBX 10 22 1 -2
BITMAP
0240
0640
0440
0480
0480
8880
C980
6900
3900
1100
1A00
1600
2200
2500
2480
44C0
4400
4800
C800
8800
9000
9000
ENDCHAR
STARTCHAR 2227
ENCODING 8743
SWIDTH 1000 0
DWIDTH 24 0
BBX 22 20 1 -1
BITMAP
002000
003000
003000
004800
004800
008400
008400
010200
010200
020100
060100
040080
0C00C0
080040
180060
100020
300030
200010
400008
C0000C
ENDCHAR
STARTCHAR 2228
ENCODING 8744
SWIDTH 1000 0
DWIDTH 24 0
BBX 22 20 1 -1
BITMAP
C0000C
400008
200010
300030
100020
180060
080040
0C00C0
040080
020180
020100
010200
010200
008400
008400
004800
004800
003000
003000
002000
ENDCHAR
STARTCHAR 2229
ENCODING 8745
SWIDTH 1000 0
DWIDTH 24 0
BBX 16 18 4 0
BITMAP
07E0
1818
300C
6002
4002
8001
8001
8001
8001
8001
8001
8001
8001
8001
8001
8001
8001
8001
ENDCHAR
STARTCHAR 222A
ENCODING 8746
SWIDTH 1000 0
DWIDTH 24 0
BBX 16 18 4 0
BITMAP
8001
8001
8001
8001
8001
8001
8001
8001
8001
8001
8001
8001
8001
4002
6006
300C
1818
07E0
ENDCHAR
STARTCHAR 222B
ENCODING 8747
SWIDTH 1000 0
DWIDTH 24 0
BBX 12 22 6 -2
BITMAP
00E0
0110
0330
0200
0200
0200
0200
0600
0600
0600
0600
0600
0600
0600
0600
0400
0400
0400
C400
CC00
8800
7000
ENDCHAR
STARTCHAR 222C
ENCODING 8748
SWIDTH 1000 0
DWIDTH 24 0
BBX 20 22 2 -2
BITMAP
00E0E0
019130
013330
030200
020200
020600
020600
020600
020600
060600
060600
060600
060400
060400
060400
060400
040400
040400
C4CC00
CCC800
C89800
707000
ENDCHAR
STARTCHAR 222E
ENCODING 8750
SWIDTH 1000 0
DWIDTH 24 0
BBX 12 22 6 -2
BITMAP
00E0
0110
0330
0200
0200
0200
0200
0600
0F00
1680
2680
2680
1680
0F00
0600
0400
0400
0400
C400
C800
8800
7000
ENDCHAR
STARTCHAR 2234
ENCODING 8756
SWIDTH 1000 0
DWIDTH 24 0
BBX 16 15 4 2
BITMAP
0180
03C0
0180
0000
0000
0000
0000
0000
0000
0000
0000
0000
6006
E007
6006
ENDCHAR
STARTCHAR 2235
ENCODING 8757
SWIDTH 1000 0
DWIDTH 24 0
BBX 16 15 4 2
BITMAP
6006
E007
6006
0000
0000
0000
0000
0000
0000
0000
0000
0000
0180
03C0
0180
ENDCHAR
STARTCHAR 223D
ENCODING 8765
SWIDTH 1000 0
DWIDTH 24 0
BBX 20 10 2 4
BITMAP
3C03C0
620C60
C01830
803010
802010
804010
80C010
C18030
630460
3C03C0
ENDCHAR
STARTCHAR 2243
ENCODING 8771
SWIDTH 500 0
DWIDTH 12 0
BBX 10 8 1 6
BITMAP
3000
4C40
8780
0000
0000
0000
0000
FFC0
ENDCHAR
STARTCHAR 2245
ENCODING 8773
SWIDTH 500 0
DWIDTH 12 0
BBX 10 10 1 4
BITMAP
3040
CC80
0700
0000
0000
FFC0
0000
0000
0000
FFC0
ENDCHAR
STARTCHAR 2248
ENCODING 8776
SWIDTH 500 0
DWIDTH 12 0
BBX 10 7 1 6
BITMAP
3040
CC80
0700
0000
3000
4C40
8780
ENDCHAR
STARTCHAR 2252
ENCODING 8786
SWIDTH 1000 0
DWIDTH 24 0
BBX 16 15 4 2
BITMAP
1800
3800
1800
0000
0000
FFFF
0000
0000
0000
FFFF
0000
0000
0018
001C
0018
ENDCHAR
STARTCHAR 2260
ENCODING 8800
SWIDTH 1000 0
DWIDTH 24 0
BBX 16 16 4 1
BITMAP
0018
0010
0020
0020
0040
FFFF
0080
0080
0100
0100
FFFF
0200
0400
0400
0800
1800
ENDCHAR
STARTCHAR 2261
ENCODING 8801
SWIDTH 1000 0
DWIDTH 24 0
BBX 16 12 4 3
BITMAP
FFFF
0000
0000
0000
0000
FFFF
0000
0000
0000
0000
0000
FFFF
ENDCHAR
STARTCHAR 2262
ENCODING 8802
SWIDTH 500 0
DWIDTH 12 0
BBX 10 16 1 1
BITMAP
0100
0100
0100
FFC0
0200
0400
0400
FFC0
0800
0800
1800
1000
FFC0
2000
2000
2000
ENDCHAR
STARTCHAR 2266
ENCODING 8806
SWIDTH 1000 0
DWIDTH 24 0
BBX 18 19 3 0
BITMAP
0000C0
000780
001C00
00E000
070000
380000
F00000
0E0000
038000
007000
000E00
0001C0
000000
000000
FFFFC0
000000
000000
000000
FFFFC0
ENDCHAR
STARTCHAR 2267
ENCODING 8807
SWIDTH 1000 0
DWIDTH 24 0
BBX 18 19 3 0
BITMAP
C00000
780000
0E0000
01C000
003800
000700
0003C0
001C00
007000
038000
1C0000
E00000
000000
000000
FFFFC0
000000
000000
000000
FFFFC0
ENDCHAR
STARTCHAR 226A
ENCODING 8810
SWIDTH 1000 0
DWIDTH 24 0
BBX 20 21 2 -1
BITMAP
000C70
0018C0
002180
00C300
018400
031800
063000
086000
308000
630000
C60000
610000
308000
086000
063000
031800
018400
00C200
002180
0018C0
000C70
ENDCHAR
STARTCHAR 226B
ENCODING 8811
SWIDTH 1000 0
DWIDTH 24 0
BBX 20 21 2 -1
BITMAP
E30000
318000
184000
043000
021800
018C00
00C600
006100
0010C0
000C60
000630
000C60
0010C0
006100
00C600
018C00
021800
043000
184000
318000
E30000
ENDCHAR
STARTCHAR 2276
ENCODING 8822
SWIDTH 500 0
DWIDTH 12 0
BBX 10 17 1 1
BITMAP
0040
00C0
0300
0C00
3000
E000
3800
0E00
C380
30C0
0C00
0300
00C0
0300
0C00
7000
C000
ENDCHAR
STARTCHAR 2277
ENCODING 8823
SWIDTH 500 0
DWIDTH 12 0
BBX 10 17 1 1
BITMAP
8000
C000
3000
0C00
0300
01C0
0700
1C00
70C0
C300
0C00
3000
C000
3000
0C00
0380
00C0
ENDCHAR
STARTCHAR 2282
ENCODING 8834
SWIDTH 1000 0
DWIDTH 24 0
BBX 18 17 3 1
BITMAP
03FFC0
0C0000
300000
600000
400000
C00000
800000
800000
800000
800000
800000
C00000
400000
600000
300000
0C0000
03FFC0
ENDCHAR
STARTCHAR 2283
ENCODING 8835
SWIDTH 1000 0
DWIDTH 24 0
BBX 18 17 3 1
BITMAP
FFF000
000C00
000300
000100
000080
0000C0
000040
000040
000040
000040
000040
0000C0
000080
000180
000300
000C00
FFF000
ENDCHAR
STARTCHAR 2284
ENCODING 8836
SWIDTH 500 0
DWIDTH 12 0
BBX 9 17 1 1
BITMAP
0100
0100
0F80
1A00
2200
4200
4600
8400
8400
8400
8400
C800
4800
6800
3800
1F80
1000
ENDCHAR
STARTCHAR 2285
ENCODING 8837
SWIDTH 500 0
DWIDTH 12 0
BBX 9 16 2 1
BITMAP
0400
FC00
0E00
0B00
0900
0900
1080
1080
1080
1080
3100
2100
2200
2C00
F800
4000
ENDCHAR
STARTCHAR 2286
ENCODING 8838
SWIDTH 1000 0
DWIDTH 24 0
BBX 18 18 3 0
BITMAP
0FFFC0
300000
600000
400000
800000
800000
800000
800000
800000
400000
600000
300000
0FFFC0
000000
000000
000000
000000
FFFFC0
ENDCHAR
STARTCHAR 2287
ENCODING 8839
SWIDTH 1000 0
DWIDTH 24 0
BBX 18 18 3 0
BITMAP
FFFC00
000300
000180
000080
000040
000040
000040
000040
000040
000080
000180
000300
FFFC00
000000
000000
000000
000000
FFFFC0
ENDCHAR
STARTCHAR 228A
ENCODING 8842
SWIDTH 500 0
DWIDTH 12 0
BBX 9 17 1 0
BITMAP
1F80
3000
6000
4000
C000
8000
8000
8000
4000
6000
3000
1F80
0000
0400
0400
7F80
0800
ENDCHAR
STARTCHAR 228B
ENCODING 8843
SWIDTH 500 0
DWIDTH 12 0
BBX 9 17 2 0
BITMAP
FC00
0600
0300
0100
0180
0080
0080
0180
0100
0300
0600
FC00
0000
0800
0800
FF00
1000
ENDCHAR
STARTCHAR 2295
ENCODING 8853
SWIDTH 500 0
DWIDTH 12 0
BBX 10 11 1 4
BITMAP
1E00
6180
8880
8840
8840
FFC0
8840
8840
C880
6180
1E00
ENDCHAR
STARTCHAR 2296
ENCODING 8854
SWIDTH 500 0
DWIDTH 12 0
BBX 10 11 1 4
BITMAP
1E00
6180
8080
8040
8040
FFC0
8040
8040
8080
6180
1E00
ENDCHAR
STARTCHAR 2297
ENCODING 8855
SWIDTH 500 0
DWIDTH 12 0
BBX 10 11 1 4
BITMAP
1E00
6180
A280
B340
9E40
8C40
9E40
B340
A280
6180
1E00
ENDCHAR
STARTCHAR 22A5
ENCODING 8869
SWIDTH 1000 0
DWIDTH 24 0
BBX 20 19 2 0
BITMAP
006000
006000
006000
006000
006000
006000
006000
006000
006000
006000
006000
006000
006000
006000
006000
006000
006000
006000
FFFFF0
ENDCHAR
STARTCHAR 22BF
ENCODING 8895
SWIDTH 1000 0
DWIDTH 24 0
BBX 19 19 2 0
BITMAP
000020
000020
000060
0000A0
000120
000220
000420
000820
001020
002020
004020
008020
010020
020020
040020
080020
100020
200020
FFFFE0
ENDCHAR
STARTCHAR 22DA
ENCODING 8922
SWIDTH 500 0
DWIDTH 12 0
BBX 10 19 1 0
BITMAP
0040
0180
0E00
3000
E000
1C00
0700
00C0
0000
FFC0
0000
C000
3800
0E00
0180
0340
1C00
6000
8000
ENDCHAR
STARTCHAR 22DB
ENCODING 8923
SWIDTH 500 0
DWIDTH 12 0
BBX 10 19 1 0
BITMAP
8000
6000
1C00
0300
01C0
0E00
3800
C000
0000
FFC0
0000
00C0
0700
1C00
6000
B000
0E00
0180
0040
ENDCHAR
STARTCHAR 2305
ENCODING 8965
SWIDTH 500 0
DWIDTH 12 0
BBX 10 10 1 3
BITMAP
FFC0
0800
0C00
0C00
1200
1200
2100
2100
4080
C0C0
ENDCHAR
STARTCHAR 2306
ENCODING 8966
SWIDTH 500 0
DWIDTH 12 0
BBX 10 13 1 2
BITMAP
FFC0
0000
0000
FFC0
0800
0C00
0C00
1200
1200
2100
2100
4080
C0C0
ENDCHAR
STARTCHAR 2312
ENCODING 8978
SWIDTH 1000 0
DWIDTH 24 0
BBX 22 5 1 14
BITMAP
01FE00
1E01C0
300030
C0000C
800004
ENDCHAR
STARTCHAR 2318
ENCODING 8984
SWIDTH 1000 0
DWIDTH 24 0
BBX 22 22 1 -2
BITMAP
380070
440088
840084
820104
820104
420108
3FFFF0
020100
020100
020100
020100
020100
020100
020100
020100
3FFFF0
420108
820104
820104
840084
440088
380070
ENDCHAR
STARTCHAR 23BE
ENCODING 9150
SWIDTH 1000 0
DWIDTH 24 0
BBX 12 24 12 -3
BITMAP
FFF0
8000
8000
8000
8000
8000
8000
8000
8000
8000
8000
8000
8000
8000
8000
8000
8000
8000
8000
8000
8000
8000
8000
8000
ENDCHAR
STARTCHAR 23BF
ENCODING 9151
SWIDTH 1000 0
DWIDTH 24 0
BBX 12 24 12 -3
BITMAP
8000
8000
8000
8000
8000
8000
8000
8000
8000
8000
8000
8000
8000
8000
8000
8000
8000
8000
8000
8000
8000
8000
8000
FFF0
ENDCHAR
STARTCHAR 23C0
ENCODING 9152
SWIDTH 1000 0
DWIDTH 24 0
BBX 18 24 3 -3
BITMAP
008000
008000
008000
03F000
0C8C00
108200
208100
408080
408080
808040
808040
808040
808040
808040
808040
408080
408080
208100
108200
0C8C00
03F000
008000
008000
008000
ENDCHAR
STARTCHAR 23C1
ENCODING 9153
SWIDTH 1000 0
DWIDTH 24 0
BBX 24 24 0 -3
BITMAP
FFFFFF
001000
001000
007E00
019180
021040
041020
081010
081010
101008
101008
101008
101008
101008
101008
081010
081010
041020
021040
019180
007E00
001000
001000
001000
ENDCHAR
STARTCHAR 23C2
ENCODING 9154
SWIDTH 1000 0
DWIDTH 24 0
BBX 24 24 0 -3
BITMAP
001000
001000
001000
007E00
019180
021040
041020
081010
081010
101008
101008
101008
101008
101008
101008
081010
081010
041020
021040
019180
007E00
001000
001000
FFFFFF
ENDCHAR
STARTCHAR 23C3
ENCODING 9155
SWIDTH 1000 0
DWIDTH 24 0
BBX 20 24 2 -3
BITMAP
002000
002000
002000
006000
006000
00B000
00B000
012800
032C00
022400
042200
042200
082100
082100
102080
202040
202040
402020
402020
FFFFF0
002000
002000
002000
002000
ENDCHAR
STARTCHAR 23C4
ENCODING 9156
SWIDTH 1000 0
DWIDTH 24 0
BBX 24 24 0 -3
BITMAP
FFFFFF
001000
001000
001800
001800
003400
003400
005200
00D300
009100
011080
011080
021040
021040
041020
081010
081010
101008
101008
3FFFFC
001000
001000
001000
001000
ENDCHAR
STARTCHAR 23C5
ENCODING 9157
SWIDTH 1000 0
DWIDTH 24 0
BBX 24 24 0 -3
BITMAP
001000
001000
001000
001800
001800
003400
003400
005200
00D300
009100
011080
011080
021040
061040
041020
081010
081010
101008
101008
3FFFFC
001000
001000
001000
FFFFFF
ENDCHAR
STARTCHAR 23C6
ENCODING 9158
SWIDTH 1000 0
DWIDTH 24 0
BBX 22 24 1 -3
BITMAP
002000
002000
002000
002000
002000
002000
002000
002000
002000
1E2000
61A000
806000
001808
002E1C
0023E0
002000
002000
002000
002000
002000
002000
002000
002000
002000
ENDCHAR
STARTCHAR 23C7
ENCODING 9159
SWIDTH 1000 0
DWIDTH 24 0
BBX 24 24 0 -3
BITMAP
FFFFFF
001000
001000
001000
001000
001000
001000
001000
001000
0F1000
30D000
403000
000C04
00170E
0011F0
001000
001000
001000
001000
001000
001000
001000
001000
001000
ENDCHAR
STARTCHAR 23C8
ENCODING 9160
SWIDTH 1000 0
DWIDTH 24 0
BBX 24 24 0 -3
BITMAP
001000
001000
001000
001000
001000
001000
001000
001000
001000
0F1000
30F000
403000
000C04
00170E
0011F0
001000
001000
001000
001000
001000
001000
001000
001000
FFFFFF
ENDCHAR
STARTCHAR 23C9
ENCODING 9161
SWIDTH 1000 0
DWIDTH 24 0
BBX 24 24 0 -3
BITMAP
FFFFFF
001000
001000
001000
001000
001000
001000
001000
001000
001000
001000
001000
001000
001000
001000
001000
001000
001000
001000
001000
001000
001000
001000
001000
ENDCHAR
STARTCHAR 23CA
ENCODING 9162
SWIDTH 1000 0
DWIDTH 24 0
BBX 24 24 0 -3
BITMAP
001000
001000
001000
001000
001000
001000
001000
001000
001000
001000
001000
001000
001000
001000
001000
001000
001000
001000
001000
001000
001000
001000
001000
FFFFFF
ENDCHAR
STARTCHAR 23CB
ENCODING 9163
SWIDTH 1000 0
DWIDTH 24 0
BBX 12 24 0 -3
BITMAP
FFF0
0010
0010
0010
0010
0010
0010
0010
0010
0010
0010
0010
0010
0010
0010
0010
0010
0010
0010
0010
0010
0010
0010
0010
ENDCHAR
STARTCHAR 23CC
ENCODING 9164
SWIDTH 1000 0
DWIDTH 24 0
BBX 12 24 0 -3
BITMAP
0010
0010
0010
0010
0010
0010
0010
0010
0010
0010
0010
0010
0010
0010
0010
0010
0010
0010
0010
0010
0010
0010
0010
FFF0
ENDCHAR
STARTCHAR 23CE
ENCODING 9166
SWIDTH 1000 0
DWIDTH 24 0
BBX 21 21 1 -2
BITMAP
0007F8
000408
000408
000408
000408
000408
010408
010408
030408
050408
19FC08
300008
600010
C00010
600010
100020
09FFC0
050000
030000
010000
010000
ENDCHAR
STARTCHAR 2423
ENCODING 9251
SWIDTH 1000 0
DWIDTH 24 0
BBX 18 5 3 0
BITMAP
800040
800040
800040
800040
FFFFC0
ENDCHAR
STARTCHAR 2460
ENCODING 9312
SWIDTH 1000 0
DWIDTH 24 0
BBX 22 22 1 -2
BITMAP
00FC00
030300
0C00C0
101020
20F010
403010
403008
803008
803004
803004
803004
803004
803004
803004
403008
403008
203010
20FC10
100020
0C00C0
030300
00FC00
ENDCHAR
STARTCHAR 2461
ENCODING 9313
SWIDTH 1000 0
DWIDTH 24 0
BBX 22 22 1 -2
BITMAP
00FC00
030300
0C0080
100060
207810
218610
410208
438308
818204
800604
800404
800C04
801004
802004
804108
408108
410110
23FF10
100020
0C00C0
030300
00FC00
ENDCHAR
STARTCHAR 2462
ENCODING 9314
SWIDTH 1000 0
DWIDTH 24 0
BBX 22 22 1 -2
BITMAP
00FC00
070300
0800C0
107820
208610
410210
418308
818308
800204
800C04
807004
800E04
800304
800304
430308
430308
210610
20FC10
100020
0C00C0
030300
00FC00
ENDCHAR
STARTCHAR 2463
ENCODING 9315
SWIDTH 1000 0
DWIDTH 24 0
BBX 22 22 1 -2
BITMAP
01FE00
060380
0800C0
100820
201810
402818
402808
804808
808804
810804
810804
820804
840804
87FF04
400808
400808
200810
203E10
100020
0C00C0
030300
00FC00
ENDCHAR
STARTCHAR 2464
ENCODING 9316
SWIDTH 1000 0
DWIDTH 24 0
BBX 22 22 1 -2
BITMAP
00FC00
030300
040080
180060
21FE20
210010
410008
410008
810008
817C04
818604
810304
800304
800304
430308
438208
210610
20F810
100020
0C00C0
030300
00FC00
ENDCHAR
STARTCHAR 2465
ENCODING 9317
SWIDTH 1000 0
DWIDTH 24 0
BBX 22 22 1 -2
BITMAP
00FC00
030300
0C00C0
103C20
20C610
408610
418608
810008
830004
837C04
838604
830204
830304
830304
410308
418208
20C610
207810
100020
0C00C0
030300
00FC00
ENDCHAR
STARTCHAR 2466
ENCODING 9318
SWIDTH 1000 0
DWIDTH 24 0
BBX 22 22 1 -2
BITMAP
00FC00
030300
0C00C0
100020
21FF10
210210
410208
820408
820404
800804
800804
801804
801004
801004
403008
403008
203010
203030
180060
0C00C0
030300
00FC00
ENDCHAR
STARTCHAR 2467
ENCODING 9319
SWIDTH 1000 0
DWIDTH 24 0
BBX 22 22 1 -2
BITMAP
00FC00
030300
0C00C0
107820
218610
410210
410208
810208
818604
80CC04
803004
80CC04
810604
820304
420308
420308
210210
20FC10
100020
0C00C0
030300
00FC00
ENDCHAR
STARTCHAR 2468
ENCODING 9320
SWIDTH 1000 0
DWIDTH 24 0
BBX 22 22 1 -2
BITMAP
00FC00
030300
0C00C0
107820
20C410
418610
410208
830308
830304
830304
810304
818704
807B04
800304
418208
418608
218C10
20F810
100020
0C00C0
030300
00FC00
ENDCHAR
STARTCHAR 2469
ENCODING 9321
SWIDTH 1000 0
DWIDTH 24 0
BBX 22 22 1 -2
BITMAP
00FC00
030300
0C00C0
100020
230F10
2F0990
431088
431088
8330C4
8330C4
8330C4
8330C4
8330C4
8310C4
831088
431088
230990
2F8F10
100020
0C00C0
030300
00FC00
ENDCHAR
STARTCHAR 246A
ENCODING 9322
SWIDTH 1000 0
DWIDTH 24 0
BBX 22 22 1 -2
BITMAP
00FC00
030300
0C00C0
100020
230310
2F0710
430308
430308
830304
830304
830304
830304
830304
830304
830308
430308
230310
2F87D0
100020
0C00C0
030300
00FC00
ENDCHAR
STARTCHAR 246B
ENCODING 9323
SWIDTH 1000 0
DWIDTH 24 0
BBX 22 22 1 -2
BITMAP
00FC00
030300
040080
180040
110F20
2F1190
433088
431888
830088
830184
830104
830304
830204
830404
830848
431048
4310D0
27BFD0
180020
0C00C0
030300
00FC00
ENDCHAR
STARTCHAR 246C
ENCODING 9324
SWIDTH 1000 0
DWIDTH 24 0
BBX 22 22 1 -2
BITMAP
00FC00
070380
0800C0
100020
2F0F10
431190
433088
831088
830084
830104
830E04
830184
830084
8300C4
4330C8
433088
231190
2F8F10
100020
0C00C0
030300
00FC00
ENDCHAR
STARTCHAR 246D
ENCODING 9325
SWIDTH 1000 0
DWIDTH 24 0
BBX 22 22 1 -2
BITMAP
00FC00
030300
0C00C0
100020
230310
2F0310
430708
430708
830B04
831304
831304
832304
832304
837FC4
430308
430308
230310
2F8790
100020
0C00C0
030300
00FC00
ENDCHAR
STARTCHAR 246E
ENCODING 9326
SWIDTH 1000 0
DWIDTH 24 0
BBX 22 22 1 -2
BITMAP
00FC00
030300
0C00C0
100020
2E1F90
221010
421008
821008
821004
821F04
821184
8200C4
8200C4
8200C4
8230C8
423088
231190
2F8F10
100020
0C00C0
030300
00FC00
ENDCHAR
STARTCHAR 246F
ENCODING 9327
SWIDTH 1000 0
DWIDTH 24 0
BBX 22 22 1 -2
BITMAP
00FC00
030300
0C00C0
100020
220710
2E0890
421988
421008
821004
823704
823984
8230C4
8230C4
8230C4
8230C8
421088
231990
2F8F10
100020
0C00C0
030300
00FC00
ENDCHAR
STARTCHAR 2470
ENCODING 9328
SWIDTH 1000 0
DWIDTH 24 0
BBX 22 22 1 -2
BITMAP
00FC00
030300
0C00C0
100020
273FD0
2B3090
432088
832108
830104
830104
830204
830204
830204
830604
830608
430608
230610
2F8410
100020
0C00C0
030300
00FC00
ENDCHAR
STARTCHAR 2471
ENCODING 9329
SWIDTH 1000 0
DWIDTH 24 0
BBX 22 22 1 -2
BITMAP
00FC00
030300
0C00C0
100020
230F10
2F1990
431088
431088
831084
830904
830604
830B04
831184
8320C4
8320C8
4330C8
231090
2F8F10
100020
0C00C0
030300
00FC00
ENDCHAR
STARTCHAR 2472
ENCODING 9330
SWIDTH 1000 0
DWIDTH 24 0
BBX 22 22 1 -2
BITMAP
00FC00
030300
0C00C0
100020
230F10
2F1990
431088
433088
8330C4
8330C4
8330C4
8319C4
830EC4
830084
830088
431188
233910
2F9E10
100020
0C00C0
030300
00FC00
ENDCHAR
STARTCHAR 2473
ENCODING 9331
SWIDTH 1000 0
DWIDTH 24 0
BBX 22 22 1 -2
BITMAP
00FC00
030300
040080
180040
1783A0
2CC490
4C4CC8
4C4C48
804848
80C844
808844
818844
810844
820844
844848
444CC8
484490
2FC390
100020
0C00C0
030300
00FC00
ENDCHAR
STARTCHAR 24D0
ENCODING 9424
SWIDTH 1000 0
DWIDTH 24 0
BBX 22 22 1 -2
BITMAP
00FC00
030300
0C00C0
100020
200010
400010
407808
818C08
818404
800404
807C04
808404
810404
810404
418D88
40F708
200010
200010
100020
0C00C0
030300
00FC00
ENDCHAR
STARTCHAR 24D1
ENCODING 9425
SWIDTH 1000 0
DWIDTH 24 0
BBX 22 22 1 -2
BITMAP
00FC00
030300
0C00C0
108020
238010
408010
408008
808008
80BC04
80C604
808304
808104
808104
808104
408308
408608
20FC10
200010
100020
0C00C0
030300
00FC00
ENDCHAR
STARTCHAR 24D2
ENCODING 9426
SWIDTH 1000 0
DWIDTH 24 0
BBX 22 22 1 -2
BITMAP
00FC00
030300
0C00C0
100020
200010
400010
407808
80C408
818604
810004
810004
810004
810004
818204
40C408
407808
200010
200010
100020
0C00C0
030300
00FC00
ENDCHAR
STARTCHAR 24D3
ENCODING 9427
SWIDTH 1000 0
DWIDTH 24 0
BBX 22 22 1 -2
BITMAP
00FC00
030300
0C00C0
100420
201C10
400410
400408
800408
80F404
818C04
830404
820404
820404
820404
430408
418C08
20F610
200110
100020
0C00C0
030300
00FC00
ENDCHAR
STARTCHAR 24D4
ENCODING 9428
SWIDTH 1000 0
DWIDTH 24 0
BBX 22 22 1 -2
BITMAP
00FC00
030300
0C00C0
100020
200010
200010
407808
408408
810604
810204
83FE04
830004
810004
818204
80C608
407808
400010
200010
100020
0C0040
030180
00FE00
ENDCHAR
STARTCHAR 24D5
ENCODING 9429
SWIDTH 1000 0
DWIDTH 24 0
BBX 22 22 1 -2
BITMAP
00FC00
070380
0800C0
101C20
203610
402610
402008
802008
81FC04
802004
802004
802004
802004
802004
802008
402008
402010
20F010
100020
0C0040
030180
00FE00
ENDCHAR
STARTCHAR 24D6
ENCODING 9430
SWIDTH 1000 0
DWIDTH 24 0
BBX 22 22 1 -2
BITMAP
00FC00
030300
0C00C0
100020
200010
40FF10
408508
810408
818404
808C04
80F804
818004
80FC04
810704
430308
418208
20FC10
200010
100020
0C00C0
030300
00FC00
ENDCHAR
STARTCHAR 24D7
ENCODING 9431
SWIDTH 1000 0
DWIDTH 24 0
BBX 22 22 1 -2
BITMAP
00FC00
030300
040080
080040
108020
238010
408008
408008
80BC08
80C604
808204
808204
808204
808204
808208
408208
408210
23C790
100020
0C0040
030180
00FE00
ENDCHAR
STARTCHAR 24D8
ENCODING 9432
SWIDTH 1000 0
DWIDTH 24 0
BBX 22 22 1 -2
BITMAP
00FC00
030300
040080
080040
103020
203010
400008
400008
801008
807004
803004
803004
803004
803004
803008
403008
403010
207810
100020
0C0040
030180
00FE00
ENDCHAR
STARTCHAR 24D9
ENCODING 9433
SWIDTH 1000 0
DWIDTH 24 0
BBX 22 22 1 -2
BITMAP
00FC00
030300
0C00C0
101820
201810
400010
400008
803808
801804
801804
801804
801804
801804
801804
401808
401808
219010
219010
10E020
0C00C0
030300
00FC00
ENDCHAR
STARTCHAR 24DA
ENCODING 9434
SWIDTH 1000 0
DWIDTH 24 0
BBX 22 22 1 -2
BITMAP
00FC00
030300
0C00C0
108020
238010
408010
408008
808008
808F04
808404
808804
80B004
80D004
808804
408408
408608
23EF90
200030
180060
0C00C0
030300
00FC00
ENDCHAR
STARTCHAR 24DB
ENCODING 9435
SWIDTH 1000 0
DWIDTH 24 0
BBX 22 22 1 -2
BITMAP
00FC00
030300
040080
080040
103020
207010
403008
403008
803008
803004
803004
803004
803004
803004
803008
403008
403010
207810
100020
0C0040
030180
00FE00
ENDCHAR
STARTCHAR 24DC
ENCODING 9436
SWIDTH 1000 0
DWIDTH 24 0
BBX 22 21 1 -1
BITMAP
01FE00
060380
0800C0
100020
200010
42E718
4F2888
861088
861084
861084
861084
861084
861084
861088
4F79E8
400010
200010
100020
0C0040
030180
00FE00
ENDCHAR
STARTCHAR 24DD
ENCODING 9437
SWIDTH 1000 0
DWIDTH 24 0
BBX 22 21 1 -1
BITMAP
01FE00
060380
0800C0
100020
200010
40BC18
43C608
808208
808204
808204
808204
808204
808204
808208
43CF88
400010
200010
100020
0C0040
030180
00FE00
ENDCHAR
STARTCHAR 24DE
ENCODING 9438
SWIDTH 1000 0
DWIDTH 24 0
BBX 22 22 1 -2
BITMAP
00FC00
030300
0C00C0
100020
200010
400010
407808
808408
818604
810204
830304
830304
810204
818604
408408
407808
200010
200010
100020
0C00C0
030300
00FC00
ENDCHAR
STARTCHAR 24DF
ENCODING 9439
SWIDTH 1000 0
DWIDTH 24 0
BBX 22 22 1 -2
BITMAP
00FC00
030300
040080
180040
100020
208010
43BC08
40C308
808108
808104
808104
808304
80C304
80BC04
808008
408008
408010
23E010
100020
0C0040
030180
00FE00
ENDCHAR
STARTCHAR 24E0
ENCODING 9440
SWIDTH 1000 0
DWIDTH 24 0
BBX 22 22 1 -2
BITMAP
00FC00
030300
040080
180040
100020
200410
40FC08
430408
820408
820404
820404
820404
830C04
80F404
800408
400408
400410
201F10
100020
0C0040
030180
00FE00
ENDCHAR
STARTCHAR 24E1
ENCODING 9441
SWIDTH 1000 0
DWIDTH 24 0
BBX 22 22 1 -2
BITMAP
00FC00
030300
040080
080040
100020
200010
404E08
40D308
806208
806004
806004
806004
806004
806004
806008
40F008
400010
200010
100020
0C0040
030180
00FE00
ENDCHAR
STARTCHAR 24E2
ENCODING 9442
SWIDTH 1000 0
DWIDTH 24 0
BBX 22 22 1 -2
BITMAP
00FC00
030300
0C00C0
100020
200010
400010
407A08
808608
808204
808004
807004
800C04
810604
810204
41C608
417C08
200010
200010
100020
0C00C0
030300
00FC00
ENDCHAR
STARTCHAR 24E3
ENCODING 9443
SWIDTH 1000 0
DWIDTH 24 0
BBX 22 22 1 -2
BITMAP
00FC00
070380
0800C0
100020
202010
402010
406008
81FC08
806004
806004
806004
806004
806004
806004
806008
406608
203810
200010
100020
0C00C0
030300
00FC00
ENDCHAR
STARTCHAR 24E4
ENCODING 9444
SWIDTH 1000 0
DWIDTH 24 0
BBX 22 22 1 -2
BITMAP
00FC00
030300
0C00C0
100020
200010
400010
430E08
810608
810204
810204
810204
810204
810204
818604
408A08
407308
200010
200010
100020
0C00C0
030300
00FC00
ENDCHAR
STARTCHAR 24E5
ENCODING 9445
SWIDTH 1000 0
DWIDTH 24 0
BBX 22 22 1 -2
BITMAP
00FC00
030300
040080
180060
200020
200010
400008
47C788
810208
818204
808404
80C404
804804
806804
803008
403008
402010
200010
100020
0C0040
030380
00FC00
ENDCHAR
STARTCHAR 24E6
ENCODING 9446
SWIDTH 1000 0
DWIDTH 24 0
BBX 22 22 1 -2
BITMAP
00FC00
030300
0C0080
100060
200010
200010
400008
4F79E8
861084
821084
823904
832904
814D04
81C604
81C608
408408
408410
200010
100020
0C0040
030380
00FC00
ENDCHAR
STARTCHAR 24E7
ENCODING 9447
SWIDTH 1000 0
DWIDTH 24 0
BBX 22 21 1 -1
BITMAP
00FC00
070380
0800C0
100020
200010
400018
47CF08
808408
804804
803004
803004
804804
808C04
810608
47CF88
400010
200010
100020
0C0040
030180
00FE00
ENDCHAR
STARTCHAR 24E8
ENCODING 9448
SWIDTH 1000 0
DWIDTH 24 0
BBX 22 22 1 -2
BITMAP
00FC00
030300
040080
080040
100020
200010
43E788
408208
80C208
804404
806404
802804
801804
801804
801008
401008
41A010
21C010
100020
0C0040
030180
00FE00
ENDCHAR
STARTCHAR 24E9
ENCODING 9449
SWIDTH 1000 0
DWIDTH 24 0
BBX 22 21 1 -1
BITMAP
00FC00
070380
0800C0
100020
200010
400018
41FE08
818408
810C04
811804
803004
802004
804204
80C208
418608
407810
200010
100020
0C0040
030180
00FE00
ENDCHAR
STARTCHAR 24EB
ENCODING 9451
SWIDTH 1000 0
DWIDTH 24 0
BBX 22 22 1 -2
BITMAP
00FC00
03FF00
0FFFC0
1FFFE0
3DFCF0
39FCF0
7DFEF8
7DFEF8
FDFEFC
FDFEFC
FDFEFC
FDFEFC
FDFEFC
FDFEFC
7DFEF8
7DFEF8
3DFEF0
307830
1FFFE0
0FFFC0
03FF00
00FC00
ENDCHAR
STARTCHAR 24EC
ENCODING 9452
SWIDTH 1000 0
DWIDTH 24 0
BBX 22 22 1 -2
BITMAP
00FC00
03FF00
07FF80
0FFFC0
1DF0E0
31E670
7DEF78
7DE738
FDFF78
FDFF7C
FDFE7C
FDFCFC
FDFDFC
FDFBFC
7DF7B8
7DF7B8
3DEFB0
386030
1FFFE0
0FFFC0
03FF00
00FC00
ENDCHAR
STARTCHAR 24ED
ENCODING 9453
SWIDTH 1000 0
DWIDTH 24 0
BBX 22 22 1 -2
BITMAP
00FC00
07FF80
0FFFC0
1FFFE0
31F6F0
7DEF70
7DE778
7DE778
FDFF7C
FDFE7C
FDF9FC
FDFE7C
FDFF3C
FDFF3C
7DEF38
7DCF38
3DEF70
3076F0
1FFFE0
0FFFC0
03FF00
00FC00
ENDCHAR
STARTCHAR 24EE
ENCODING 9454
SWIDTH 1000 0
DWIDTH 24 0
BBX 22 22 1 -2
BITMAP
00FC00
03FF00
0FFFC0
1FFFE0
39FEF0
39FCF0
7DFAF8
7DFAF8
FDF6FC
FDF6FC
FDEEFC
FDFEFC
FDDEFC
FDC03C
7DFEF8
7DFEF8
3DFEF0
307830
1FFFE0
0FFFC0
03FF00
00FC00
ENDCHAR
STARTCHAR 24EF
ENCODING 9455
SWIDTH 1000 0
DWIDTH 24 0
BBX 22 22 1 -2
BITMAP
00FC00
03FF00
0FFFC0
1FFFE0
31E070
3DEFF0
7DEFF8
7DEFF8
FDEFFC
FDE8FC
FDE67C
FDFF3C
FDFF3C
FDFFBC
7DEF38
7DCF38
3DEF70
3076F0
1FFFE0
0FFFC0
03FF00
00FC00
ENDCHAR
STARTCHAR 24F0
ENCODING 9456
SWIDTH 1000 0
DWIDTH 24 0
BBX 22 22 1 -2
BITMAP
00FC00
03FF00
0FFFC0
1FFFE0
39F870
39F370
7DE738
7DEFF8
FDEFFC
FDE8FC
FDF67C
FDEF3C
FDEF3C
FDEFBC
7DEF38
7DEF38
3DF770
307EF0
1FFFE0
0FFFC0
03FF00
00FC00
ENDCHAR
STARTCHAR 24F1
ENCODING 9457
SWIDTH 1000 0
DWIDTH 24 0
BBX 22 22 1 -2
BITMAP
00FC00
03FF00
0FFFC0
1FFFE0
31E030
3DEFF0
7DFF78
7DFF78
FDFEFC
FDFEFC
FDFCFC
FDFDFC
FDFDFC
FDFDFC
7DF9F8
7DF9F8
3DF9F0
3079F0
1FFFE0
0FFFC0
03FF00
00FC00
ENDCHAR
STARTCHAR 24F2
ENCODING 9458
SWIDTH 1000 0
DWIDTH 24 0
BBX 22 22 1 -2
BITMAP
00FC00
03FF00
0FFFC0
1FFFE0
3DF0F0
39E770
7DEF38
7DEF38
FDE77C
FDF2FC
FDF9FC
FDF4FC
FDEE7C
FDCF3C
7DDF38
7DCFB8
3DEF70
3077F0
1FFFE0
0FFFC0
03FF00
00FC00
ENDCHAR
STARTCHAR 24F3
ENCODING 9459
SWIDTH 1000 0
DWIDTH 24 0
BBX 22 22 1 -2
BITMAP
00FC00
03FF00
0FFFC0
1FFFE0
3DF0F0
39E670
7DEF78
7DEF38
FDCF3C
FDEF3C
FDEFBC
FDE73C
FDF13C
FDFF3C
7DFF78
7DE778
3DEEF0
3077F0
1FFFE0
0FFFC0
03FF00
00FC00
ENDCHAR
STARTCHAR 24F4
ENCODING 9460
SWIDTH 1000 0
DWIDTH 24 0
BBX 22 22 1 -2
BITMAP
00FC00
03FF00
07FF80
0FFFC0
187C60
373B30
77BBB8
73B3B8
FFB3B8
FF339C
FF739C
FEF39C
FEF39C
FDF3BC
7BF3B8
7BBBB8
37BBB0
303F70
1FFFE0
0FFFC0
03FF00
00FC00
ENDCHAR
STARTCHAR 24F5
ENCODING 9461
SWIDTH 1000 0
DWIDTH 24 0
BBX 22 22 1 -2
BITMAP
01FC00
06FF80
1B0340
2400A0
483050
50F028
A03018
A03014
C03014
C0300C
C0300C
C0300C
C03014
C03014
A03014
A03028
503048
48FC90
240120
130640
0CF880
03FF00
ENDCHAR
STARTCHAR 24F6
ENCODING 9462
SWIDTH 1000 0
DWIDTH 24 0
BBX 22 22 1 -2
BITMAP
00FC00
070380
0DFCC0
160320
2878D0
518628
610628
A18214
C18214
C0060C
C0040C
C00C0C
C0100C
C02014
A04114
A08128
510128
4BFF50
2401A0
130640
0CF880
03FF00
ENDCHAR
STARTCHAR 24F7
ENCODING 9463
SWIDTH 1000 0
DWIDTH 24 0
BBX 22 23 1 -2
BITMAP
00FC00
030300
0CFCC0
130320
247890
488650
510228
A18218
A18214
C00614
C00C0C
C0700C
C00E0C
C00314
C00314
A30314
A38328
518648
48FC90
240120
130640
0CF880
03FF00
ENDCHAR
STARTCHAR 24F8
ENCODING 9464
SWIDTH 1000 0
DWIDTH 24 0
BBX 22 22 1 -2
BITMAP
01FC00
06FF80
1B0340
2400A0
480850
501828
A02818
A04814
C04814
C0880C
C1080C
C2080C
C40814
C7FF14
A00814
A00828
500848
483E90
240120
130640
0CF880
03FF00
ENDCHAR
STARTCHAR 24F9
ENCODING 9465
SWIDTH 1000 0
DWIDTH 24 0
BBX 22 22 1 -2
BITMAP
01FC00
06FF80
1B0340
2400A0
49FE50
510028
A10018
A10014
C13C14
C1C60C
C1020C
C0030C
C00314
C00314
A18314
A30628
518C48
48F890
240120
130640
0CF880
03FF00
ENDCHAR
STARTCHAR 24FA
ENCODING 9466
SWIDTH 1000 0
DWIDTH 24 0
BBX 22 22 1 -2
BITMAP
01FC00
06FF80
1B0340
2400A0
483C50
50C628
A08618
A10014
C10014
C33C0C
C3C60C
C3020C
C30314
C30314
A10314
A18628
50C648
487890
240120
130640
0CF880
03FF00
ENDCHAR
STARTCHAR 24FB
ENCODING 9467
SWIDTH 1000 0
DWIDTH 24 0
BBX 22 23 1 -2
BITMAP
00FC00
030300
0CFCC0
130320
240090
49FF48
510228
A10218
A10414
C20414
C0080C
C0080C
C0180C
C01014
C01014
A03014
A03028
503048
483090
240120
130640
0CF880
03FF00
ENDCHAR
STARTCHAR 24FC
ENCODING 9468
SWIDTH 1000 0
DWIDTH 24 0
BBX 22 22 1 -2
BITMAP
01FC00
06FF80
1B0340
2400A0
487C50
518628
A10218
A10214
C18614
C0CC0C
C0700C
C08C0C
C10214
C20314
A20314
A30328
518648
48FC90
240120
130640
0CF880
03FF00
ENDCHAR
STARTCHAR 24FD
ENCODING 9469
SWIDTH 1000 0
DWIDTH 24 0
BBX 22 22 1 -2
BITMAP
01FC00
06FF80
1B0340
2400A0
487850
51C428
A18618
A10214
C30314
C1030C
C1830C
C1870C
C07B14
C00214
A18614
A18628
518C48
48F890
240120
130640
0CF880
03FF00
ENDCHAR
STARTCHAR 24FE
ENCODING 9470
SWIDTH 1000 0
DWIDTH 24 0
BBX 22 22 1 -2
BITMAP
00FC00
070380
0DFCC0
160320
290FD0
570928
6110A8
A11094
C11094
C130CC
C130CC
C130CC
C130CC
C110D4
A11094
A110A8
5109A8
4FCF50
2401A0
130640
0CF880
03FF00
ENDCHAR
STARTCHAR 2500
ENCODING 9472
SWIDTH 1000 0
DWIDTH 24 0
BBX 24 1 0 9
BITMAP
FFFFFF
ENDCHAR
STARTCHAR 2501
ENCODING 9473
SWIDTH 1000 0
DWIDTH 24 0
BBX 24 3 0 8
BITMAP
FFFFFF
FFFFFF
FFFFFF
ENDCHAR
STARTCHAR 2502
ENCODING 9474
SWIDTH 1000 0
DWIDTH 24 0
BBX 1 24 11 -3
BITMAP
80
80
80
80
80
80
80
80
80
80
80
80
80
80
80
80
80
80
80
80
80
80
80
80
ENDCHAR
STARTCHAR 2503
ENCODING 9475
SWIDTH 1000 0
DWIDTH 24 0
BBX 2 24 11 -3
BITMAP
C0
C0
C0
C0
C0
C0
C0
C0
C0
C0
C0
C0
C0
C0
C0
C0
C0
C0
C0
C0
C0
C0
C0
C0
ENDCHAR
STARTCHAR 250C
ENCODING 9484
SWIDTH 1000 0
DWIDTH 24 0
BBX 12 13 12 -3
BITMAP
FFF0
8000
8000
8000
8000
8000
8000
8000
8000
8000
8000
8000
8000
ENDCHAR
STARTCHAR 250F
ENCODING 9487
SWIDTH 1000 0
DWIDTH 24 0
BBX 13 14 11 -3
BITMAP
FFF8
FFF8
FFF8
C000
C000
C000
C000
C000
C000
C000
C000
C000
C000
C000
ENDCHAR
STARTCHAR 2510
ENCODING 9488
SWIDTH 1000 0
DWIDTH 24 0
BBX 12 13 0 -3
BITMAP
FFF0
0010
0010
0010
0010
0010
0010
0010
0010
0010
0010
0010
0010
ENDCHAR
STARTCHAR 2513
ENCODING 9491
SWIDTH 1000 0
DWIDTH 24 0
BBX 13 14 0 -3
BITMAP
FFF8
FFF8
FFF8
0018
0018
0018
0018
0018
0018
0018
0018
0018
0018
0018
ENDCHAR
STARTCHAR 2514
ENCODING 9492
SWIDTH 1000 0
DWIDTH 24 0
BBX 12 12 12 9
BITMAP
8000
8000
8000
8000
8000
8000
8000
8000
8000
8000
8000
FFF0
ENDCHAR
STARTCHAR 2517
ENCODING 9495
SWIDTH 1000 0
DWIDTH 24 0
BBX 13 13 11 8
BITMAP
C000
C000
C000
C000
C000
C000
C000
C000
C000
C000
FFF8
FFF8
FFF8
ENDCHAR
STARTCHAR 2518
ENCODING 9496
SWIDTH 1000 0
DWIDTH 24 0
BBX 12 12 0 9
BITMAP
0010
0010
0010
0010
0010
0010
0010
0010
0010
0010
0010
FFF0
ENDCHAR
STARTCHAR 251B
ENCODING 9499
SWIDTH 1000 0
DWIDTH 24 0
BBX 13 13 0 8
BITMAP
0018
0018
0018
0018
0018
0018
0018
0018
0018
0018
FFF8
FFF8
FFF8
ENDCHAR
STARTCHAR 251C
ENCODING 9500
SWIDTH 1000 0
DWIDTH 24 0
BBX 12 24 12 -3
BITMAP
8000
8000
8000
8000
8000
8000
8000
8000
8000
8000
8000
FFF0
8000
8000
8000
8000
8000
8000
8000
8000
8000
8000
8000
8000
ENDCHAR
STARTCHAR 251D
ENCODING 9501
SWIDTH 1000 0
DWIDTH 24 0
BBX 12 24 12 -3
BITMAP
8000
8000
8000
8000
8000
8000
8000
8000
8000
8000
FFF0
FFF0
FFF0
8000
8000
8000
8000
8000
8000
8000
8000
8000
8000
8000
ENDCHAR
STARTCHAR 2520
ENCODING 9504
SWIDTH 1000 0
DWIDTH 24 0
BBX 13 24 11 -3
BITMAP
C000
C000
C000
C000
C000
C000
C000
C000
C000
C000
C000
FFF8
C000
C000
C000
C000
C000
C000
C000
C000
C000
C000
C000
C000
ENDCHAR
STARTCHAR 2523
ENCODING 9507
SWIDTH 1000 0
DWIDTH 24 0
BBX 13 24 11 -3
BITMAP
C000
C000
C000
C000
C000
C000
C000
C000
C000
C000
FFF8
FFF8
FFF8
C000
C000
C000
C000
C000
C000
C000
C000
C000
C000
C000
ENDCHAR
STARTCHAR 2524
ENCODING 9508
SWIDTH 1000 0
DWIDTH 24 0
BBX 12 24 0 -3
BITMAP
0010
0010
0010
0010
0010
0010
0010
0010
0010
0010
0010
FFF0
0010
0010
0010
0010
0010
0010
0010
0010
0010
0010
0010
0010
ENDCHAR
STARTCHAR 2525
ENCODING 9509
SWIDTH 1000 0
DWIDTH 24 0
BBX 12 24 0 -3
BITMAP
0010
0010
0010
0010
0010
0010
0010
0010
0010
0010
FFF0
FFF0
FFF0
0010
0010
0010
0010
0010
0010
0010
0010
0010
0010
0010
ENDCHAR
STARTCHAR 2528
ENCODING 9512
SWIDTH 1000 0
DWIDTH 24 0
BBX 13 24 0 -3
BITMAP
0018
0018
0018
0018
0018
0018
0018
0018
0018
0018
0018
FFF8
0018
0018
0018
0018
0018
0018
0018
0018
0018
0018
0018
0018
ENDCHAR
STARTCHAR 252B
ENCODING 9515
SWIDTH 1000 0
DWIDTH 24 0
BBX 13 24 0 -3
BITMAP
0018
0018
0018
0018
0018
0018
0018
0018
0018
0018
FFF8
FFF8
FFF8
0018
0018
0018
0018
0018
0018
0018
0018
0018
0018
0018
ENDCHAR
STARTCHAR 252C
ENCODING 9516
SWIDTH 1000 0
DWIDTH 24 0
BBX 24 13 0 -3
BITMAP
FFFFFF
001000
001000
001000
001000
001000
001000
001000
001000
001000
001000
001000
001000
ENDCHAR
STARTCHAR 252F
ENCODING 9519
SWIDTH 1000 0
DWIDTH 24 0
BBX 24 14 0 -3
BITMAP
FFFFFF
FFFFFF
FFFFFF
001000
001000
001000
001000
001000
001000
001000
001000
001000
001000
001000
ENDCHAR
STARTCHAR 2530
ENCODING 9520
SWIDTH 1000 0
DWIDTH 24 0
BBX 24 13 0 -3
BITMAP
FFFFFF
001800
001800
001800
001800
001800
001800
001800
001800
001800
001800
001800
001800
ENDCHAR
STARTCHAR 2533
ENCODING 9523
SWIDTH 1000 0
DWIDTH 24 0
BBX 24 14 0 -3
BITMAP
FFFFFF
FFFFFF
FFFFFF
001800
001800
001800
001800
001800
001800
001800
001800
001800
001800
001800
ENDCHAR
STARTCHAR 2534
ENCODING 9524
SWIDTH 1000 0
DWIDTH 24 0
BBX 24 12 0 9
BITMAP
001000
001000
001000
001000
001000
001000
001000
001000
001000
001000
001000
FFFFFF
ENDCHAR
STARTCHAR 2537
ENCODING 9527
SWIDTH 1000 0
DWIDTH 24 0
BBX 24 13 0 8
BITMAP
001000
001000
001000
001000
001000
001000
001000
001000
001000
001000
FFFFFF
FFFFFF
FFFFFF
ENDCHAR
STARTCHAR 2538
ENCODING 9528
SWIDTH 1000 0
DWIDTH 24 0
BBX 24 12 0 9
BITMAP
001800
001800
001800
001800
001800
001800
001800
001800
001800
001800
001800
FFFFFF
ENDCHAR
STARTCHAR 253B
ENCODING 9531
SWIDTH 1000 0
DWIDTH 24 0
BBX 24 13 0 8
BITMAP
001800
001800
001800
001800
001800
001800
001800
001800
001800
001800
FFFFFF
FFFFFF
FFFFFF
ENDCHAR
STARTCHAR 253C
ENCODING 9532
SWIDTH 1000 0
DWIDTH 24 0
BBX 24 24 0 -3
BITMAP
001000
001000
001000
001000
001000
001000
001000
001000
001000
001000
001000
FFFFFF
001000
001000
001000
001000
001000
001000
001000
001000
001000
001000
001000
001000
ENDCHAR
STARTCHAR 253F
ENCODING 9535
SWIDTH 1000 0
DWIDTH 24 0
BBX 24 24 0 -3
BITMAP
001000
001000
001000
001000
001000
001000
001000
001000
001000
001000
FFFFFF
FFFFFF
FFFFFF
001000
001000
001000
001000
001000
001000
001000
001000
001000
001000
001000
ENDCHAR
STARTCHAR 2542
ENCODING 9538
SWIDTH 1000 0
DWIDTH 24 0
BBX 24 24 0 -3
BITMAP
001800
001800
001800
001800
001800
001800
001800
001800
001800
001800
001800
FFFFFF
001800
001800
001800
001800
001800
001800
001800
001800
001800
001800
001800
001800
ENDCHAR
STARTCHAR 254B
ENCODING 9547
SWIDTH 1000 0
DWIDTH 24 0
BBX 24 24 0 -3
BITMAP
001800
001800
001800
001800
001800
001800
001800
001800
001800
001800
FFFFFF
FFFFFF
FFFFFF
001800
001800
001800
001800
001800
001800
001800
001800
001800
001800
001800
ENDCHAR
STARTCHAR 25A0
ENCODING 9632
SWIDTH 1000 0
DWIDTH 24 0
BBX 18 18 3 0
BITMAP
FFFFC0
FFFFC0
FFFFC0
FFFFC0
FFFFC0
FFFFC0
FFFFC0
FFFFC0
FFFFC0
FFFFC0
FFFFC0
FFFFC0
FFFFC0
FFFFC0
FFFFC0
FFFFC0
FFFFC0
FFFFC0
ENDCHAR
STARTCHAR 25A1
ENCODING 9633
SWIDTH 1000 0
DWIDTH 24 0
BBX 18 18 3 0
BITMAP
FFFFC0
800040
800040
800040
800040
800040
800040
800040
800040
800040
800040
800040
800040
800040
800040
800040
800040
FFFFC0
ENDCHAR
STARTCHAR 25B1
ENCODING 9649
SWIDTH 500 0
DWIDTH 12 0
BBX 10 5 1 7
BITMAP
3FC0
2080
4080
4100
FF00
ENDCHAR
STARTCHAR 25B2
ENCODING 9650
SWIDTH 1000 0
DWIDTH 24 0
BBX 20 19 2 0
BITMAP
004000
006000
006000
00F000
00F000
01F800
01F800
03FC00
03FC00
07FE00
07FE00
0FFF00
0FFF00
1FFF80
1FFF80
3FFFC0
3FFFC0
7FFFE0
FFFFF0
ENDCHAR
STARTCHAR 25B3
ENCODING 9651
SWIDTH 1000 0
DWIDTH 24 0
BBX 20 19 2 0
BITMAP
004000
006000
006000
009000
009000
010800
010800
020400
020400
040200
040200
080100
080100
100080
100080
200040
200040
400020
FFFFF0
ENDCHAR
STARTCHAR 25B6
ENCODING 9654
SWIDTH 500 0
DWIDTH 12 0
BBX 9 14 2 2
BITMAP
8000
C000
E000
F000
FC00
FE00
FF80
FF00
FE00
FC00
F000
E000
8000
8000
ENDCHAR
STARTCHAR 25B7
ENCODING 9655
SWIDTH 500 0
DWIDTH 12 0
BBX 9 14 2 2
BITMAP
8000
C000
E000
9000
8C00
8200
8180
8100
8600
8C00
B000
E000
8000
8000
ENDCHAR
STARTCHAR 25BC
ENCODING 9660
SWIDTH 1000 0
DWIDTH 24 0
BBX 20 19 2 -1
BITMAP
FFFFF0
7FFFE0
3FFFC0
3FFFC0
1FFF80
1FFF80
0FFF00
0FFF00
07FE00
07FE00
03FC00
03FC00
01F800
01F800
00F000
00F000
006000
006000
004000
ENDCHAR
STARTCHAR 25BD
ENCODING 9661
SWIDTH 1000 0
DWIDTH 24 0
BBX 20 19 2 -1
BITMAP
FFFFF0
400020
200040
200040
100080
100080
080100
080100
040200
040200
020400
020400
010800
010800
009000
009000
006000
006000
004000
ENDCHAR
STARTCHAR 25C0
ENCODING 9664
SWIDTH 500 0
DWIDTH 12 0
BBX 9 14 1 2
BITMAP
0080
0180
0380
0780
1F80
3F80
FF80
7F80
3F80
1F80
0780
0380
0080
0080
ENDCHAR
STARTCHAR 25C1
ENCODING 9665
SWIDTH 500 0
DWIDTH 12 0
BBX 9 14 1 2
BITMAP
0080
0180
0380
0480
1880
2080
C080
4080
3080
1880
0680
0380
0080
0080
ENDCHAR
STARTCHAR 25C6
ENCODING 9670
SWIDTH 1000 0
DWIDTH 24 0
BBX 22 22 1 -2
BITMAP
002000
003000
007800
00FC00
01FE00
03FF00
07FF80
0FFFC0
1FFFE0
3FFFF0
7FFFF8
FFFFFC
3FFFF0
1FFFE0
0FFFC0
07FF80
03FF00
01FE00
00FC00
007800
003000
002000
ENDCHAR
STARTCHAR 25C7
ENCODING 9671
SWIDTH 1000 0
DWIDTH 24 0
BBX 22 22 1 -2
BITMAP
002000
003000
004800
008400
010200
020100
040080
080040
100020
200010
400008
C0000C
200010
100020
080040
040080
020100
010200
008400
004800
003000
002000
ENDCHAR
STARTCHAR 25C9
ENCODING 9673
SWIDTH 500 0
DWIDTH 12 0
BBX 10 11 1 4
BITMAP
1E00
6180
C0C0
9E40
BE40
BF40
BF40
BE40
DE80
6180
1E00
ENDCHAR
STARTCHAR 25CB
ENCODING 9675
SWIDTH 1000 0
DWIDTH 24 0
BBX 20 20 2 -1
BITMAP
01F800
060600
180180
3000C0
200040
400020
400020
800010
800010
800010
800010
800010
800010
400020
400020
200040
3000C0
180180
060600
01F800
ENDCHAR
STARTCHAR 25CE
ENCODING 9678
SWIDTH 1000 0
DWIDTH 24 0
BBX 20 20 2 -1
BITMAP
01F800
060600
180180
3000C0
20F040
430C20
C40220
840210
880110
880110
880110
880110
840210
440220
430C20
20F040
3000C0
180180
060600
01F800
ENDCHAR
STARTCHAR 25CF
ENCODING 9679
SWIDTH 1000 0
DWIDTH 24 0
BBX 20 20 2 -1
BITMAP
01F800
07FE00
1FFF80
3FFFC0
3FFFC0
7FFFE0
7FFFE0
FFFFF0
FFFFF0
FFFFF0
FFFFF0
FFFFF0
FFFFF0
7FFFE0
7FFFE0
3FFFC0
3FFFC0
1FFF80
07FE00
01F800
ENDCHAR
STARTCHAR 25D0
ENCODING 9680
SWIDTH 500 0
DWIDTH 12 0
BBX 10 11 1 4
BITMAP
1E00
7B80
F880
F840
F840
F840
F840
F840
F840
7880
1F00
ENDCHAR
STARTCHAR 25D1
ENCODING 9681
SWIDTH 500 0
DWIDTH 12 0
BBX 10 11 1 4
BITMAP
1E00
7780
47C0
87C0
87C0
87C0
87C0
87C0
87C0
4780
3E00
ENDCHAR
STARTCHAR 25D2
ENCODING 9682
SWIDTH 500 0
DWIDTH 12 0
BBX 10 10 1 4
BITMAP
1E00
6180
C0C0
8040
8040
FFC0
FFC0
FFC0
7F80
1E00
ENDCHAR
STARTCHAR 25D3
ENCODING 9683
SWIDTH 500 0
DWIDTH 12 0
BBX 10 10 1 4
BITMAP
1E00
7F80
FFC0
FFC0
FFC0
8040
8040
80C0
6180
1F00
ENDCHAR
STARTCHAR 25E6
ENCODING 9702
SWIDTH 500 0
DWIDTH 12 0
BBX 6 6 3 6
BITMAP
78
48
84
84
48
38
ENDCHAR
STARTCHAR 25EF
ENCODING 9711
SWIDTH 1000 0
DWIDTH 24 0
BBX 22 22 1 -2
BITMAP
00FC00
030300
0C00C0
100020
200010
400010
400008
800008
800004
800004
800004
800004
800004
800004
400008
400008
200010
200010
100020
0C00C0
030300
00FC00
ENDCHAR
STARTCHAR 2600
ENCODING 9728
SWIDTH 1000 0
DWIDTH 24 0
BBX 22 22 1 -2
BITMAP
002000
002000
002000
102020
080040
047880
01FE00
03FF00
03FF00
07FF80
F7FFBC
07FF80
07FF80
03FF00
03FF00
05FF00
047880
080040
102020
002000
002000
002000
ENDCHAR
STARTCHAR 2601
ENCODING 9729
SWIDTH 1000 0
DWIDTH 24 0
BBX 20 17 2 -1
BITMAP
03E000
07F000
0FF800
0FFC00
0FFCE0
0FFDF0
0FFFF0
1FFFF0
7FFFF0
FFFFF0
FFFFE0
FFFFF0
FFFFF0
FFBFF0
7F1FF0
3C1FE0
0007C0
ENDCHAR
STARTCHAR 2602
ENCODING 9730
SWIDTH 1000 0
DWIDTH 24 0
BBX 22 22 1 -2
BITMAP
002000
002000
01FE00
07FF80
1FFFE0
3FFFF0
7FFFF8
7FFFF8
CE31CC
843084
842084
002000
002000
002000
002000
002000
002000
002000
002000
012000
012000
00E000
ENDCHAR
STARTCHAR 2603
ENCODING 9731
SWIDTH 1000 0
DWIDTH 24 0
BBX 22 22 1 -2
BITMAP
80621C
04050C
0E0880
001040
602020
61E058
061898
080780
08CC40
48CC40
E80040
04848C
06798C
880040
D00020
203010
203010
200010
203010
203020
180060
07FF80
ENDCHAR
STARTCHAR 2605
ENCODING 9733
SWIDTH 1000 0
DWIDTH 24 0
BBX 22 22 1 -2
BITMAP
002000
003000
003000
003000
007800
007800
007800
00FC00
FFFFFC
3FFFF0
1FFFE0
0FFFC0
03FF00
03FF00
03FF00
03FF00
07FF80
078780
070380
0E01C0
080040
100060
ENDCHAR
STARTCHAR 2606
ENCODING 9734
SWIDTH 1000 0
DWIDTH 24 0
BBX 22 22 1 -2
BITMAP
002000
003000
003000
003000
004800
004800
004800
008400
FF87FC
200010
100020
0C00C0
020100
030300
020100
022100
047880
04CC80
050280
0A0140
0C00C0
100060
ENDCHAR
STARTCHAR 260E
ENCODING 9742
SWIDTH 1000 0
DWIDTH 24 0
BBX 22 18 1 0
BITMAP
0FFFC0
3FFFF0
7FFFF8
7986F8
F1863C
F1FE3C
03FF00
078780
0F0380
0E01C0
0E01C0
1E01E0
3E01F0
3E01F0
7F03F8
7F87F8
7FFFF8
7FFFF8
ENDCHAR
STARTCHAR 2616
ENCODING 9750
SWIDTH 1000 0
DWIDTH 24 0
BBX 20 19 2 0
BITMAP
00F000
019800
060600
180180
3000C0
200040
200040
200040
200040
600060
400020
400020
400020
400020
400020
400020
400020
400020
FFFFF0
ENDCHAR
STARTCHAR 2617
ENCODING 9751
SWIDTH 1000 0
DWIDTH 24 0
BBX 20 19 2 0
BITMAP
006000
01F800
07FE00
1FFF80
3FFFC0
3FFFC0
3FFFC0
3FFFC0
3FFFC0
7FFFC0
7FFFE0
7FFFE0
7FFFE0
7FFFE0
7FFFE0
7FFFE0
7FFFE0
7FFFE0
FFFFF0
ENDCHAR
STARTCHAR 261E
ENCODING 9758
SWIDTH 1000 0
DWIDTH 24 0
BBX 20 10 2 4
BITMAP
71E7F0
9E1810
980C10
90FBE0
9F3C80
903300
905900
9C6600
9B2400
F0FC00
ENDCHAR
STARTCHAR 2640
ENCODING 9792
SWIDTH 1000 0
DWIDTH 24 0
BBX 14 22 5 -2
BITMAP
0780
1860
3020
2010
2010
2010
2010
2010
1020
1860
0780
0300
0300
0300
FFFC
0300
0300
0300
0300
0300
0300
0300
ENDCHAR
STARTCHAR 2642
ENCODING 9794
SWIDTH 1000 0
DWIDTH 24 0
BBX 19 19 2 -1
BITMAP
001FE0
000060
0000A0
000120
000220
000420
000820
001020
1F2000
30C000
404000
406000
802000
802000
802000
406000
404000
318000
1F0000
ENDCHAR
STARTCHAR 2660
ENCODING 9824
SWIDTH 500 0
DWIDTH 12 0
BBX 10 14 1 2
BITMAP
0800
0C00
1E00
3F00
7F80
7F80
FFC0
FFC0
FFC0
FFC0
7F80
0C00
1E00
1E00
ENDCHAR
STARTCHAR 2661
ENCODING 9825
SWIDTH 500 0
DWIDTH 12 0
BBX 10 14 1 2
BITMAP
7380
8C40
8C40
8840
8040
8040
8040
4080
4080
2100
2100
1200
0C00
0800
ENDCHAR
STARTCHAR 2662
ENCODING 9826
SWIDTH 500 0
DWIDTH 12 0
BBX 10 16 1 1
BITMAP
0800
0C00
1200
1200
2100
2100
4080
8040
8040
4080
2100
2100
1200
0C00
0C00
0800
ENDCHAR
STARTCHAR 2663
ENCODING 9827
SWIDTH 500 0
DWIDTH 12 0
BBX 12 14 0 2
BITMAP
0E00
0F00
1F80
1F80
0F00
3FC0
7FE0
FFF0
FFF0
7FE0
7EE0
0600
0F00
0F00
ENDCHAR
STARTCHAR 2664
ENCODING 9828
SWIDTH 500 0
DWIDTH 12 0
BBX 10 14 1 2
BITMAP
0C00
0C00
1200
2100
4080
8080
8040
8040
8040
9E40
7380
1400
1200
1E00
ENDCHAR
STARTCHAR 2665
ENCODING 9829
SWIDTH 500 0
DWIDTH 12 0
BBX 10 14 1 2
BITMAP
7380
FFC0
FFC0
FFC0
FFC0
FFC0
FFC0
7F80
7F80
3F00
3F00
1E00
0C00
0800
ENDCHAR
STARTCHAR 2666
ENCODING 9830
SWIDTH 500 0
DWIDTH 12 0
BBX 10 16 1 1
BITMAP
0800
0C00
1E00
1E00
3F00
3F00
7F80
FFC0
FFC0
7F80
3F00
3F00
1E00
0C00
0C00
0800
ENDCHAR
STARTCHAR 2667
ENCODING 9831
SWIDTH 500 0
DWIDTH 12 0
BBX 12 14 0 2
BITMAP
0E00
0900
1080
1080
1100
39C0
4020
8010
8010
4920
7AE0
0A00
0900
0F00
ENDCHAR
STARTCHAR 2668
ENCODING 9832
SWIDTH 1000 0
DWIDTH 24 0
BBX 20 18 2 1
BITMAP
004000
088200
088400
088400
088400
08C600
084200
046300
042100
063100
663160
843110
842110
882210
C04030
600060
3803C0
07FE00
ENDCHAR
STARTCHAR 2669
ENCODING 9833
SWIDTH 500 0
DWIDTH 12 0
BBX 4 13 3 3
BITMAP
10
10
10
10
10
10
10
10
10
10
F0
F0
E0
ENDCHAR
STARTCHAR 266A
ENCODING 9834
SWIDTH 1000 0
DWIDTH 24 0
BBX 15 20 5 -1
BITMAP
0200
0200
0380
05C0
04E0
0470
0438
040C
0406
0406
0402
0406
040C
0410
0400
7C00
FC00
FC00
FC00
F000
ENDCHAR
STARTCHAR 266B
ENCODING 9835
SWIDTH 500 0
DWIDTH 12 0
BBX 10 14 1 2
BITMAP
00C0
0FC0
1F40
1040
1040
1040
1040
1040
1040
1040
11C0
F3C0
E380
E000
ENDCHAR
STARTCHAR 266C
ENCODING 9836
SWIDTH 500 0
DWIDTH 12 0
BBX 10 14 1 2
BITMAP
00C0
0FC0
1E40
13C0
1FC0
1040
1040
1040
1040
1040
11C0
F3C0
E380
E000
ENDCHAR
STARTCHAR 266D
ENCODING 9837
SWIDTH 1000 0
DWIDTH 24 0
BBX 9 20 8 -1
BITMAP
8000
8000
8000
8000
8000
8000
8000
9E00
E300
8180
8180
8180
8180
8300
8300
8600
8C00
9800
B000
C000
ENDCHAR
STARTCHAR 266E
ENCODING 9838
SWIDTH 500 0
DWIDTH 12 0
BBX 4 14 4 2
BITMAP
80
80
80
F0
F0
90
90
90
90
F0
90
10
10
10
ENDCHAR
STARTCHAR 266F
ENCODING 9839
SWIDTH 1000 0
DWIDTH 24 0
BBX 14 20 5 -1
BITMAP
0840
0840
0840
0840
087C
0FF0
FF40
E840
0840
0840
0840
085C
0BFC
3FC0
F840
0840
0840
0840
0840
0800
ENDCHAR
STARTCHAR 2713
ENCODING 10003
SWIDTH 1000 0
DWIDTH 24 0
BBX 16 16 5 1
BITMAP
0001
0002
0004
000C
0008
0010
0020
0060
40C0
C180
6300
6700
3E00
3C00
3800
1000
ENDCHAR
STARTCHAR 2756
ENCODING 10070
SWIDTH 1000 0
DWIDTH 24 0
BBX 22 22 1 -2
BITMAP
002000
003000
007800
00FC00
01FE00
03FF00
08FC80
0C78C0
1E31E0
3F23F0
7F87F8
FFCFFC
3F23F0
1E31E0
0C78C0
08FC80
01FE00
03FF00
00FC00
007800
003000
002000
ENDCHAR
STARTCHAR 2776
ENCODING 10102
SWIDTH 1000 0
DWIDTH 24 0
BBX 22 22 1 -2
BITMAP
00FC00
03FF00
0FFFC0
1FFFE0
3F0FF0
3FCFF0
7FCFF8
7FCFF8
FFCFFC
FFCFFC
FFCFFC
FFCFFC
FFCFFC
FFCFFC
7FCFF8
7FCFF8
3FCFF0
3F03F0
1FFFE0
0FFFC0
03FF00
00FC00
ENDCHAR
STARTCHAR 2777
ENCODING 10103
SWIDTH 1000 0
DWIDTH 24 0
BBX 22 22 1 -2
BITMAP
00FC00
03FF00
0FFF80
1FFFE0
3FFFF0
3EF9F0
7EFDF8
7E7CF8
FE7DFC
FFF9FC
FFF3FC
FFF7FC
FFEFFC
FFDFFC
7FBEF8
7F7EF8
3EFEF0
3D00F0
1FFFE0
0FFFC0
03FF00
00FC00
ENDCHAR
STARTCHAR 2778
ENCODING 10104
SWIDTH 1000 0
DWIDTH 24 0
BBX 22 22 1 -2
BITMAP
00FC00
07FF00
0FFFC0
1F87E0
3E79F0
3EFDF0
7E7CF8
7E7DF8
FFFDFC
FFF3FC
FF8FFC
FFF9FC
FFFCFC
FFFCFC
7CFCF8
7CFCF8
3EFDF0
3F7BF0
1FFFE0
0FFFC0
03FF00
00FC00
ENDCHAR
STARTCHAR 2779
ENCODING 10105
SWIDTH 1000 0
DWIDTH 24 0
BBX 22 22 1 -2
BITMAP
01FE00
07FF80
0FFFC0
1FF7E0
3FE7F0
7FD7F8
7FD7F8
7FB7F8
FF77FC
FEF7FC
FEF7FC
FDF7FC
FBF7FC
F800FC
7FF7F8
7FF7F8
3FF7F0
3FC1F0
1FFFE0
0FFFC0
03FF00
00FC00
ENDCHAR
STARTCHAR 277A
ENCODING 10106
SWIDTH 1000 0
DWIDTH 24 0
BBX 22 22 1 -2
BITMAP
00FC00
03FF00
07FF80
1FFFE0
3E01E0
3EFFF0
7EFFF8
7EFFF8
FEFFF8
FEFBFC
FEFDFC
FFFCFC
FFFCFC
FFFCFC
7CFCF8
7CFDF8
3EF9F0
3F77F0
1FFFE0
0FFFC0
03FF00
00FC00
ENDCHAR
STARTCHAR 277B
ENCODING 10107
SWIDTH 1000 0
DWIDTH 24 0
BBX 22 22 1 -2
BITMAP
00FC00
03FF00
0FFFC0
1FC7E0
3F39F0
3F7DF0
7E79F8
7EFFF8
FCFFFC
FC83FC
FD79FC
FCFDFC
FCFCFC
FCFCFC
7EFCF8
7EFDF8
3F79F0
3FBFF0
1FFFE0
0FFFC0
03FF00
00FC00
ENDCHAR
STARTCHAR 277C
ENCODING 10108
SWIDTH 1000 0
DWIDTH 24 0
BBX 22 22 1 -2
BITMAP
00FC00
03FF00
0FFFC0
1FFFE0
3E00F0
3EFFF0
7EFDF8
7FFBF8
FFFBFC
FFF3FC
FFF7FC
FFF7FC
FFE7FC
FFEFFC
7FEFF8
7FCFF8
3FCFF0
3FCFF0
1FCFE0
0FFFC0
03FF00
00FC00
ENDCHAR
STARTCHAR 277D
ENCODING 10109
SWIDTH 1000 0
DWIDTH 24 0
BBX 22 22 1 -2
BITMAP
00FC00
03FF00
0FFFC0
1F87E0
3E79F0
3EFDF0
7EFDF8
7EFDF8
FE79FC
FF33FC
FFCFFC
FF73FC
FEF9FC
FDFCFC
7DFCF8
7DFCF8
3EFDF0
3F7BF0
1FFFE0
0FFFC0
03FF00
00FC00
ENDCHAR
STARTCHAR 277E
ENCODING 10110
SWIDTH 1000 0
DWIDTH 24 0
BBX 22 22 1 -2
BITMAP
00FC00
03FF00
0FFFC0
1F87E0
3F3BF0
3E79F0
7EFDF8
7CFCF8
FCFCFC
FCFCFC
FEFCFC
FE7CFC
FF84FC
FFFDFC
7E7DF8
7E79F8
3EFBF0
3F77F0
1FFFE0
0FFFC0
03FF00
00FC00
ENDCHAR
STARTCHAR 277F
ENCODING 10111
SWIDTH 1000 0
DWIDTH 24 0
BBX 22 22 1 -2
BITMAP
00FC00
03FF00
0FFFC0
1FFFE0
39F8F0
39F670
7DE778
7DEF78
FDEF3C
FDCF3C
FDCF3C
FDCF3C
FDCF3C
FDEF3C
7DEF78
7DEF78
3DF770
3076F0
1FFFE0
0FFFC0
03FF00
00FC00
ENDCHAR
STARTCHAR 2934
ENCODING 10548
SWIDTH 500 0
DWIDTH 12 0
BBX 10 18 1 0
BITMAP
0600
0F00
1F00
1680
2640
4640
0600
0600
0600
0600
0600
0600
0600
0600
0400
0400
0C00
F000
ENDCHAR
STARTCHAR 2935
ENCODING 10549
SWIDTH 500 0
DWIDTH 12 0
BBX 10 18 1 0
BITMAP
F000
0C00
0400
0400
0600
0600
0600
0600
0600
0600
0600
0600
4640
2640
1680
1F80
0F00
0600
ENDCHAR
STARTCHAR 29BF
ENCODING 10687
SWIDTH 1000 0
DWIDTH 24 0
BBX 20 20 2 -1
BITMAP
01F800
060600
180180
3000C0
200040
400020
C0F020
81F810
81F810
81F810
81F810
81F810
80F010
400020
400020
200040
3000C0
180180
060600
01F800
ENDCHAR
STARTCHAR 29FA
ENCODING 10746
SWIDTH 500 0
DWIDTH 12 0
BBX 10 13 1 3
BITMAP
1200
1200
1200
1200
1200
1200
FFC0
1200
1200
1200
1200
1200
1200
ENDCHAR
STARTCHAR 29FB
ENCODING 10747
SWIDTH 500 0
DWIDTH 12 0
BBX 10 13 1 3
BITMAP
2D00
2D00
2D00
2D00
2D00
2D00
FFC0
2D00
2D00
2D00
2D00
2D00
2D00
ENDCHAR
STARTCHAR 3000
ENCODING 12288
SWIDTH 1000 0
DWIDTH 24 0
BBX 0 0 0 0
BITMAP
ENDCHAR
STARTCHAR 3001
ENCODING 12289
SWIDTH 1000 0
DWIDTH 24 0
BBX 5 5 1 -2
BITMAP
C0
30
38
18
18
ENDCHAR
STARTCHAR 3002
ENCODING 12290
SWIDTH 1000 0
DWIDTH 24 0
BBX 6 6 1 -2
BITMAP
78
CC
84
84
CC
78
ENDCHAR
STARTCHAR 3003
ENCODING 12291
SWIDTH 1000 0
DWIDTH 24 0
BBX 11 11 6 4
BITMAP
0CE0
18C0
18C0
1880
1180
3100
2100
6200
4200
8400
8400
ENDCHAR
STARTCHAR 3005
ENCODING 12293
SWIDTH 1000 0
DWIDTH 24 0
BBX 16 14 3 3
BITMAP
0180
0180
0180
0304
021E
07E7
0404
0808
1018
2410
43A0
80E0
0030
0018
ENDCHAR
STARTCHAR 3006
ENCODING 12294
SWIDTH 1000 0
DWIDTH 24 0
BBX 16 18 4 0
BITMAP
0004
0003
0006
000C
0018
0E30
1960
10C0
21C0
2160
2260
4430
4830
5800
5000
E000
E000
4000
ENDCHAR
STARTCHAR 3007
ENCODING 12295
SWIDTH 1000 0
DWIDTH 24 0
BBX 20 19 2 0
BITMAP
01F800
060600
080100
100080
200040
400020
400020
800020
800010
800010
800010
800020
400020
400020
200040
300080
180180
060600
01F800
ENDCHAR
STARTCHAR 3008
ENCODING 12296
SWIDTH 1000 0
DWIDTH 24 0
BBX 10 22 13 -2
BITMAP
00C0
0180
0100
0200
0400
0C00
0800
1000
2000
6000
4000
C000
6000
2000
1000
0800
0C00
0400
0200
0100
0180
00C0
ENDCHAR
STARTCHAR 3009
ENCODING 12297
SWIDTH 1000 0
DWIDTH 24 0
BBX 10 22 1 -2
BITMAP
C000
6000
2000
1000
0800
0C00
0400
0200
0100
0180
0080
00C0
0180
0100
0200
0400
0C00
0800
1000
2000
6000
C000
ENDCHAR
STARTCHAR 300A
ENCODING 12298
SWIDTH 1000 0
DWIDTH 24 0
BBX 10 22 13 -2
BITMAP
0240
0480
0480
0900
1900
1200
2400
2400
4800
4800
9000
9000
4800
4800
2400
2400
1200
1900
0900
0480
0480
0240
ENDCHAR
STARTCHAR 300B
ENCODING 12299
SWIDTH 1000 0
DWIDTH 24 0
BBX 10 22 1 -2
BITMAP
9000
4800
4800
2400
2600
1200
0900
0900
0480
0480
0240
0240
0480
0480
0900
0900
1200
2600
2400
4800
4800
9000
ENDCHAR
STARTCHAR 300C
ENCODING 12300
SWIDTH 1000 0
DWIDTH 24 0
BBX 6 17 16 3
BITMAP
FC
80
80
80
80
80
80
80
80
80
80
80
80
80
80
80
80
ENDCHAR
STARTCHAR 300D
ENCODING 12301
SWIDTH 1000 0
DWIDTH 24 0
BBX 6 18 2 -2
BITMAP
04
04
04
04
04
04
04
04
04
04
04
04
04
04
04
04
04
FC
ENDCHAR
STARTCHAR 300E
ENCODING 12302
SWIDTH 1000 0
DWIDTH 24 0
BBX 8 17 14 3
BITMAP
FF
81
81
9F
90
90
90
90
90
90
90
90
90
90
90
90
F0
ENDCHAR
STARTCHAR 300F
ENCODING 12303
SWIDTH 1000 0
DWIDTH 24 0
BBX 8 18 2 -2
BITMAP
0F
09
09
09
09
09
09
09
09
09
09
09
09
09
F9
81
81
FF
ENDCHAR
STARTCHAR 3010
ENCODING 12304
SWIDTH 1000 0
DWIDTH 24 0
BBX 5 22 17 -2
BITMAP
F8
F0
E0
C0
C0
C0
80
80
80
80
80
80
80
80
80
80
C0
C0
C0
E0
F0
F8
ENDCHAR
STARTCHAR 3011
ENCODING 12305
SWIDTH 1000 0
DWIDTH 24 0
BBX 5 22 2 -2
BITMAP
F8
78
38
18
18
18
08
08
08
08
08
08
08
08
08
08
18
18
18
38
78
F8
ENDCHAR
STARTCHAR 3012
ENCODING 12306
SWIDTH 1000 0
DWIDTH 24 0
BBX 16 19 4 -1
BITMAP
FFFF
FFFF
0000
0000
0000
0000
FFFF
FFFF
0180
0180
0180
0180
0180
0180
0180
0180
0180
0180
0180
ENDCHAR
STARTCHAR 3013
ENCODING 12307
SWIDTH 1000 0
DWIDTH 24 0
BBX 16 11 4 4
BITMAP
FFFF
FFFF
FFFF
FFFF
0000
0000
0000
0000
FFFF
FFFF
FFFF
ENDCHAR
STARTCHAR 3014
ENCODING 12308
SWIDTH 1000 0
DWIDTH 24 0
BBX 5 22 17 -2
BITMAP
08
30
C0
80
80
80
80
80
80
80
80
80
80
80
80
80
80
80
80
E0
30
08
ENDCHAR
STARTCHAR 3015
ENCODING 12309
SWIDTH 1000 0
DWIDTH 24 0
BBX 5 22 2 -2
BITMAP
80
60
18
08
08
08
08
08
08
08
08
08
08
08
08
08
08
08
08
38
60
80
ENDCHAR
STARTCHAR 3016
ENCODING 12310
SWIDTH 1000 0
DWIDTH 24 0
BBX 7 22 15 -2
BITMAP
FE
84
88
90
90
90
A0
A0
A0
A0
A0
A0
A0
A0
A0
A0
90
90
90
88
84
FE
ENDCHAR
STARTCHAR 3017
ENCODING 12311
SWIDTH 1000 0
DWIDTH 24 0
BBX 7 22 2 -2
BITMAP
FE
42
22
22
12
12
12
0A
0A
0A
0A
0A
0A
0A
0A
12
12
12
22
22
42
FE
ENDCHAR
STARTCHAR 3018
ENCODING 12312
SWIDTH 1000 0
DWIDTH 24 0
BBX 7 22 15 -2
BITMAP
02
0E
32
C2
8C
90
90
90
90
90
90
90
90
90
90
90
90
8C
C2
32
0E
02
ENDCHAR
STARTCHAR 3019
ENCODING 12313
SWIDTH 1000 0
DWIDTH 24 0
BBX 7 22 2 -2
BITMAP
80
E0
98
86
62
12
12
12
12
12
12
12
12
12
12
12
12
62
86
98
E0
80
ENDCHAR
STARTCHAR 301C
ENCODING 12316
SWIDTH 1000 0
DWIDTH 24 0
BBX 20 5 2 7
BITMAP
0F0000
318000
406030
803840
000F80
ENDCHAR
STARTCHAR 301D
ENCODING 12317
SWIDTH 1000 0
DWIDTH 24 0
BBX 7 9 16 11
BITMAP
80
E0
30
18
84
C2
30
18
06
ENDCHAR
STARTCHAR 301F
ENCODING 12319
SWIDTH 1000 0
DWIDTH 24 0
BBX 7 10 1 -2
BITMAP
80
60
10
0C
86
44
30
08
06
04
ENDCHAR
STARTCHAR 3020
ENCODING 12320
SWIDTH 1000 0
DWIDTH 24 0
BBX 22 15 1 1
BITMAP
3FFFF0
3FFFF0
000000
3FFFF0
3FFFF0
003000
EE31D8
9B3364
8A3144
463188
223110
210220
118620
0878C0
07FF00
ENDCHAR
STARTCHAR 3033
ENCODING 12339
SWIDTH 1000 0
DWIDTH 24 0
BBX 8 20 7 -3
BITMAP
04
06
02
07
06
04
0C
08
18
10
10
30
20
60
40
40
80
80
80
80
ENDCHAR
STARTCHAR 3034
ENCODING 12340
SWIDTH 1000 0
DWIDTH 24 0
BBX 13 20 7 -3
BITMAP
0400
0600
0200
0700
0600
0400
0C00
0800
1800
1000
1020
3010
2198
6040
4060
4000
8000
8000
8000
8000
ENDCHAR
STARTCHAR 3035
ENCODING 12341
SWIDTH 1000 0
DWIDTH 24 0
BBX 9 21 7 0
BITMAP
8000
8000
8000
8000
4000
6000
2000
3000
1800
1800
0C00
0C00
0600
0600
0300
0300
0380
0180
0180
0180
0180
ENDCHAR
STARTCHAR 303B
ENCODING 12347
SWIDTH 1000 0
DWIDTH 24 0
BBX 9 15 7 2
BITMAP
2000
1000
0800
0C00
0300
0E00
1000
2000
1000
1800
0E00
0380
0F80
3800
C000
ENDCHAR
STARTCHAR 303C
ENCODING 12348
SWIDTH 1000 0
DWIDTH 24 0
BBX 20 20 2 -1
BITMAP
FFFFF0
800030
800050
800090
800110
800210
800410
800810
801010
802010
804010
808010
810010
820010
840010
880010
900010
A00010
C00010
FFFFF0
ENDCHAR
STARTCHAR 303D
ENCODING 12349
SWIDTH 1000 0
DWIDTH 24 0
BBX 18 20 4 -1
BITMAP
300000
A8C000
C92000
062000
003000
001000
001000
001000
001800
000800
000800
000C00
000400
000400
000600
000200
000300
000300
000180
0001C0
ENDCHAR
STARTCHAR 3041
ENCODING 12353
SWIDTH 1000 0
DWIDTH 24 0
BBX 16 17 4 -1
BITMAP
0600
0300
0300
2270
1FC0
0240
0220
03FC
0E66
1243
2281
4381
4303
C603
CA06
720C
00F0
ENDCHAR
STARTCHAR 3042
ENCODING 12354
SWIDTH 1000 0
DWIDTH 24 0
BBX 18 20 3 -1
BITMAP
030000
018000
011C00
213800
1FC000
010000
033000
027C00
039300
0E3080
1220C0
226040
424040
C28040
C30040
8300C0
CF0180
F30300
010E00
007000
ENDCHAR
STARTCHAR 3043
ENCODING 12355
SWIDTH 1000 0
DWIDTH 24 0
BBX 17 13 4 0
BITMAP
C01000
400800
400400
400200
400300
400180
460180
440180
4C0000
680000
380000
180000
080000
ENDCHAR
STARTCHAR 3044
ENCODING 12356
SWIDTH 1000 0
DWIDTH 24 0
BBX 20 15 2 1
BITMAP
C00000
600600
600100
600080
6000C0
400060
400060
410030
620030
220030
260000
240000
1C0000
1C0000
0C0000
ENDCHAR
STARTCHAR 3045
ENCODING 12357
SWIDTH 1000 0
DWIDTH 24 0
BBX 11 18 6 -2
BITMAP
2000
1E00
0780
0800
1000
0780
B840
F060
C020
0020
0020
0020
0060
0040
0080
0300
0C00
3000
ENDCHAR
STARTCHAR 3046
ENCODING 12358
SWIDTH 1000 0
DWIDTH 24 0
BBX 13 21 5 -1
BITMAP
1000
0800
07C0
07E0
0800
0000
03E0
1C30
F018
C018
0008
0008
0008
0018
0018
0010
0030
0060
0180
0600
1800
ENDCHAR
STARTCHAR 3047
ENCODING 12359
SWIDTH 1000 0
DWIDTH 24 0
BBX 15 17 5 -1
BITMAP
1000
0F00
03C0
0400
0000
00E0
3F60
30C0
0100
0200
0400
0F80
1C80
30C0
E040
C064
803E
ENDCHAR
STARTCHAR 3048
ENCODING 12360
SWIDTH 1000 0
DWIDTH 24 0
BBX 17 19 4 0
BITMAP
0C0000
03E000
01F000
020000
040000
003000
23D800
3E3000
306000
00C000
010000
020000
05C000
0E6000
182000
702000
E03000
C03E00
800F80
ENDCHAR
STARTCHAR 3049
ENCODING 12361
SWIDTH 1000 0
DWIDTH 24 0
BBX 16 15 4 0
BITMAP
1800
0C18
0806
0983
8F01
7801
0800
08F8
0B0C
1C06
2802
4802
8806
480C
39F8
ENDCHAR
STARTCHAR 304A
ENCODING 12362
SWIDTH 1000 0
DWIDTH 24 0
BBX 19 18 3 0
BITMAP
1C0000
040600
040180
0400C0
85C060
7F0060
040000
040000
040000
04FE00
070300
1C0180
640080
840080
8C0080
8C0180
6C8300
387C00
ENDCHAR
STARTCHAR 304B
ENCODING 12363
SWIDTH 1000 0
DWIDTH 24 0
BBX 21 19 2 0
BITMAP
040000
030000
010000
010000
030300
03E080
FE3040
621020
061030
041010
041038
0811F8
081018
183000
343000
336000
61E000
41C000
408000
ENDCHAR
STARTCHAR 304C
ENCODING 12364
SWIDTH 1000 0
DWIDTH 24 0
BBX 22 20 2 0
BITMAP
000038
040088
03006C
010060
010020
030300
03E080
FE3040
621020
061030
041010
041038
0811F8
081018
183000
343000
336000
61E000
41C000
408000
ENDCHAR
STARTCHAR 304D
ENCODING 12365
SWIDTH 1000 0
DWIDTH 24 0
BBX 17 19 4 0
BITMAP
070000
030000
019800
00F000
438000
3E4000
004380
803E00
40F000
3F9000
001000
000800
006800
001C00
200400
300000
180000
0FE000
07F800
ENDCHAR
STARTCHAR 304E
ENCODING 12366
SWIDTH 1000 0
DWIDTH 24 0
BBX 19 20 4 0
BITMAP
0000C0
070260
0301A0
019880
00F000
438000
3E4000
004380
803E00
40F000
3F9000
001000
000800
006800
001C00
200400
300000
180000
0FE000
07F800
ENDCHAR
STARTCHAR 304F
ENCODING 12367
SWIDTH 1000 0
DWIDTH 24 0
BBX 11 20 6 -1
BITMAP
00C0
00C0
0180
0700
0C00
1800
6000
C000
8000
8000
C000
3000
1800
0E00
0300
0180
01C0
00E0
0060
0020
ENDCHAR
STARTCHAR 3050
ENCODING 12368
SWIDTH 1000 0
DWIDTH 24 0
BBX 15 20 6 -1
BITMAP
00C0
00C0
0180
0700
0C08
1806
6076
C018
8018
8000
C000
3000
1800
0E00
0300
0180
01C0
00E0
0060
0020
ENDCHAR
STARTCHAR 3051
ENCODING 12369
SWIDTH 1000 0
DWIDTH 24 0
BBX 18 21 4 -2
BITMAP
801800
400C00
600C00
600C00
400C00
C80D80
C61F40
81F400
800400
800400
800400
A00C00
B00C00
A00C00
A00800
C00800
C01800
403000
406000
00C000
010000
ENDCHAR
STARTCHAR 3052
ENCODING 12370
SWIDTH 1000 0
DWIDTH 24 0
BBX 20 22 4 -2
BITMAP
0000E0
801A30
400DB0
600C80
600C80
400C00
C80D80
C61F40
81F400
800400
800400
800400
A00C00
B00C00
A00C00
A00800
C00800
C01800
403000
406000
00C000
010000
ENDCHAR
STARTCHAR 3053
ENCODING 12371
SWIDTH 1000 0
DWIDTH 24 0
BBX 16 16 4 1
BITMAP
3078
0FF8
00C0
0100
0200
0000
0000
0000
0000
0000
8000
8000
8000
4000
300E
0FFF
ENDCHAR
STARTCHAR 3054
ENCODING 12372
SWIDTH 1000 0
DWIDTH 24 0
BBX 19 19 4 1
BITMAP
0000C0
000260
0001A0
307980
0FF800
00C000
010000
020000
000000
000000
000000
000000
000000
800000
800000
800000
400000
300E00
0FFF00
ENDCHAR
STARTCHAR 3055
ENCODING 12373
SWIDTH 1000 0
DWIDTH 24 0
BBX 15 19 4 0
BITMAP
0700
0B00
0100
0186
009C
80F0
7F40
0060
0020
0030
0018
0048
003C
200C
2000
2000
1800
0FF8
03F8
ENDCHAR
STARTCHAR 3056
ENCODING 12374
SWIDTH 1000 0
DWIDTH 24 0
BBX 20 21 4 0
BITMAP
000080
000060
070330
0B01B0
010080
018600
009C00
80F000
7F4000
006000
002000
003000
001800
004800
003C00
200C00
200000
200000
180000
0FF800
03F800
ENDCHAR
STARTCHAR 3057
ENCODING 12375
SWIDTH 1000 0
DWIDTH 24 0
BBX 16 19 5 0
BITMAP
C000
6000
6000
6000
6000
6000
6000
6000
4000
4000
4000
4003
4002
4004
4004
6008
2010
3060
0F80
ENDCHAR
STARTCHAR 3058
ENCODING 12376
SWIDTH 1000 0
DWIDTH 24 0
BBX 16 19 5 0
BITMAP
C000
6000
6020
6018
60CC
606C
6030
6000
4000
4000
4000
4003
4002
4004
4004
6008
2010
3060
0F80
ENDCHAR
STARTCHAR 3059
ENCODING 12377
SWIDTH 1000 0
DWIDTH 24 0
BBX 20 22 2 -2
BITMAP
007000
003000
001000
001000
0013F0
FFFFF0
FC1000
001000
00D000
033000
021000
021800
021800
021800
033800
01F800
001800
001000
003000
002000
004000
008000
ENDCHAR
STARTCHAR 305A
ENCODING 12378
SWIDTH 1000 0
DWIDTH 24 0
BBX 21 23 2 -2
BITMAP
000030
007118
0030C8
001060
001060
0013F0
FFFFF0
FC1000
001000
00D000
033000
021000
021800
021800
021800
033800
01F800
001800
001000
003000
002000
004000
008000
ENDCHAR
STARTCHAR 305B
ENCODING 12379
SWIDTH 1000 0
DWIDTH 24 0
BBX 22 19 1 0
BITMAP
000300
180180
060180
020100
020100
020138
023FFC
FFC100
F20100
020300
021300
020E00
020600
020200
020000
020000
030040
0181E0
007F80
ENDCHAR
STARTCHAR 305C
ENCODING 12380
SWIDTH 1000 0
DWIDTH 24 0
BBX 23 21 1 0
BITMAP
000010
00000C
000366
1801B6
060190
020100
020100
020138
023FFC
FFC100
F20100
020300
021300
020E00
020600
020200
020000
020000
030040
0181E0
007F80
ENDCHAR
STARTCHAR 305D
ENCODING 12381
SWIDTH 1000 0
DWIDTH 24 0
BBX 19 19 2 0
BITMAP
000E00
0FFE00
070E00
001800
003000
00C000
018000
0207E0
8FF800
7E2000
704000
008000
018000
010000
018000
018000
00C000
007C00
003F00
ENDCHAR
STARTCHAR 305E
ENCODING 12382
SWIDTH 1000 0
DWIDTH 24 0
BBX 21 21 2 0
BITMAP
000020
000018
000EC8
0FFE60
070E20
001800
003000
00C000
018000
0207E0
8FF800
7E2000
704000
008000
018000
010000
018000
018000
00C000
007C00
003F00
ENDCHAR
STARTCHAR 305F
ENCODING 12383
SWIDTH 1000 0
DWIDTH 24 0
BBX 18 19 3 0
BITMAP
030000
010000
030000
020000
826000
47C000
3C0000
040F80
0C7F00
088C00
181000
100000
300000
200000
600000
408000
C08000
8060C0
801FC0
ENDCHAR
STARTCHAR 3060
ENCODING 12384
SWIDTH 1000 0
DWIDTH 24 0
BBX 18 20 3 0
BITMAP
000100
0300C0
010640
030340
020100
826000
47C000
3C0000
040F80
0C7F00
088C00
181000
100000
300000
200000
600000
408000
C08000
8060C0
801FC0
ENDCHAR
STARTCHAR 3061
ENCODING 12385
SWIDTH 1000 0
DWIDTH 24 0
BBX 17 19 3 0
BITMAP
0E0000
060000
060000
047000
85E000
7F0000
080000
080000
080000
083E00
19C300
1B0180
1C0180
080180
000180
000300
000600
000C00
03F000
ENDCHAR
STARTCHAR 3062
ENCODING 12386
SWIDTH 1000 0
DWIDTH 24 0
BBX 18 20 3 0
BITMAP
000300
0E0880
0604C0
060600
047200
85E000
7F0000
080000
080000
080000
083E00
19C300
1B0180
1C0180
080180
000180
000300
000600
000C00
03F000
ENDCHAR
STARTCHAR 3063
ENCODING 12387
SWIDTH 1000 0
DWIDTH 24 0
BBX 16 11 4 1
BITMAP
01F8
9F06
F802
E003
0003
0003
0003
0006
000C
0030
07C0
ENDCHAR
STARTCHAR 3064
ENCODING 12388
SWIDTH 1000 0
DWIDTH 24 0
BBX 19 13 2 2
BITMAP
007F00
0FC1C0
FE0040
780060
000020
000020
000060
000060
000040
0000C0
000300
000E00
01F000
ENDCHAR
STARTCHAR 3065
ENCODING 12389
SWIDTH 1000 0
DWIDTH 24 0
BBX 21 19 2 2
BITMAP
000020
000018
0000C8
000068
000020
000000
007F00
0FC1C0
FE0040
780060
000020
000020
000060
000060
000040
0000C0
000300
000E00
01F000
ENDCHAR
STARTCHAR 3066
ENCODING 12390
SWIDTH 1000 0
DWIDTH 24 0
BBX 19 17 2 0
BITMAP
0007E0
83F800
FC3000
604000
00C000
008000
018000
010000
010000
010000
010000
010000
018000
018000
00E000
007F80
001F80
ENDCHAR
STARTCHAR 3067
ENCODING 12391
SWIDTH 1000 0
DWIDTH 24 0
BBX 20 17 2 0
BITMAP
0007E0
83F800
FC3000
604040
00C030
0081B0
0180D0
010040
010000
010000
010000
010000
018000
018000
00E000
007F80
001F80
ENDCHAR
STARTCHAR 3068
ENCODING 12392
SWIDTH 1000 0
DWIDTH 24 0
BBX 14 19 5 0
BITMAP
3000
1800
1800
1800
1810
0818
0878
08E0
0F80
0E00
1800
3000
4000
C000
8000
8000
8000
601C
1FF8
ENDCHAR
STARTCHAR 3069
ENCODING 12393
SWIDTH 1000 0
DWIDTH 24 0
BBX 18 20 5 0
BITMAP
000300
300180
180CC0
180600
180200
181000
081800
087800
08E000
0F8000
0E0000
180000
300000
400000
C00000
800000
800000
800000
601C00
1FF800
ENDCHAR
STARTCHAR 306A
ENCODING 12394
SWIDTH 1000 0
DWIDTH 24 0
BBX 18 20 3 0
BITMAP
060000
030000
020000
02C000
47EE00
3E0180
0403C0
0804C0
180000
101000
301000
601000
601000
C01800
83F800
061C00
0C1F00
0819C0
041840
03F000
ENDCHAR
STARTCHAR 306B
ENCODING 12395
SWIDTH 1000 0
DWIDTH 24 0
BBX 17 18 4 0
BITMAP
C00000
600000
61FF00
401C00
402000
C04000
800000
800000
800000
800000
900000
A00000
A20000
E20000
C18000
C07F80
400000
400000
ENDCHAR
STARTCHAR 306C
ENCODING 12396
SWIDTH 1000 0
DWIDTH 24 0
BBX 20 18 2 1
BITMAP
00E000
106000
102000
086000
08FC00
0B6300
0C4180
1840C0
184060
2C8060
648060
450060
450060
C60F60
C310C0
C710E0
4911B0
700F10
ENDCHAR
STARTCHAR 306D
ENCODING 12397
SWIDTH 1000 0
DWIDTH 24 0
BBX 21 19 2 0
BITMAP
060000
030000
020000
020000
030F00
7F1180
7360C0
028040
030060
060060
0A0060
1A0060
320060
620F60
7210C0
CA20E0
8620B0
061198
060F08
ENDCHAR
STARTCHAR 306E
ENCODING 12398
SWIDTH 1000 0
DWIDTH 24 0
BBX 20 17 2 0
BITMAP
01FC00
064700
0C4180
1040C0
204060
60C060
40C020
408030
C08030
C18030
C10020
C20060
C60040
6C00C0
380180
000E00
003000
ENDCHAR
STARTCHAR 306F
ENCODING 12399
SWIDTH 1000 0
DWIDTH 24 0
BBX 20 19 3 0
BITMAP
401800
600C00
200C00
600C00
600C00
420DC0
41FF00
400400
400400
800400
800400
900400
900400
A0F400
A30F00
E205C0
C20460
430C30
40F800
ENDCHAR
STARTCHAR 3070
ENCODING 12400
SWIDTH 1000 0
DWIDTH 24 0
BBX 20 21 3 0
BITMAP
000080
000060
401930
600CD0
200CC0
600C00
600C00
420DC0
41FF00
400400
400400
800400
800400
900400
900400
A0F400
A30F00
E205C0
C20460
430C30
40F800
ENDCHAR
STARTCHAR 3071
ENCODING 12401
SWIDTH 1000 0
DWIDTH 24 0
BBX 20 20 3 0
BITMAP
0000F0
401910
600D10
200CE0
600C00
600C00
420DC0
41FF00
400400
400400
800400
800400
900400
900400
A0F400
A30F00
E205C0
C20460
430C30
40F800
ENDCHAR
STARTCHAR 3072
ENCODING 12402
SWIDTH 1000 0
DWIDTH 24 0
BBX 19 19 3 0
BITMAP
000C00
030C00
070C00
BA0A00
E40700
C80500
180580
1004E0
200460
200420
400400
400400
400400
400400
600C00
600800
383800
1FF000
0FC000
ENDCHAR
STARTCHAR 3073
ENCODING 12403
SWIDTH 1000 0
DWIDTH 24 0
BBX 21 20 3 0
BITMAP
000060
000D18
030CD8
070C40
BA0A40
E40700
C80500
180580
1004E0
200460
200420
400400
400400
400400
400400
600C00
600800
383800
1FF000
0FC000
ENDCHAR
STARTCHAR 3074
ENCODING 12404
SWIDTH 1000 0
DWIDTH 24 0
BBX 20 20 3 0
BITMAP
0000E0
000C90
030D10
070C90
BA0AE0
E40700
C80500
180580
1004E0
200460
200420
400400
400400
400400
400400
600C00
600800
383800
1FF000
0FC000
ENDCHAR
STARTCHAR 3075
ENCODING 12405
SWIDTH 1000 0
DWIDTH 24 0
BBX 22 19 1 0
BITMAP
008000
006000
001E00
002200
004000
000000
000000
004000
002000
002180
003060
021830
030818
040C18
980C0C
70040C
620C00
010C00
00F800
ENDCHAR
STARTCHAR 3076
ENCODING 12406
SWIDTH 1000 0
DWIDTH 24 0
BBX 22 19 1 0
BITMAP
008000
006030
001E88
00224C
004060
000020
000000
004000
002000
002180
003060
021830
030818
040C18
980C0C
70040C
620C00
010C00
00F800
ENDCHAR
STARTCHAR 3077
ENCODING 12407
SWIDTH 1000 0
DWIDTH 24 0
BBX 22 19 1 0
BITMAP
008000
006078
001E48
002288
004048
000070
000000
004000
002000
002180
003060
021830
030818
040C18
980C0C
70040C
620C00
010C00
00F800
ENDCHAR
STARTCHAR 3078
ENCODING 12408
SWIDTH 1000 0
DWIDTH 24 0
BBX 20 12 2 3
BITMAP
018000
034000
066000
0C3000
081800
180C00
B00600
E00300
6001C0
0000E0
000070
000030
ENDCHAR
STARTCHAR 3079
ENCODING 12409
SWIDTH 1000 0
DWIDTH 24 0
BBX 20 15 2 3
BITMAP
000100
0008C0
0006C0
018300
034300
066000
0C3000
081800
180C00
B00600
E00300
6001C0
0000E0
000070
000030
ENDCHAR
STARTCHAR 307A
ENCODING 12410
SWIDTH 1000 0
DWIDTH 24 0
BBX 20 15 2 3
BITMAP
000380
000240
000440
018240
034380
066000
0C3000
081800
180C00
B00600
E00300
6001C0
0000E0
000070
000030
ENDCHAR
STARTCHAR 307B
ENCODING 12411
SWIDTH 1000 0
DWIDTH 24 0
BBX 20 19 3 0
BITMAP
400000
220380
21FF80
200C00
600C00
600C00
400C00
430FE0
40FF00
C00400
800400
900400
900400
A0FC00
A30F00
E205C0
420460
430C30
40F800
ENDCHAR
STARTCHAR 307C
ENCODING 12412
SWIDTH 1000 0
DWIDTH 24 0
BBX 21 21 3 0
BITMAP
000040
000030
400198
2206D8
21FF40
200C00
600C00
600C00
400C00
430FE0
40FF00
C00400
800400
900400
900400
A0FC00
A30F00
E205C0
420460
430C30
40F800
ENDCHAR
STARTCHAR 307D
ENCODING 12413
SWIDTH 1000 0
DWIDTH 24 0
BBX 21 21 3 0
BITMAP
000060
000090
400088
220688
21FF70
200C00
600C00
600C00
400C00
430FE0
40FF00
C00400
800400
900400
900400
A0FC00
A30F00
E205C0
420460
430C30
40F800
ENDCHAR
STARTCHAR 307E
ENCODING 12414
SWIDTH 1000 0
DWIDTH 24 0
BBX 16 19 4 0
BITMAP
0180
00C0
0080
0086
C0FE
3F80
0080
0080
408E
3FFC
0080
0080
0080
00C0
3FE0
40FC
40C7
40C3
3F00
ENDCHAR
STARTCHAR 307F
ENCODING 12415
SWIDTH 1000 0
DWIDTH 24 0
BBX 21 19 2 -1
BITMAP
083000
0FD000
0E3800
003000
006000
006000
0041C0
00C0C0
07C0C0
39B8C0
610780
4201C0
C601E0
840138
C80318
700200
000400
000800
003000
ENDCHAR
STARTCHAR 3080
ENCODING 12416
SWIDTH 1000 0
DWIDTH 24 0
BBX 20 20 2 0
BITMAP
060000
060000
020000
020000
82E100
7FC0C0
060060
060020
1C0030
2401F0
440030
C60020
C40000
CC0200
740200
0C0200
080100
080100
0C0780
03FF00
ENDCHAR
STARTCHAR 3081
ENCODING 12417
SWIDTH 1000 0
DWIDTH 24 0
BBX 20 20 2 -1
BITMAP
006000
103000
083000
083000
08FE00
0B2180
0C60C0
1C6060
3C4020
24C030
648030
448030
C70030
C30020
C30060
C58060
4880C0
700380
000E00
007000
ENDCHAR
STARTCHAR 3082
ENCODING 12418
SWIDTH 1000 0
DWIDTH 24 0
BBX 16 20 3 -1
BITMAP
0700
0300
0300
0200
8230
47F0
3E00
0400
0400
0400
4CF2
3FE1
0801
0801
0801
0801
0C03
0606
03FC
01F8
ENDCHAR
STARTCHAR 3083
ENCODING 12419
SWIDTH 1000 0
DWIDTH 24 0
BBX 18 18 3 -2
BITMAP
018000
00E000
386000
080000
0C1F00
04E180
0700C0
1E00C0
FA0080
624180
013F00
010000
018000
008000
008000
00C000
004000
004000
ENDCHAR
STARTCHAR 3084
ENCODING 12420
SWIDTH 1000 0
DWIDTH 24 0
BBX 20 20 2 -1
BITMAP
01C000
007000
383000
080000
0C0F80
047060
07C030
070030
1E0030
F10030
612020
019860
008780
00C000
00C000
004000
006000
006000
003000
002000
ENDCHAR
STARTCHAR 3085
ENCODING 12421
SWIDTH 1000 0
DWIDTH 24 0
BBX 16 18 4 -2
BITMAP
00C0
0040
C040
4078
41E6
4263
4463
8861
9061
9061
A043
6442
634C
60F8
2080
0180
0100
0600
ENDCHAR
STARTCHAR 3086
ENCODING 12422
SWIDTH 1000 0
DWIDTH 24 0
BBX 19 20 3 -1
BITMAP
006000
003000
C03000
403E00
40D380
4110C0
C210C0
841040
881060
881060
901040
B01040
A030C0
E33180
60A300
607C00
204000
004000
008000
030000
ENDCHAR
STARTCHAR 3087
ENCODING 12423
SWIDTH 1000 0
DWIDTH 24 0
BBX 14 17 5 -1
BITMAP
0700
0300
0300
0300
0318
03F8
0300
0300
0100
0100
0100
0100
3F80
C1F0
8138
C30C
3E00
ENDCHAR
STARTCHAR 3088
ENCODING 12424
SWIDTH 1000 0
DWIDTH 24 0
BBX 16 19 4 0
BITMAP
0380
0180
0180
0180
0180
0186
01FC
0180
0080
0080
0080
0080
0080
3F80
C1F0
80BC
808F
C183
3F00
ENDCHAR
STARTCHAR 3089
ENCODING 12425
SWIDTH 1000 0
DWIDTH 24 0
BBX 15 21 5 -1
BITMAP
4000
3000
0F80
0F80
1000
4000
2000
6000
6000
4000
41F0
CE0C
D806
F006
E006
4006
0006
000C
0038
01C0
0E00
ENDCHAR
STARTCHAR 308A
ENCODING 12426
SWIDTH 1000 0
DWIDTH 24 0
BBX 12 20 6 -1
BITMAP
00C0
C060
6020
6020
4020
4030
C030
A030
B030
A030
C030
C020
C020
4060
0060
00C0
00C0
0180
0600
1800
ENDCHAR
STARTCHAR 308B
ENCODING 12427
SWIDTH 1000 0
DWIDTH 24 0
BBX 17 19 3 0
BITMAP
001000
10F800
1F3800
0C6000
00C000
018000
030000
060000
0CF800
1F0600
380300
700180
E00180
CF0180
098100
08C300
086600
046C00
03F000
ENDCHAR
STARTCHAR 308C
ENCODING 12428
SWIDTH 1000 0
DWIDTH 24 0
BBX 22 19 2 0
BITMAP
0E0000
060000
020000
020700
031980
7F2080
734080
068180
050180
0E0180
0C0180
140188
34018C
640188
D40198
CE0190
8E01F0
0600E0
040000
ENDCHAR
STARTCHAR 308D
ENCODING 12429
SWIDTH 1000 0
DWIDTH 24 0
BBX 17 19 3 0
BITMAP
001000
10F800
1F9800
0C2000
00C000
018000
030000
060000
0CFC00
1B0600
3C0300
700180
E00180
C00180
000180
000300
000700
001C00
03F000
ENDCHAR
STARTCHAR 308E
ENCODING 12430
SWIDTH 1000 0
DWIDTH 24 0
BBX 18 17 3 -1
BITMAP
0C0000
060000
060000
060000
061E00
7F6300
368180
050080
0600C0
0C00C0
1400C0
340080
740180
CC0300
CC0E00
063C00
040000
ENDCHAR
STARTCHAR 308F
ENCODING 12431
SWIDTH 1000 0
DWIDTH 24 0
BBX 20 19 2 0
BITMAP
0E0000
030000
020000
020000
020F80
7F10C0
736060
028020
030030
060030
0A0030
1A0030
320030
220030
520060
CA00E0
8603C0
061F00
060000
ENDCHAR
STARTCHAR 3090
ENCODING 12432
SWIDTH 1000 0
DWIDTH 24 0
BBX 19 19 2 0
BITMAP
006000
0FF000
063000
002000
006000
006000
007E00
01C380
06C0C0
188060
318020
210020
430020
427820
C6CC60
C48660
C8C2C0
706380
003E00
ENDCHAR
STARTCHAR 3091
ENCODING 12433
SWIDTH 1000 0
DWIDTH 24 0
BBX 20 19 2 0
BITMAP
083800
07DC00
073000
004000
018000
027E00
058300
0E0180
1BC180
126100
022600
01F800
008000
030000
0C0780
1708E0
799060
E0F030
C02030
ENDCHAR
STARTCHAR 3092
ENCODING 12434
SWIDTH 1000 0
DWIDTH 24 0
BBX 16 19 4 0
BITMAP
0700
0100
0330
82E0
7F80
0C00
0800
1006
2E07
711C
E1F0
C180
06C0
0CC0
1880
1000
1000
1800
07FE
ENDCHAR
STARTCHAR 3093
ENCODING 12435
SWIDTH 1000 0
DWIDTH 24 0
BBX 19 19 3 0
BITMAP
010000
008000
00C000
018000
010000
030000
020000
040000
0C0000
098000
16C020
184020
304040
304040
604040
404080
C06180
802300
801E00
ENDCHAR
STARTCHAR 3094
ENCODING 12436
SWIDTH 1000 0
DWIDTH 24 0
BBX 17 22 5 -1
BITMAP
000200
100100
080D80
07C680
07E600
080000
000000
03E000
1C3000
F01800
C01800
000800
000800
000800
001800
001800
001000
003000
006000
018000
060000
180000
ENDCHAR
STARTCHAR 3095
ENCODING 12437
SWIDTH 1000 0
DWIDTH 24 0
BBX 17 15 4 0
BITMAP
0E0000
060000
041000
040C00
FF8200
ECC100
084100
084080
104F80
104180
30C080
68C000
678000
C30000
C20000
ENDCHAR
STARTCHAR 3096
ENCODING 12438
SWIDTH 1000 0
DWIDTH 24 0
BBX 16 18 5 -2
BITMAP
8030
4010
6010
6010
4017
441E
43F8
C018
8018
8010
9010
A010
A010
E030
4020
4060
40C0
0100
ENDCHAR
STARTCHAR 3099
ENCODING 12441
SWIDTH 1000 0
DWIDTH 24 0
BBX 6 5 17 15
BITMAP
20
18
CC
60
20
ENDCHAR
STARTCHAR 309A
ENCODING 12442
SWIDTH 1000 0
DWIDTH 24 0
BBX 4 5 18 15
BITMAP
70
90
90
90
60
ENDCHAR
STARTCHAR 309B
ENCODING 12443
SWIDTH 1000 0
DWIDTH 24 0
BBX 6 5 1 15
BITMAP
10
38
CC
60
20
ENDCHAR
STARTCHAR 309C
ENCODING 12444
SWIDTH 1000 0
DWIDTH 24 0
BBX 5 5 1 15
BITMAP
70
88
88
88
70
ENDCHAR
STARTCHAR 309D
ENCODING 12445
SWIDTH 1000 0
DWIDTH 24 0
BBX 7 13 8 3
BITMAP
80
80
40
40
60
30
1C
0E
06
06
0E
18
20
ENDCHAR
STARTCHAR 309E
ENCODING 12446
SWIDTH 1000 0
DWIDTH 24 0
BBX 11 14 8 3
BITMAP
00C0
8460
8320
4180
4180
6000
3000
1C00
0E00
0600
0600
0E00
1800
2000
ENDCHAR
STARTCHAR 309F
ENCODING 12447
SWIDTH 1000 0
DWIDTH 24 0
BBX 14 21 5 -1
BITMAP
0200
0100
0180
0300
030C
06FC
0400
0800
1800
13C0
2C60
7020
E030
C030
8020
0020
0060
4040
2080
3100
1E00
ENDCHAR
STARTCHAR 30A0
ENCODING 12448
SWIDTH 1000 0
DWIDTH 24 0
BBX 10 4 7 7
BITMAP
FFC0
0000
0000
FFC0
ENDCHAR
STARTCHAR 30A1
ENCODING 12449
SWIDTH 1000 0
DWIDTH 24 0
BBX 16 17 4 -2
BITMAP
000E
FFFF
7C0C
0008
0010
0360
0180
0180
0180
0100
0100
0300
0200
0600
0C00
1800
2000
ENDCHAR
STARTCHAR 30A2
ENCODING 12450
SWIDTH 1000 0
DWIDTH 24 0
BBX 18 19 3 -1
BITMAP
000380
FFFFC0
7F0180
000300
000600
000800
01F000
00C000
00C000
00C000
00C000
008000
008000
018000
010000
030000
060000
0C0000
100000
ENDCHAR
STARTCHAR 30A3
ENCODING 12451
SWIDTH 1000 0
DWIDTH 24 0
BBX 14 17 4 -1
BITMAP
0010
000C
0018
0030
0060
00C0
0380
0680
1880
6080
8080
0080
0080
0080
0080
0080
0080
ENDCHAR
STARTCHAR 30A4
ENCODING 12452
SWIDTH 1000 0
DWIDTH 24 0
BBX 17 20 2 -1
BITMAP
000200
000380
000300
000600
000C00
003800
006000
00E000
032000
0C2000
302000
C02000
002000
002000
002000
002000
002000
002000
002000
002000
ENDCHAR
STARTCHAR 30A5
ENCODING 12453
SWIDTH 1000 0
DWIDTH 24 0
BBX 14 17 5 -1
BITMAP
0700
0300
0300
8318
7FEC
4008
4008
4018
6018
6010
6030
0020
0040
00C0
0180
0200
0C00
ENDCHAR
STARTCHAR 30A6
ENCODING 12454
SWIDTH 1000 0
DWIDTH 24 0
BBX 16 20 4 -1
BITMAP
0380
0180
0180
0182
C7FF
7803
6002
6006
6006
6006
6004
600C
0008
0018
0030
0060
00C0
0180
0200
0C00
ENDCHAR
STARTCHAR 30A7
ENCODING 12455
SWIDTH 1000 0
DWIDTH 24 0
BBX 18 11 3 2
BITMAP
200E00
1FFF00
00C000
00C000
00C000
00C000
00C000
00C000
00C000
80C380
7FFFC0
ENDCHAR
STARTCHAR 30A8
ENCODING 12456
SWIDTH 1000 0
DWIDTH 24 0
BBX 20 13 2 3
BITMAP
000180
300FC0
1FF000
006000
006000
006000
006000
006000
006000
006000
006000
8061E0
7FFFF0
ENDCHAR
STARTCHAR 30A9
ENCODING 12457
SWIDTH 1000 0
DWIDTH 24 0
BBX 18 17 3 -1
BITMAP
006000
003000
001000
001000
001380
20FFC0
1F5000
00D000
009000
011000
031000
061000
0C1000
191000
20F800
C03800
001000
ENDCHAR
STARTCHAR 30AA
ENCODING 12458
SWIDTH 1000 0
DWIDTH 24 0
BBX 20 19 2 0
BITMAP
001C00
000C00
000C00
000C00
000C60
601FF0
3FFC00
002C00
006C00
00CC00
00C400
018400
030400
060400
0C0400
188400
307C00
400C00
800400
ENDCHAR
STARTCHAR 30AB
ENCODING 12459
SWIDTH 1000 0
DWIDTH 24 0
BBX 18 20 3 -1
BITMAP
01C000
006000
004000
004000
00C180
7EDFC0
3FE0C0
008080
018180
018180
010180
030100
020100
060300
044300
083600
101E00
200C00
400800
800000
ENDCHAR
STARTCHAR 30AC
ENCODING 12460
SWIDTH 1000 0
DWIDTH 24 0
BBX 20 21 3 -1
BITMAP
0000E0
01C330
0061B0
004080
004000
00C180
7EDFC0
3FE0C0
008080
018180
018180
010180
030100
020100
060300
044300
083600
101E00
200C00
400800
800000
ENDCHAR
STARTCHAR 30AD
ENCODING 12461
SWIDTH 1000 0
DWIDTH 24 0
BBX 19 20 3 -1
BITMAP
070000
010000
018000
018000
008600
00FF00
FF8000
708000
00C000
0041C0
004FE0
03F000
FE6000
706000
002000
002000
003000
003000
003000
001000
ENDCHAR
STARTCHAR 30AE
ENCODING 12462
SWIDTH 1000 0
DWIDTH 24 0
BBX 20 21 3 -1
BITMAP
0000C0
070620
010130
018080
018080
008600
00FF00
FF8000
708000
00C000
0041C0
004FE0
03F000
FE6000
706000
002000
002000
003000
003000
003000
001000
ENDCHAR
STARTCHAR 30AF
ENCODING 12463
SWIDTH 1000 0
DWIDTH 24 0
BBX 17 19 3 0
BITMAP
020000
018000
01C000
018300
03FF80
030300
060300
0C0600
180600
300C00
600C00
801800
003000
006000
00C000
018000
030000
0C0000
700000
ENDCHAR
STARTCHAR 30B0
ENCODING 12464
SWIDTH 1000 0
DWIDTH 24 0
BBX 21 21 3 0
BITMAP
000040
000030
020198
0180C0
01C040
018300
03FF80
030300
060300
0C0600
180600
300C00
600C00
801800
003000
006000
00C000
018000
030000
0C0000
700000
ENDCHAR
STARTCHAR 30B1
ENCODING 12465
SWIDTH 1000 0
DWIDTH 24 0
BBX 20 19 2 0
BITMAP
060000
030000
030000
020000
0600E0
07FFF0
0C1800
081800
101800
201800
401800
801000
003000
003000
006000
004000
008000
010000
0E0000
ENDCHAR
STARTCHAR 30B2
ENCODING 12466
SWIDTH 1000 0
DWIDTH 24 0
BBX 22 21 2 0
BITMAP
000020
000018
0600CC
03006C
030030
020000
0600E0
07FFF0
0C1800
081800
101800
201800
401800
801000
003000
003000
006000
004000
008000
010000
0E0000
ENDCHAR
STARTCHAR 30B3
ENCODING 12467
SWIDTH 1000 0
DWIDTH 24 0
BBX 14 14 5 2
BITMAP
FFFC
7E0C
000C
000C
0008
0008
0008
0008
0008
0008
0008
8008
FFFC
7800
ENDCHAR
STARTCHAR 30B4
ENCODING 12468
SWIDTH 1000 0
DWIDTH 24 0
BBX 18 19 5 2
BITMAP
000100
0000C0
000640
000300
000300
FFFC00
7E0C00
000C00
000C00
000800
000800
000800
000800
000800
000800
000800
800800
FFFC00
780000
ENDCHAR
STARTCHAR 30B5
ENCODING 12469
SWIDTH 1000 0
DWIDTH 24 0
BBX 20 20 2 -1
BITMAP
000C00
0E0600
060600
060400
020400
020460
83FFF0
7E0400
060400
060400
060400
060400
060C00
000C00
000800
001800
003000
006000
018000
060000
ENDCHAR
STARTCHAR 30B6
ENCODING 12470
SWIDTH 1000 0
DWIDTH 24 0
BBX 21 22 2 -1
BITMAP
000040
000030
000C98
0E0668
060660
060400
020400
020460
83FFF0
7E0400
060400
060400
060400
060400
060C00
000C00
000800
001800
003000
006000
018000
060000
ENDCHAR
STARTCHAR 30B7
ENCODING 12471
SWIDTH 1000 0
DWIDTH 24 0
BBX 19 18 3 0
BITMAP
1C0000
070000
018000
018020
800040
700040
180080
0C0100
0C0300
000200
000400
001800
003000
006000
01C000
270000
3C0000
180000
ENDCHAR
STARTCHAR 30B8
ENCODING 12472
SWIDTH 1000 0
DWIDTH 24 0
BBX 19 21 3 0
BITMAP
000080
000060
000720
1C0180
070180
018000
018020
800040
700040
180080
0C0100
0C0300
000200
000400
001800
003000
006000
01C000
270000
3C0000
180000
ENDCHAR
STARTCHAR 30B9
ENCODING 12473
SWIDTH 1000 0
DWIDTH 24 0
BBX 19 17 2 0
BITMAP
100600
0FFE00
0F0600
000C00
000C00
001800
001800
003000
006000
007800
00C600
018380
0301C0
0C00E0
180060
600020
800000
ENDCHAR
STARTCHAR 30BA
ENCODING 12474
SWIDTH 1000 0
DWIDTH 24 0
BBX 21 21 2 0
BITMAP
000040
000030
000190
0000D8
100640
0FFE00
0F0600
000C00
000C00
001800
001800
003000
006000
007800
00C600
018380
0301C0
0C00E0
180060
600020
800000
ENDCHAR
STARTCHAR 30BB
ENCODING 12475
SWIDTH 1000 0
DWIDTH 24 0
BBX 18 18 2 0
BITMAP
0E0000
020000
020000
020080
0207C0
027CC0
FFC180
7A0300
020600
020C00
021000
020000
020000
020000
020000
030000
018380
007F80
ENDCHAR
STARTCHAR 30BC
ENCODING 12476
SWIDTH 1000 0
DWIDTH 24 0
BBX 21 20 2 0
BITMAP
000030
000098
0E0048
020060
020020
020080
0207C0
027CC0
FFC180
7A0300
020600
020C00
021000
020000
020000
020000
020000
030000
018380
007F80
ENDCHAR
STARTCHAR 30BD
ENCODING 12477
SWIDTH 1000 0
DWIDTH 24 0
BBX 16 18 4 0
BITMAP
0006
8003
C003
6003
3006
3006
3804
100C
0008
0018
0030
0030
0060
00C0
0180
0200
0C00
3000
ENDCHAR
STARTCHAR 30BE
ENCODING 12478
SWIDTH 1000 0
DWIDTH 24 0
BBX 20 21 4 0
BITMAP
000040
000230
0001B0
0004C0
8002C0
C00300
600300
300600
300600
380400
100C00
000800
001800
001000
003000
006000
00C000
018000
020000
0C0000
300000
ENDCHAR
STARTCHAR 30BF
ENCODING 12479
SWIDTH 1000 0
DWIDTH 24 0
BBX 16 20 4 -1
BITMAP
0300
0100
0306
037F
0686
0406
0C04
180C
3608
6318
C0D0
8070
0070
00D8
0188
0300
0600
1800
6000
8000
ENDCHAR
STARTCHAR 30C0
ENCODING 12480
SWIDTH 1000 0
DWIDTH 24 0
BBX 20 22 4 -1
BITMAP
0000C0
000060
030330
010180
030680
037F00
068600
040600
0C0400
180C00
360800
631800
C0D000
807000
007000
00D800
018800
030000
060000
180000
600000
800000
ENDCHAR
STARTCHAR 30C1
ENCODING 12481
SWIDTH 1000 0
DWIDTH 24 0
BBX 20 20 2 -1
BITMAP
000200
000700
001E00
01F000
3E3000
002000
002000
0020E0
807FF0
7FA000
002000
002000
006000
004000
00C000
008000
018000
020000
0C0000
100000
ENDCHAR
STARTCHAR 30C2
ENCODING 12482
SWIDTH 1000 0
DWIDTH 24 0
BBX 21 22 2 -1
BITMAP
000020
000018
0002C8
000760
001E20
01F000
3E3000
002000
002000
0020E0
807FF0
7FA000
002000
002000
006000
004000
00C000
008000
018000
020000
0C0000
100000
ENDCHAR
STARTCHAR 30C3
ENCODING 12483
SWIDTH 1000 0
DWIDTH 24 0
BBX 15 16 4 -1
BITMAP
0008
0406
8206
4306
6304
310C
200C
0018
0010
0030
0060
00C0
0180
0300
0C00
1000
ENDCHAR
STARTCHAR 30C4
ENCODING 12484
SWIDTH 1000 0
DWIDTH 24 0
BBX 18 18 3 0
BITMAP
040200
020180
8301C0
C18180
618180
618100
318300
200300
000600
000400
000C00
001800
003000
006000
00C000
018000
060000
180000
ENDCHAR
STARTCHAR 30C5
ENCODING 12485
SWIDTH 1000 0
DWIDTH 24 0
BBX 21 21 3 0
BITMAP
000020
000018
0000D8
040260
0201A0
830180
C18180
618180
618100
318300
200300
000600
000400
000C00
001800
003000
006000
00C000
018000
060000
180000
ENDCHAR
STARTCHAR 30C6
ENCODING 12486
SWIDTH 1000 0
DWIDTH 24 0
BBX 20 19 2 -1
BITMAP
080F00
0FF800
000000
000000
000000
000000
8000F0
403F00
3FE000
002000
002000
006000
006000
006000
004000
00C000
018000
030000
0C0000
ENDCHAR
STARTCHAR 30C7
ENCODING 12487
SWIDTH 1000 0
DWIDTH 24 0
BBX 22 22 2 -1
BITMAP
000010
00000C
0000CC
080F20
0FF830
000000
000000
000000
000000
8000F0
403F00
3FE000
002000
002000
006000
006000
006000
004000
00C000
018000
030000
0C0000
ENDCHAR
STARTCHAR 30C8
ENCODING 12488
SWIDTH 1000 0
DWIDTH 24 0
BBX 11 20 8 -1
BITMAP
C000
6000
6000
6000
6000
6000
6000
7000
6E00
6380
61C0
60E0
6060
6000
6000
6000
6000
6000
6000
6000
ENDCHAR
STARTCHAR 30C9
ENCODING 12489
SWIDTH 1000 0
DWIDTH 24 0
BBX 12 20 8 -1
BITMAP
C000
6000
6060
6130
60D0
60C0
6000
7000
6E00
6380
61C0
60E0
6060
6000
6000
6000
6000
6000
6000
6000
ENDCHAR
STARTCHAR 30CA
ENCODING 12490
SWIDTH 1000 0
DWIDTH 24 0
BBX 20 21 2 -2
BITMAP
006000
003000
003000
003000
003000
003000
0030E0
FFFFF0
7C3000
003000
002000
002000
006000
006000
004000
00C000
018000
010000
020000
0C0000
100000
ENDCHAR
STARTCHAR 30CB
ENCODING 12491
SWIDTH 1000 0
DWIDTH 24 0
BBX 20 12 2 3
BITMAP
100700
0FFF80
000000
000000
000000
000000
000000
000000
000000
8001E0
FFFFF0
700000
ENDCHAR
STARTCHAR 30CC
ENCODING 12492
SWIDTH 1000 0
DWIDTH 24 0
BBX 16 18 3 0
BITMAP
0006
3FFF
1F07
0006
000C
000C
0808
0618
01F0
0070
0078
00CC
0186
0303
0601
0800
3000
C000
ENDCHAR
STARTCHAR 30CD
ENCODING 12493
SWIDTH 1000 0
DWIDTH 24 0
BBX 19 21 2 -1
BITMAP
030000
00E000
003000
001000
000000
1FFC00
0FC600
000C00
001800
003000
006000
00EC00
01A380
0221C0
0C20E0
102060
602000
802000
002000
006000
006000
ENDCHAR
STARTCHAR 30CE
ENCODING 12494
SWIDTH 1000 0
DWIDTH 24 0
BBX 14 18 4 0
BITMAP
0010
000C
000C
000C
0018
0018
0030
0030
0060
0060
00C0
0180
0300
0600
0C00
1800
6000
8000
ENDCHAR
STARTCHAR 30CF
ENCODING 12495
SWIDTH 1000 0
DWIDTH 24 0
BBX 20 14 2 2
BITMAP
060800
038400
030200
030100
030180
0600C0
060060
0C0060
080030
180030
300030
200010
400000
800000
ENDCHAR
STARTCHAR 30D0
ENCODING 12496
SWIDTH 1000 0
DWIDTH 24 0
BBX 20 18 2 2
BITMAP
000060
000330
0001B0
0000C0
060800
038400
030200
030100
030180
0600C0
060060
0C0060
080030
180030
300030
200010
400000
800000
ENDCHAR
STARTCHAR 30D1
ENCODING 12497
SWIDTH 1000 0
DWIDTH 24 0
BBX 20 18 2 2
BITMAP
0000E0
000110
000110
000110
0608E0
038400
030200
030100
030180
0600C0
060060
0C0060
080030
180030
300030
200010
400000
800000
ENDCHAR
STARTCHAR 30D2
ENCODING 12498
SWIDTH 1000 0
DWIDTH 24 0
BBX 16 18 4 0
BITMAP
E000
6000
6000
200C
200E
203C
2070
2180
2E00
3000
2000
2000
2000
2000
2000
3003
180F
07FE
ENDCHAR
STARTCHAR 30D3
ENCODING 12499
SWIDTH 1000 0
DWIDTH 24 0
BBX 19 20 4 0
BITMAP
000180
000440
E00260
600300
600100
200C00
200E00
203C00
207000
218000
2E0000
300000
200000
200000
200000
200000
200000
300300
180F00
07FE00
ENDCHAR
STARTCHAR 30D4
ENCODING 12500
SWIDTH 1000 0
DWIDTH 24 0
BBX 18 20 4 0
BITMAP
000380
000240
E00440
600240
600380
200C00
200E00
203C00
207000
218000
2E0000
300000
200000
200000
200000
200000
200000
300300
180F00
07FE00
ENDCHAR
STARTCHAR 30D5
ENCODING 12501
SWIDTH 1000 0
DWIDTH 24 0
BBX 16 17 4 0
BITMAP
0006
FFFF
7C03
0006
0006
0006
000C
000C
0018
0010
0030
0060
00C0
0180
0600
0C00
3000
ENDCHAR
STARTCHAR 30D6
ENCODING 12502
SWIDTH 1000 0
DWIDTH 24 0
BBX 20 21 4 0
BITMAP
000040
000030
0003B0
0000C0
0006C0
FFFF00
7C0300
000600
000600
000600
000C00
000C00
001800
001000
003000
006000
00C000
018000
060000
0C0000
300000
ENDCHAR
STARTCHAR 30D7
ENCODING 12503
SWIDTH 1000 0
DWIDTH 24 0
BBX 20 21 4 0
BITMAP
0000E0
000110
000110
000110
0006E0
FFFF00
7C0300
000600
000600
000400
000C00
000800
001800
003000
002000
006000
00C000
018000
060000
0C0000
300000
ENDCHAR
STARTCHAR 30D8
ENCODING 12504
SWIDTH 1000 0
DWIDTH 24 0
BBX 20 11 2 4
BITMAP
018000
034000
062000
0C1000
080C00
180600
B00300
E00180
6000E0
000070
000010
ENDCHAR
STARTCHAR 30D9
ENCODING 12505
SWIDTH 1000 0
DWIDTH 24 0
BBX 20 14 2 4
BITMAP
000180
000040
000660
018300
034100
062000
0C1000
080C00
180600
B00300
E00180
6000E0
000070
000010
ENDCHAR
STARTCHAR 30DA
ENCODING 12506
SWIDTH 1000 0
DWIDTH 24 0
BBX 20 14 2 4
BITMAP
000180
000240
000440
018240
0341C0
062000
0C1000
080C00
180600
B00300
E00180
6000E0
000070
000010
ENDCHAR
STARTCHAR 30DB
ENCODING 12507
SWIDTH 1000 0
DWIDTH 24 0
BBX 19 20 2 -1
BITMAP
00E000
006000
006000
006000
002000
8021C0
40FFE0
3F2000
002000
102200
082100
082080
1020C0
102060
302060
602060
E32020
40E000
006000
004000
ENDCHAR
STARTCHAR 30DC
ENCODING 12508
SWIDTH 1000 0
DWIDTH 24 0
BBX 21 21 2 -1
BITMAP
000030
00E118
0060C8
006060
006060
002000
8021C0
40FFE0
3F2000
002000
102200
082100
082080
1020C0
102060
302060
602060
E32020
40E000
006000
004000
ENDCHAR
STARTCHAR 30DD
ENCODING 12509
SWIDTH 1000 0
DWIDTH 24 0
BBX 21 21 2 -1
BITMAP
000060
00E090
006088
006088
006070
002000
8021C0
40FFE0
3F2000
002000
102200
082100
082080
1020C0
102060
302060
602060
E32020
40E000
006000
004000
ENDCHAR
STARTCHAR 30DE
ENCODING 12510
SWIDTH 1000 0
DWIDTH 24 0
BBX 18 15 3 1
BITMAP
800380
FFFFC0
780180
000300
000200
000600
100C00
0C1800
032000
01C000
00C000
006000
007000
003000
003000
ENDCHAR
STARTCHAR 30DF
ENCODING 12511
SWIDTH 1000 0
DWIDTH 24 0
BBX 13 17 5 0
BITMAP
3F80
01E0
0060
0000
0000
7F00
03C0
00E0
0060
0000
0000
FC00
0780
01E0
0070
0038
0018
ENDCHAR
STARTCHAR 30E0
ENCODING 12512
SWIDTH 1000 0
DWIDTH 24 0
BBX 19 18 2 0
BITMAP
00C000
006000
006000
00C000
00C000
018000
018000
011000
030C00
020600
060300
040100
0C0080
0807C0
10F8C0
FF8060
780060
000060
ENDCHAR
STARTCHAR 30E1
ENCODING 12513
SWIDTH 1000 0
DWIDTH 24 0
BBX 15 19 3 0
BITMAP
0010
000E
0006
0006
000C
000C
0818
0718
00F0
0070
0078
00CE
0186
0302
0600
0C00
1800
2000
C000
ENDCHAR
STARTCHAR 30E2
ENCODING 12514
SWIDTH 1000 0
DWIDTH 24 0
BBX 19 16 2 1
BITMAP
401E00
3FFF00
018000
018000
018000
018000
8183C0
83FCE0
7D8000
018000
018000
018000
018000
018000
00C180
007F80
ENDCHAR
STARTCHAR 30E3
ENCODING 12515
SWIDTH 1000 0
DWIDTH 24 0
BBX 16 17 4 -1
BITMAP
1C00
0C00
0400
0400
0606
03FF
FE0C
7208
0210
0120
0100
0100
0100
0180
0180
0080
0080
ENDCHAR
STARTCHAR 30E4
ENCODING 12516
SWIDTH 1000 0
DWIDTH 24 0
BBX 18 20 3 -1
BITMAP
1C0000
060000
060000
020000
020180
020EC0
03F180
FF0300
710200
010400
010800
019000
008000
008000
008000
00C000
00C000
00C000
004000
004000
ENDCHAR
STARTCHAR 30E5
ENCODING 12517
SWIDTH 1000 0
DWIDTH 24 0
BBX 18 11 3 2
BITMAP
100800
0FFC00
000C00
000800
000800
000800
000800
000800
000800
C03FC0
7FC000
ENDCHAR
STARTCHAR 30E6
ENCODING 12518
SWIDTH 1000 0
DWIDTH 24 0
BBX 20 13 2 3
BITMAP
000600
1FFF00
0F8300
000200
000200
000200
000600
000600
000600
000600
000400
FFF7F0
7C0810
ENDCHAR
STARTCHAR 30E7
ENCODING 12519
SWIDTH 1000 0
DWIDTH 24 0
BBX 12 13 6 1
BITMAP
8030
7FF0
0030
0020
0020
4060
3FA0
0020
0020
0020
0020
80F0
7F00
ENDCHAR
STARTCHAR 30E8
ENCODING 12520
SWIDTH 1000 0
DWIDTH 24 0
BBX 15 15 4 2
BITMAP
000C
7FFE
3E06
0004
0004
0004
4004
207C
1F8C
000C
000C
000C
000C
FFFE
7F00
ENDCHAR
STARTCHAR 30E9
ENCODING 12521
SWIDTH 1000 0
DWIDTH 24 0
BBX 16 19 4 -1
BITMAP
2038
1FF8
0000
0000
0000
800E
FFFE
7807
000C
000C
0018
0018
0030
0060
00C0
0180
0200
0C00
3000
ENDCHAR
STARTCHAR 30EA
ENCODING 12522
SWIDTH 1000 0
DWIDTH 24 0
BBX 11 20 6 -1
BITMAP
00E0
8060
6060
6060
6060
4060
4060
4060
4060
4060
4060
6060
4040
00C0
00C0
0180
0300
0600
0800
3000
ENDCHAR
STARTCHAR 30EB
ENCODING 12523
SWIDTH 1000 0
DWIDTH 24 0
BBX 21 18 2 0
BITMAP
007000
001000
0E1000
021000
031000
021000
021008
021008
061010
061020
041060
0C10C0
081180
181300
301E00
603C00
C03800
001000
ENDCHAR
STARTCHAR 30EC
ENCODING 12524
SWIDTH 1000 0
DWIDTH 24 0
BBX 16 18 5 0
BITMAP
C000
6000
6000
6000
6000
6001
2002
2004
200C
2018
2030
2060
6180
6300
6E00
7800
7000
2000
ENDCHAR
STARTCHAR 30ED
ENCODING 12525
SWIDTH 1000 0
DWIDTH 24 0
BBX 16 16 4 1
BITMAP
8000
C01F
7FE3
6003
6002
6002
6006
6006
6006
6006
6004
6004
6004
7FFE
6000
6000
ENDCHAR
STARTCHAR 30EE
ENCODING 12526
SWIDTH 1000 0
DWIDTH 24 0
BBX 14 16 5 -1
BITMAP
0008
C0FC
7F0C
6008
6018
6018
6010
6010
6030
0020
0040
00C0
0180
0300
0400
1800
ENDCHAR
STARTCHAR 30EF
ENCODING 12527
SWIDTH 1000 0
DWIDTH 24 0
BBX 16 19 4 -1
BITMAP
0002
C01F
7FE3
6002
6006
6006
6006
6004
600C
6008
0018
0010
0030
0060
00C0
0180
0300
0400
1800
ENDCHAR
STARTCHAR 30F0
ENCODING 12528
SWIDTH 1000 0
DWIDTH 24 0
BBX 19 20 3 -1
BITMAP
006000
003000
003000
003000
403300
3FFF80
0C3000
0C3000
0C3000
0C3000
0C3000
0C3000
CCFFC0
7F3020
003000
003000
003000
003000
003000
002000
ENDCHAR
STARTCHAR 30F1
ENCODING 12529
SWIDTH 1000 0
DWIDTH 24 0
BBX 20 15 2 2
BITMAP
000180
200F80
1FF380
000600
000C00
019000
006000
006000
006000
006000
006000
006000
006000
807FF0
7F8000
ENDCHAR
STARTCHAR 30F2
ENCODING 12530
SWIDTH 1000 0
DWIDTH 24 0
BBX 16 18 4 -1
BITMAP
FFFE
7FC3
0003
0006
0006
803C
7FCC
000C
0018
0018
0030
0020
0060
00C0
0180
0200
0C00
1000
ENDCHAR
STARTCHAR 30F3
ENCODING 12531
SWIDTH 1000 0
DWIDTH 24 0
BBX 18 16 4 1
BITMAP
E00000
380000
1C0080
0C00C0
0C0100
000100
000200
000400
000C00
001800
007000
00E000
038000
8F0000
7C0000
300000
ENDCHAR
STARTCHAR 30F4
ENCODING 12532
SWIDTH 1000 0
DWIDTH 24 0
BBX 20 22 4 -1
BITMAP
000080
000060
038320
0181B0
018080
018200
C7FF00
780300
600200
600600
600600
600600
600400
600C00
000800
001800
003000
006000
00C000
018000
020000
0C0000
ENDCHAR
STARTCHAR 30F5
ENCODING 12533
SWIDTH 1000 0
DWIDTH 24 0
BBX 16 17 4 -1
BITMAP
0100
0080
0080
0080
0186
41FA
3F03
0106
0306
0204
0204
0404
0C8C
0848
1038
2030
C000
ENDCHAR
STARTCHAR 30F6
ENCODING 12534
SWIDTH 1000 0
DWIDTH 24 0
BBX 16 17 4 -1
BITMAP
0800
0400
0C00
0C00
081F
1FE0
1060
2040
4040
8040
00C0
0080
0180
0100
0200
0C00
1000
ENDCHAR
STARTCHAR 30F7
ENCODING 12535
SWIDTH 1000 0
DWIDTH 24 0
BBX 20 22 4 -1
BITMAP
000040
000030
0003B0
0000C0
C006C0
7FFB00
600300
600600
600600
600600
600400
600C00
600C00
001800
001000
003000
006000
00C000
018000
030000
040000
180000
ENDCHAR
STARTCHAR 30F8
ENCODING 12536
SWIDTH 1000 0
DWIDTH 24 0
BBX 20 21 3 -1
BITMAP
000060
006130
0030D0
003040
003000
403300
3FFF80
0C3000
0C3000
0C3000
0C3000
0C3000
0C3000
CCFFC0
7F3020
003000
003000
003000
003000
003000
002000
ENDCHAR
STARTCHAR 30F9
ENCODING 12537
SWIDTH 1000 0
DWIDTH 24 0
BBX 22 19 2 2
BITMAP
000020
000018
0000CC
00006C
0001B0
200F80
1FF380
000600
000C00
01B000
006000
006000
006000
006000
006000
006000
006000
807FF0
7F8000
ENDCHAR
STARTCHAR 30FA
ENCODING 12538
SWIDTH 1000 0
DWIDTH 24 0
BBX 20 22 4 -1
BITMAP
000040
000030
0003B0
0000C0
FFFEC0
7FC300
000300
000600
000600
803C00
7FCC00
000C00
001800
001800
003000
002000
006000
00C000
010000
020000
0C0000
100000
ENDCHAR
STARTCHAR 30FB
ENCODING 12539
SWIDTH 1000 0
DWIDTH 24 0
BBX 4 3 10 7
BITMAP
60
F0
60
ENDCHAR
STARTCHAR 30FC
ENCODING 12540
SWIDTH 1000 0
DWIDTH 24 0
BBX 20 2 2 9
BITMAP
FFFFE0
7FFFF0
ENDCHAR
STARTCHAR 30FD
ENCODING 12541
SWIDTH 1000 0
DWIDTH 24 0
BBX 10 12 7 3
BITMAP
8000
6000
3000
1800
0C00
0600
0300
0380
0180
01C0
00C0
00C0
ENDCHAR
STARTCHAR 30FE
ENCODING 12542
SWIDTH 1000 0
DWIDTH 24 0
BBX 13 15 7 3
BITMAP
0040
0030
0198
8058
6060
3000
1800
0C00
0600
0300
0380
0180
01C0
00C0
00C0
ENDCHAR
STARTCHAR 30FF
ENCODING 12543
SWIDTH 1000 0
DWIDTH 24 0
BBX 15 19 4 -1
BITMAP
0004
807E
7F84
0004
0004
0004
0004
0004
0004
0004
0004
0004
0004
0004
0004
0004
0004
0004
0004
ENDCHAR
STARTCHAR 31F0
ENCODING 12784
SWIDTH 1000 0
DWIDTH 24 0
BBX 13 16 5 -1
BITMAP
0600
0300
0618
07F8
0C18
1810
1030
2020
C060
00C0
0180
0300
0600
0C00
3000
C000
ENDCHAR
STARTCHAR 31F1
ENCODING 12785
SWIDTH 1000 0
DWIDTH 24 0
BBX 15 15 5 0
BITMAP
2000
1C00
0600
0202
8002
7004
180C
1808
0010
0060
00C0
0180
0700
7C00
3800
ENDCHAR
STARTCHAR 31F2
ENCODING 12786
SWIDTH 1000 0
DWIDTH 24 0
BBX 15 14 4 0
BITMAP
0010
20F0
1F30
0020
0060
0040
00C0
0180
0160
0210
040C
0806
3006
C002
ENDCHAR
STARTCHAR 31F3
ENCODING 12787
SWIDTH 1000 0
DWIDTH 24 0
BBX 9 17 9 -1
BITMAP
8000
4000
4000
4000
4000
4000
6000
5C00
4700
4180
4080
4000
4000
4000
4000
4000
4000
ENDCHAR
STARTCHAR 31F4
ENCODING 12788
SWIDTH 1000 0
DWIDTH 24 0
BBX 13 14 5 0
BITMAP
4070
3FB0
0030
0020
0060
3840
06C0
0180
0160
0230
0410
0818
3000
C000
ENDCHAR
STARTCHAR 31F5
ENCODING 12789
SWIDTH 1000 0
DWIDTH 24 0
BBX 17 12 3 0
BITMAP
042000
021000
030800
060400
040600
0C0300
080300
180180
100180
200080
400000
800000
ENDCHAR
STARTCHAR 31F6
ENCODING 12790
SWIDTH 1000 0
DWIDTH 24 0
BBX 14 15 5 0
BITMAP
4000
E000
2000
2030
2038
20E0
2300
3C00
2000
2000
2000
2000
2000
3018
0FFC
ENDCHAR
STARTCHAR 31F7
ENCODING 12791
SWIDTH 1000 0
DWIDTH 24 0
BBX 14 14 5 -1
BITMAP
8018
7FEC
0018
0018
0010
0030
0020
0060
00C0
0180
0300
0600
0800
3000
ENDCHAR
STARTCHAR 31F8
ENCODING 12792
SWIDTH 1000 0
DWIDTH 24 0
BBX 16 10 4 2
BITMAP
0600
0500
0880
1840
3020
6018
E00C
C006
0003
0001
ENDCHAR
STARTCHAR 31F9
ENCODING 12793
SWIDTH 1000 0
DWIDTH 24 0
BBX 16 17 4 -1
BITMAP
0200
0180
0180
0080
0080
41FE
7E81
0080
1098
108C
1086
2082
6083
C883
C780
0180
0100
ENDCHAR
STARTCHAR 31FA
ENCODING 12794
SWIDTH 1000 0
DWIDTH 24 0
BBX 15 15 4 0
BITMAP
0300
0180
0100
0300
0200
0200
0440
0420
0810
0808
100C
1076
EF86
7002
0002
ENDCHAR
STARTCHAR 31FB
ENCODING 12795
SWIDTH 1000 0
DWIDTH 24 0
BBX 13 16 5 -1
BITMAP
20E0
1F20
0000
0000
0008
8078
7F98
0030
0030
0060
0040
0080
0100
0600
0800
3000
ENDCHAR
STARTCHAR 31FC
ENCODING 12796
SWIDTH 1000 0
DWIDTH 24 0
BBX 9 16 7 -1
BITMAP
0380
C080
4080
4080
4080
4080
4080
4080
4080
4180
0100
0300
0200
0400
1800
2000
ENDCHAR
STARTCHAR 31FD
ENCODING 12797
SWIDTH 1000 0
DWIDTH 24 0
BBX 18 14 3 0
BITMAP
00E000
0C6000
066000
066000
066000
066040
046080
046080
046100
084200
084C00
105800
207000
C06000
ENDCHAR
STARTCHAR 31FE
ENCODING 12798
SWIDTH 1000 0
DWIDTH 24 0
BBX 13 14 7 0
BITMAP
C000
4000
4000
4000
4018
4010
4020
4040
4180
4300
4600
5800
F000
4000
ENDCHAR
STARTCHAR 31FF
ENCODING 12799
SWIDTH 1000 0
DWIDTH 24 0
BBX 14 13 5 0
BITMAP
C018
7FFC
6008
6008
6008
6018
6018
6018
6010
6010
6FF8
7000
6000
ENDCHAR
STARTCHAR 3231
ENCODING 12849
SWIDTH 1000 0
DWIDTH 24 0
BBX 22 22 1 -2
BITMAP
100020
240410
232310
621A18
421208
42B248
5FFFE8
C6220C
C6420C
C7422C
87FFF4
8A8604
CA8F0C
D20B0C
D21A8C
6212C8
422268
424278
424238
228210
220210
100020
ENDCHAR
STARTCHAR 3232
ENCODING 12850
SWIDTH 1000 0
DWIDTH 24 0
BBX 22 22 1 -2
BITMAP
100020
204010
206010
604058
40C048
5FFFE8
408008
C1010C
C1FF8C
C3010C
830104
85FF04
CD010C
C9010C
D1FF0C
410108
410108
410108
411118
210F10
210210
100020
ENDCHAR
STARTCHAR 3239
ENCODING 12857
SWIDTH 1000 0
DWIDTH 24 0
BBX 22 22 1 -2
BITMAP
100020
211810
219E10
630998
430888
420888
460848
C7086C
C6FF8C
CE080C
960C04
960C04
E6040C
C6040C
C6060C
460248
460348
460148
4601D8
2600F0
260010
100020
ENDCHAR
STARTCHAR 3251
ENCODING 12881
SWIDTH 1000 0
DWIDTH 24 0
BBX 22 22 1 -2
BITMAP
00FC00
030300
040080
080040
178120
2CC710
4C4308
4C4308
804308
80C304
808304
818304
810304
820304
824308
444308
484310
2FC790
100020
0C00C0
030300
00FC00
ENDCHAR
STARTCHAR 3252
ENCODING 12882
SWIDTH 1000 0
DWIDTH 24 0
BBX 22 22 1 -2
BITMAP
00FC00
030300
040080
080040
1787A0
2CC8D0
4C48C8
4C4C48
8040C8
80C0C4
808084
818104
810304
820204
844448
444848
484850
2FCFD0
100020
0C00C0
030300
00FC00
ENDCHAR
STARTCHAR 3253
ENCODING 12883
SWIDTH 1000 0
DWIDTH 24 0
BBX 22 22 1 -2
BITMAP
00FC00
070380
0800C0
100020
278790
4C48D0
4C4C48
8C4C48
804044
80C0C4
808304
8180C4
810044
820064
864C68
444C48
4848D0
2FC790
100020
0C00C0
030300
00FC00
ENDCHAR
STARTCHAR 3254
ENCODING 12884
SWIDTH 1000 0
DWIDTH 24 0
BBX 22 22 1 -2
BITMAP
00FC00
030300
0C00C0
100020
278190
2CC190
4C4388
4C4388
804584
80C584
808984
818984
811184
821FE4
844188
444188
484190
2FC3D0
100020
0C00C0
030300
00FC00
ENDCHAR
STARTCHAR 3255
ENCODING 12885
SWIDTH 1000 0
DWIDTH 24 0
BBX 22 22 1 -2
BITMAP
00FC00
030300
0C00C0
100020
278FD0
284810
4C4808
4C4808
804804
80CB84
808CC4
818844
810044
820064
864C68
444C48
4848D0
2FC790
100020
0C00C0
030300
00FC00
ENDCHAR
STARTCHAR 3256
ENCODING 12886
SWIDTH 1000 0
DWIDTH 24 0
BBX 22 22 1 -2
BITMAP
00FC00
030300
040080
080040
1783A0
2CC4D0
484CC8
4C48C8
804808
80C804
808B84
818CC4
810844
820844
844848
444848
484CD0
2FC790
100020
0C00C0
030300
00FC00
ENDCHAR
STARTCHAR 3257
ENCODING 12887
SWIDTH 1000 0
DWIDTH 24 0
BBX 22 22 1 -2
BITMAP
00FC00
030300
0C00C0
100020
278FD0
28C850
4C5088
4C5088
804084
80C104
808104
818104
810304
820204
844208
444208
484210
2FC210
100020
0C00C0
030300
00FC00
ENDCHAR
STARTCHAR 3258
ENCODING 12888
SWIDTH 1000 0
DWIDTH 24 0
BBX 22 22 1 -2
BITMAP
00FC00
030300
040080
080040
1787A0
2CCCD0
484C48
4C4848
804C48
80C484
808304
818584
8108C4
820844
844868
444848
484CD0
2FC790
100020
0C00C0
030300
00FC00
ENDCHAR
STARTCHAR 3259
ENCODING 12889
SWIDTH 1000 0
DWIDTH 24 0
BBX 22 22 1 -2
BITMAP
00FC00
030300
040080
080040
1787A0
2CCC90
484848
4C4848
804848
80C844
808844
818CC4
810744
820044
844048
444CC8
484C90
2FC710
100020
0C00C0
030300
00FC00
ENDCHAR
STARTCHAR 325A
ENCODING 12890
SWIDTH 1000 0
DWIDTH 24 0
BBX 22 22 1 -2
BITMAP
00FC00
070380
0800C0
100020
278710
48C490
4CCCC8
8C48C8
80C844
808844
830844
808844
804844
804844
5848C8
584CC8
28C490
278790
100020
0C00C0
030300
00FC00
ENDCHAR
STARTCHAR 325B
ENCODING 12891
SWIDTH 1000 0
DWIDTH 24 0
BBX 22 22 1 -2
BITMAP
00FC00
070380
0800C0
100120
278710
48C310
4C4308
8C4308
804304
80C304
830304
80C304
804304
806304
8C6308
4C4308
28C310
278790
100020
0C00C0
030300
00FC00
ENDCHAR
STARTCHAR 325C
ENCODING 12892
SWIDTH 1000 0
DWIDTH 24 0
BBX 22 22 1 -2
BITMAP
00FC00
070380
0800C0
100020
278790
48C8D0
4C4CC8
8C5CC8
80C0C4
808084
830184
808104
804304
804204
884448
5C4848
48C850
279FD0
100020
0C00C0
030300
00FC00
ENDCHAR
STARTCHAR 325D
ENCODING 12893
SWIDTH 1000 0
DWIDTH 24 0
BBX 22 22 1 -2
BITMAP
00FC00
070380
0800C0
100020
278790
48C8D0
4C4C48
8C4C48
80C044
808084
830304
8080C4
804044
804044
484C68
5C4C48
28C8D0
278790
100020
0C00C0
030300
00FC00
ENDCHAR
STARTCHAR 325E
ENCODING 12894
SWIDTH 1000 0
DWIDTH 24 0
BBX 22 22 1 -2
BITMAP
00FC00
030300
0C00C0
100020
278190
28C190
4C4388
8C4388
804584
808584
830984
808984
805184
805FC4
484188
5C4188
28C190
2783D0
100020
0C00C0
030300
00FC00
ENDCHAR
STARTCHAR 325F
ENCODING 12895
SWIDTH 1000 0
DWIDTH 24 0
BBX 22 22 1 -2
BITMAP
00FC00
030300
0C00C0
100020
278FD0
28C810
4C4808
8C4808
80C804
808B84
830CC4
808844
804064
804064
484C48
5C4C48
28C8D0
278790
100020
0C00C0
030300
00FC00
ENDCHAR
STARTCHAR 32A4
ENCODING 12964
SWIDTH 1000 0
DWIDTH 24 0
BBX 22 22 1 -2
BITMAP
00FC00
030300
0C00C0
103020
202010
202010
402008
802008
802184
803F84
802004
802004
802004
802004
402008
4020C8
2FFFF0
300010
180020
0C00C0
030300
00FC00
ENDCHAR
STARTCHAR 32A5
ENCODING 12965
SWIDTH 1000 0
DWIDTH 24 0
BBX 22 22 1 -2
BITMAP
00FC00
070300
0800C0
103020
203010
403010
483088
8FFFC8
8C30C4
8C30C4
8C30C4
8C30C4
8C30C4
8FFFC4
403008
403008
203010
203010
103020
0C00C0
030300
00FC00
ENDCHAR
STARTCHAR 32A6
ENCODING 12966
SWIDTH 1000 0
DWIDTH 24 0
BBX 22 22 1 -2
BITMAP
00FC00
030300
040080
180040
100020
2000D0
5FFFE8
402008
802008
803004
802C04
802304
802184
802184
802008
402008
202010
202010
102020
0C00C0
030300
00FC00
ENDCHAR
STARTCHAR 32A7
ENCODING 12967
SWIDTH 1000 0
DWIDTH 24 0
BBX 22 22 1 -2
BITMAP
00FC00
070380
0880C0
106020
20C010
40C0D0
4FFFC8
808008
808004
818004
810104
81FF84
831004
861004
441008
481008
3010D0
27FFD0
100020
0C0040
030180
00FE00
ENDCHAR
STARTCHAR 32A8
ENCODING 12968
SWIDTH 1000 0
DWIDTH 24 0
BBX 22 21 1 -1
BITMAP
00FC00
070380
0860C0
104020
204010
40C050
5FFFE8
808008
818004
810004
830104
83FF84
870184
8D0188
490188
510190
21FF90
1101A0
080040
070180
00FE00
ENDCHAR
STARTCHAR 32B1
ENCODING 12977
SWIDTH 1000 0
DWIDTH 24 0
BBX 22 22 1 -2
BITMAP
00FC00
070380
0800C0
100020
278390
48C4D0
4C4CC8
8C4808
80C804
808B84
830CC4
808844
804844
804844
484848
5C4848
28CC90
278790
100020
0C00C0
030300
00FC00
ENDCHAR
STARTCHAR 32B2
ENCODING 12978
SWIDTH 1000 0
DWIDTH 24 0
BBX 22 22 1 -2
BITMAP
00FC00
030300
0C00C0
100020
278FD0
28C850
4C5088
8C5088
804084
808104
830104
808104
804304
804204
484208
5C4208
28C210
278210
100020
0C00C0
030300
00FC00
ENDCHAR
STARTCHAR 32B3
ENCODING 12979
SWIDTH 1000 0
DWIDTH 24 0
BBX 22 22 1 -2
BITMAP
00FC00
070380
0800C0
100020
278790
48CC50
4C4C48
8C4C48
804CC4
808784
830304
808584
8048C4
804844
484868
5C4848
28CCD0
278790
100020
0C00C0
030300
00FC00
ENDCHAR
STARTCHAR 32B4
ENCODING 12980
SWIDTH 1000 0
DWIDTH 24 0
BBX 22 22 1 -2
BITMAP
00FC00
070380
0800C0
100020
278790
48C890
4C4848
8C4848
804844
80C844
830844
80CCC4
804744
806044
4C6048
4C4CC8
28C990
278710
100020
0C00C0
030300
00FC00
ENDCHAR
STARTCHAR 32B5
ENCODING 12981
SWIDTH 1000 0
DWIDTH 24 0
BBX 22 22 1 -2
BITMAP
00FC00
030300
0C00C0
100020
210390
210490
430CC8
830C48
850844
850844
890844
890844
910844
9FC844
410848
410CC8
210490
23C390
100020
0C00C0
030300
00FC00
ENDCHAR
STARTCHAR 32B6
ENCODING 12982
SWIDTH 1000 0
DWIDTH 24 0
BBX 22 22 1 -2
BITMAP
00FC00
030300
0C00C0
100020
218310
218710
428308
828308
848304
848304
888304
888304
908304
9FE304
408308
408308
218310
23C7D0
100020
0C00C0
030300
00FC00
ENDCHAR
STARTCHAR 32B7
ENCODING 12983
SWIDTH 1000 0
DWIDTH 24 0
BBX 22 22 1 -2
BITMAP
00FC00
030300
0C00C0
100020
210790
2308D0
4308C8
451CC8
8500C4
890084
890184
910104
910304
9FC204
810448
410848
410850
23DFD0
140020
0C00C0
030300
00FC00
ENDCHAR
STARTCHAR 32B8
ENCODING 12984
SWIDTH 1000 0
DWIDTH 24 0
BBX 22 22 1 -2
BITMAP
00FC00
030300
0C00C0
100020
210790
2308D0
430C48
850C48
850044
890084
890304
910084
910044
9FC044
410848
411C48
2108D0
27C790
100020
0C00C0
030300
00FC00
ENDCHAR
STARTCHAR 32B9
ENCODING 12985
SWIDTH 1000 0
DWIDTH 24 0
BBX 22 22 1 -2
BITMAP
00FC00
030300
0C00C0
100020
210190
230190
430388
850388
850584
890584
890984
910984
911184
9FDFE4
410188
410188
210190
27C3D0
100020
0C00C0
030300
00FC00
ENDCHAR
STARTCHAR 32BA
ENCODING 12986
SWIDTH 1000 0
DWIDTH 24 0
BBX 22 22 1 -2
BITMAP
00FC00
030300
0C00C0
100020
210FD0
230810
430808
850808
850804
890F84
890CC4
910044
910044
9FC044
410C48
410C48
2108D0
27C790
100020
0C00C0
030300
00FC00
ENDCHAR
STARTCHAR 32BB
ENCODING 12987
SWIDTH 1000 0
DWIDTH 24 0
BBX 22 22 1 -2
BITMAP
00FC00
030300
0C00C0
100020
210390
2304D0
430CC8
850808
850804
890B84
890CC4
910844
910844
9FC844
410848
410C48
2104D0
27C790
100020
0C00C0
030300
00FC00
ENDCHAR
STARTCHAR 32BC
ENCODING 12988
SWIDTH 1000 0
DWIDTH 24 0
BBX 22 22 1 -2
BITMAP
00FC00
030300
0C00C0
100020
219FD0
219890
439088
839088
858104
858104
898104
898304
918204
9FC204
418208
418608
218610
23C610
100020
0C00C0
030300
00FC00
ENDCHAR
STARTCHAR 32BD
ENCODING 12989
SWIDTH 1000 0
DWIDTH 24 0
BBX 22 22 1 -2
BITMAP
00FC00
030300
0C00C0
100020
210790
230CD0
430C48
850848
850CC4
890684
890304
910584
9108C4
9FC844
411848
410848
210CD0
27C790
100020
0C00C0
030300
00FC00
ENDCHAR
STARTCHAR 32BE
ENCODING 12990
SWIDTH 1000 0
DWIDTH 24 0
BBX 22 22 1 -2
BITMAP
00FC00
030300
0C00C0
100020
218790
218C90
438848
838848
858844
858844
898CC4
8987C4
918044
9FC044
418C48
418CC8
218990
23C710
100020
0C00C0
030300
00FC00
ENDCHAR
STARTCHAR 32BF
ENCODING 12991
SWIDTH 1000 0
DWIDTH 24 0
BBX 22 22 1 -2
BITMAP
00FC00
030300
0C00C0
100020
2FC710
480490
480CC8
8808C8
880844
8B8844
8CC844
804844
804844
806844
4C48C8
4C4CC8
28C490
3787B0
180060
0C00C0
030300
00FC00
ENDCHAR
STARTCHAR 32D0
ENCODING 13008
SWIDTH 1000 0
DWIDTH 24 0
BBX 22 22 1 -2
BITMAP
00FC00
030300
0C00C0
100020
200090
4807D0
47F988
800308
800604
803804
801004
801004
803004
803004
402008
402008
204010
208010
110020
0C00C0
030300
00FC00
ENDCHAR
STARTCHAR 32D1
ENCODING 13009
SWIDTH 1000 0
DWIDTH 24 0
BBX 22 22 1 -2
BITMAP
00FC00
030300
0C00C0
100220
200310
400310
400608
800C08
803804
807004
819004
861004
981004
801004
401008
401008
201010
201010
103020
0C00C0
030300
00FC00
ENDCHAR
STARTCHAR 32D2
ENCODING 13010
SWIDTH 1000 0
DWIDTH 24 0
BBX 22 22 1 -2
BITMAP
00FC00
030300
0C00C0
103020
201010
401010
441088
83FFC8
820084
820084
820184
820184
820104
800304
400608
400408
200810
201010
106020
0C80C0
030300
00FC00
ENDCHAR
STARTCHAR 32D3
ENCODING 13011
SWIDTH 1000 0
DWIDTH 24 0
BBX 22 22 1 -2
BITMAP
00FC00
030300
0C00C0
100020
200010
400010
480388
87FC08
803004
803004
803004
803004
803004
803004
6030C8
507FE8
2F8010
200010
100020
0C00C0
030300
00FC00
ENDCHAR
STARTCHAR 32D4
ENCODING 13012
SWIDTH 1000 0
DWIDTH 24 0
BBX 22 22 1 -2
BITMAP
00FC00
030300
0C18C0
100C20
200C10
400410
5004C8
8FFF68
801404
802404
802404
804404
808404
818404
430408
442408
281C10
200C10
100420
0C00C0
030300
00FC00
ENDCHAR
STARTCHAR 32D5
ENCODING 13013
SWIDTH 1000 0
DWIDTH 24 0
BBX 22 22 1 -2
BITMAP
00FC00
030300
0C20C0
101820
201010
401010
4010C8
843FC8
83F0C4
802084
802084
806084
804084
804184
409108
410B08
230610
240610
100020
0C00C0
030300
00FC00
ENDCHAR
STARTCHAR 32D6
ENCODING 13014
SWIDTH 1000 0
DWIDTH 24 0
BBX 22 22 1 -2
BITMAP
00FC00
030300
0C00C0
10E020
206010
402010
402388
803F08
88E004
871004
8010C4
8017E4
907804
8F9804
401808
400808
200810
200C10
100820
0C00C0
030300
00FC00
ENDCHAR
STARTCHAR 32D7
ENCODING 13015
SWIDTH 1000 0
DWIDTH 24 0
BBX 22 22 1 -2
BITMAP
00FC00
030300
0C00C0
103020
203010
402190
407EC8
804188
80C184
818104
830304
840604
800404
800C04
401808
403008
20C010
210010
160020
0C00C0
030300
00FC00
ENDCHAR
STARTCHAR 32D8
ENCODING 13016
SWIDTH 1000 0
DWIDTH 24 0
BBX 22 22 1 -2
BITMAP
00FC00
030300
0C00C0
118020
20C010
408010
4180C8
81FFE8
830C04
820C04
840C04
880C04
900804
801804
401008
403008
206010
20C010
110020
0C00C0
030300
00FC00
ENDCHAR
STARTCHAR 32D9
ENCODING 13017
SWIDTH 1000 0
DWIDTH 24 0
BBX 22 22 1 -2
BITMAP
00FC00
030300
0C00C0
100020
200010
400110
460388
83FD88
800184
800104
800104
800104
800104
800104
400108
440308
23FC90
200010
100020
0C00C0
030300
00FC00
ENDCHAR
STARTCHAR 32DA
ENCODING 13018
SWIDTH 1000 0
DWIDTH 24 0
BBX 22 22 1 -2
BITMAP
00FC00
030300
0C00C0
100420
210210
408210
408208
808208
9087E4
8FFA14
808204
808204
818204
808604
400408
400C08
200810
203010
106020
0D80C0
030300
00FC00
ENDCHAR
STARTCHAR 32DB
ENCODING 13019
SWIDTH 1000 0
DWIDTH 24 0
BBX 22 22 1 -2
BITMAP
00FC00
030300
0C00C0
100020
218010
406010
403028
803028
8F0044
818044
818084
800104
800204
800C04
401808
407008
23E010
238010
100020
0C00C0
030300
00FC00
ENDCHAR
STARTCHAR 32DC
ENCODING 13020
SWIDTH 1000 0
DWIDTH 24 0
BBX 22 22 1 -2
BITMAP
00FC00
030300
0C00C0
100020
220610
41FB10
400608
800608
800C04
800804
801804
801C04
802204
804184
4080C8
410048
260050
280010
100020
0C00C0
030300
00FC00
ENDCHAR
STARTCHAR 32DD
ENCODING 13021
SWIDTH 1000 0
DWIDTH 24 0
BBX 22 22 1 -2
BITMAP
00FC00
030300
0C00C0
120020
218010
418010
418008
818188
81BFC4
93C104
8D8204
818404
818804
818004
418008
408008
20C310
207F90
100020
0C00C0
030300
00FC00
ENDCHAR
STARTCHAR 32DE
ENCODING 13022
SWIDTH 1000 0
DWIDTH 24 0
BBX 22 22 1 -2
BITMAP
00FC00
030300
0C00C0
100020
200190
4400D0
4200C8
830088
818184
818184
818304
800304
800604
800404
400808
401008
202010
20C010
110020
0C00C0
030300
00FC00
ENDCHAR
STARTCHAR 32DF
ENCODING 13023
SWIDTH 1000 0
DWIDTH 24 0
BBX 22 22 1 -2
BITMAP
00FC00
030300
0C00C0
102020
203010
402190
407EC8
804188
808104
818304
826204
841E04
800C04
800E04
401A08
403308
204010
218010
120020
0C00C0
030300
00FC00
ENDCHAR
STARTCHAR 32E0
ENCODING 13024
SWIDTH 1000 0
DWIDTH 24 0
BBX 22 22 1 -2
BITMAP
00FC00
030300
0C00C0
100220
200310
401E10
41F808
861808
801804
8018E4
903FE4
8FD004
801004
801004
403008
406008
204010
208010
130020
0C00C0
030300
00FC00
ENDCHAR
STARTCHAR 32E1
ENCODING 13025
SWIDTH 1000 0
DWIDTH 24 0
BBX 22 22 1 -2
BITMAP
00FC00
030300
0C00C0
100020
200010
4040D0
482048
8630C8
8230C4
833084
830184
800104
800304
800604
400408
400808
201010
206010
108020
0D00C0
030300
00FC00
ENDCHAR
STARTCHAR 32E2
ENCODING 13026
SWIDTH 1000 0
DWIDTH 24 0
BBX 22 22 1 -2
BITMAP
00FC00
030300
0C00C0
100020
220710
41FE10
400008
800008
800064
8807E4
87F804
801804
801004
801004
401008
403008
206010
204010
118020
0C00C0
030300
00FC00
ENDCHAR
STARTCHAR 32E3
ENCODING 13027
SWIDTH 1000 0
DWIDTH 24 0
BBX 22 22 1 -2
BITMAP
00FC00
030300
0C00C0
10C020
204010
404010
404008
804008
806004
805804
804604
804304
804184
804184
404008
404008
204010
204010
104020
0C00C0
030300
00FC00
ENDCHAR
STARTCHAR 32E5
ENCODING 13029
SWIDTH 1000 0
DWIDTH 24 0
BBX 22 22 1 -2
BITMAP
00FC00
030300
0C00C0
100020
200010
400010
440308
83FC88
800004
800004
800004
800004
800004
9003E4
4FFC08
400008
200010
200010
100020
0C00C0
030300
00FC00
ENDCHAR
STARTCHAR 32E9
ENCODING 13033
SWIDTH 1000 0
DWIDTH 24 0
BBX 22 22 1 -2
BITMAP
00FC00
030300
0C00C0
100020
200010
418410
40C208
808308
818184
818084
8100C4
820064
860064
840064
480028
500008
200010
200010
100020
0C00C0
030300
00FC00
ENDCHAR
STARTCHAR 32EC
ENCODING 13036
SWIDTH 1000 0
DWIDTH 24 0
BBX 22 22 1 -2
BITMAP
00FC00
030300
0C00C0
100020
200010
400010
40C008
81A008
831004
860C04
8C0604
9C0304
9801C4
8000E4
400028
400008
200010
200010
100020
0C00C0
030300
00FC00
ENDCHAR
ENDFONT
